<?xml version="1.0" encoding="utf-8"?>
<!-- Generator: Adobe Illustrator 24.0.0, SVG Export Plug-In . SVG Version: 6.00 Build 0)  -->
<svg version="1.1" id="Layer_1" xmlns="http://www.w3.org/2000/svg" xmlns:xlink="http://www.w3.org/1999/xlink" x="0px" y="0px"
	 viewBox="0 0 21 21" style="enable-background:new 0 0 21 21;" xml:space="preserve">
<style type="text/css">
	.st0{fill-rule:evenodd;clip-rule:evenodd;}
</style>
<g>
	<g>
		<path class="st0" d="M3.5,1.3c0.6-0.4,1.6,17.3,0,17.8C3,19.6,2,1.8,3.5,1.3z"/>
		<path d="M3.5,0C6.9-0.7,5,14.5,5.5,18.2C2.1,29.4-1.2,0.3,3.5,0z"/>
	</g>
	<g>
		<path class="st0" d="M7.8,10.2c-0.3-1.1,6.7-0.5,8-0.6c-6.6-5.5,1.2-3.3,2,1.1c-2.8,3.7-7.6,5.9-2,0.2
			C15.1,10.4,8.5,11.8,7.8,10.2z"/>
		<path d="M13.6,4.5c13.6,5.4-4.3,17.2-0.8,7.6c-6.6,1.6-9.5-4.5,0-3.8C12.4,8,10,5.4,13.6,4.5z"/>
	</g>
</g>
</svg>
