<?xml version="1.0" encoding="utf-8"?>
<!-- Generator: Adobe Illustrator 24.0.0, SVG Export Plug-In . SVG Version: 6.00 Build 0)  -->
<svg version="1.1" id="Layer_1" xmlns="http://www.w3.org/2000/svg" xmlns:xlink="http://www.w3.org/1999/xlink" x="0px" y="0px"
	 viewBox="0 0 302 338.8" style="enable-background:new 0 0 302 338.8;" xml:space="preserve">
<style type="text/css">
	.st0{fill-rule:evenodd;clip-rule:evenodd;fill:#A9A95E;}
</style>
<g>
	<path class="st0" d="M17,0c40,20,84,54,126,94c55-41,113-76,159-94c-57,39-103,74-144,109c54,54,102,115,128,162
		c-53-59-99-106-145-147c-45,40-83,81-122,129c-3,4-17-2-19-18c27-41,73-86,123-126C85,77,46,49,1,21C-3,18,1,4,17,0z"/>
</g>
</svg>
