<?xml version="1.0" encoding="utf-8"?>
<!-- Generator: Adobe Illustrator 24.0.0, SVG Export Plug-In . SVG Version: 6.00 Build 0)  -->
<svg version="1.1" id="Layer_1" xmlns="http://www.w3.org/2000/svg" xmlns:xlink="http://www.w3.org/1999/xlink" x="0px" y="0px"
	 viewBox="0 0 561 202" style="enable-background:new 0 0 561 202;" xml:space="preserve">
<style type="text/css">
	.st0{fill:#A9A95E;}
	.st1{enable-background:new    ;}
</style>
<title>full logo</title>
<g id="Layer_1-2">
	<g>
		<path class="st0" d="M127.1,53.5l-4.1,0.7c-3.8,0.6-7.2,2.4-9.9,5.2L98.4,75.2L68.2,62c-2-0.9-4.3-0.4-5.8,1.1l-4.3,4.3
			c-0.4,0.4-0.5,1-0.1,1.4c0.1,0.1,0.1,0.1,0.2,0.2l27.7,19.6l-19.7,21.2l-12.6-2.9c-0.8-0.2-1.7,0.1-2.3,0.7l-3.6,3.6
			c-0.4,0.4-0.4,1.1,0,1.5c0.1,0.1,0.1,0.1,0.2,0.2l15.7,9.3c0.3,0.2,0.6,0.5,0.8,0.8l9.3,15.7c0.3,0.5,1,0.7,1.5,0.4
			c0.1,0,0.1-0.1,0.2-0.2l3.6-3.6c0.6-0.6,0.8-1.5,0.7-2.3l-2.9-12.6L98,100.7l19.6,27.7c0.3,0.5,0.9,0.6,1.4,0.3
			c0.1-0.1,0.2-0.1,0.2-0.2l4.3-4.3c1.5-1.5,2-3.8,1.1-5.8l-13.2-30.2l15.8-14.7c2.8-2.6,4.6-6.1,5.2-9.9l0.7-4.1
			c0.4-2.8-1.5-5.5-4.3-5.9C128.2,53.5,127.6,53.5,127.1,53.5z"/>
		<path class="st0" d="M60.1,130.9c1-1.4,0.8-3.3-0.6-4.3c-1.4-1-3.3-0.8-4.3,0.6l0,0l-6.8,9.2c-0.4,0.5-0.4,1.2,0,1.7
			c0.5,0.6,1.4,0.8,2,0.3l0,0l9.2-6.8C59.7,131.3,59.9,131,60.1,130.9z"/>
		<path class="st0" d="M50.1,124.1c1-1.4,0.8-3.3-0.6-4.3c-1.4-1-3.3-0.8-4.3,0.6l-6.8,9.2c-0.4,0.5-0.4,1.2,0,1.7
			c0.5,0.6,1.4,0.8,2,0.3l0,0l9.2-6.8C49.7,124.6,50,124.3,50.1,124.1z"/>
		<path class="st0" d="M61.8,137.1l-6.8,9.2c-0.4,0.5-0.4,1.2,0,1.7c0.5,0.6,1.4,0.8,2,0.3l0,0l9.2-6.8c0.2-0.2,0.5-0.4,0.6-0.6
			c1-1.4,0.7-3.3-0.6-4.3c-1.2-1.1-3.1-1-4.2,0.3C61.9,136.9,61.9,137,61.8,137.1z"/>
	</g>
</g>
<g class="st1">
	<path class="st0" d="M173.4,97.5c0.8,0,1.5,0.3,2,0.9c0.5,0.6,0.7,1.4,0.7,2.4c0,0.3,0,0.5,0,0.8c0,0.3-0.1,0.5-0.1,0.7
		c-0.7-0.2-1.4-0.3-2.2-0.3c-0.2,1.4-0.7,2.9-1.5,4.4c-0.8,1.5-1.8,3-3,4.3c-1.2,1.3-2.5,2.5-3.9,3.5s-2.8,1.7-4.2,2
		c-4.3,0-7.4-1.1-9.4-3.2c-2-2.1-3-5.5-3-10c0-3.3,0.6-6.5,1.8-9.6c1.2-3.1,2.8-5.8,4.8-8.2c2-2.4,4.3-4.3,6.9-5.8
		c2.6-1.5,5.3-2.2,8.1-2.2c2.2,0,3.9,0.5,5.2,1.4c1.2,0.9,1.8,2.2,1.8,3.9c0,1.1-0.3,2.2-0.8,3.1s-1.4,2-2.6,3.1
		c-0.7-0.2-1.4-0.6-1.9-1.2c-0.5-0.6-0.9-1.2-1-1.9c1.1-0.8,1.9-1.5,2.3-2.2c0.4-0.7,0.7-1.5,0.7-2.4c0-1.5-0.9-2.2-2.6-2.2
		c-1.4,0-3,0.5-4.6,1.6c-1.6,1.1-3.3,2.6-5,4.6c-2.4,2.9-4.1,5.8-5.2,8.8c-1.1,3-1.6,6.4-1.6,10.2c0,1.4,0.1,2.7,0.4,3.8
		s0.7,2.2,1.2,3c0.5,0.9,1,1.6,1.7,2.1c0.7,0.5,1.4,0.8,2.1,0.9c1-0.2,2-0.7,3.1-1.6c1-0.8,2-1.8,2.8-2.9c0.8-1.1,1.6-2.3,2.2-3.6
		c0.6-1.3,1-2.5,1.1-3.6c-0.9,0.2-1.8,0.4-2.6,0.5c-0.8,0.2-1.6,0.3-2.3,0.3c-1,0-1.8-0.2-2.5-0.7c-0.7-0.5-1.2-1.1-1.5-2
		c0.6-0.3,1.4-0.7,2.5-1s2.3-0.7,3.5-1c1.2-0.3,2.5-0.6,3.7-0.8C171.7,97.6,172.7,97.5,173.4,97.5z"/>
	<path class="st0" d="M200.2,77.8c0.6,0.3,1.2,0.6,1.9,1c0.6,0.4,1.2,0.8,1.8,1.2c0.5,0.4,1,0.8,1.4,1.2c0.4,0.4,0.6,0.7,0.6,1
		c-0.5-0.1-1.1-0.2-1.6-0.3c-0.5,0-1-0.1-1.5-0.1c-1.4,0-2.9,0.4-4.3,1.1s-2.8,1.7-4.1,2.9c-1.3,1.2-2.5,2.6-3.6,4.3
		c-1.1,1.6-2,3.4-2.8,5.2c-0.8,1.9-1.4,3.8-1.8,5.8c-0.4,2-0.7,3.9-0.7,5.9c0,2.5,0.4,4.4,1.2,5.6c0.8,1.2,2,1.8,3.6,1.8
		c0.8,0,1.6-0.2,2.5-0.5c0.9-0.3,1.8-0.7,2.7-1.3c0.9-0.5,1.8-1.2,2.7-2c0.9-0.8,1.7-1.6,2.5-2.5c1.1-1.3,2.1-2.9,3-4.6
		c0.9-1.7,1.7-3.5,2.3-5.4c0.6-1.9,1.1-3.9,1.4-5.9c0.3-2,0.5-4,0.5-6c0-0.8,0-1.4,0-1.9c0-0.5-0.1-1-0.1-1.3c0-0.4-0.1-0.7-0.1-0.9
		c0-0.2-0.1-0.4-0.1-0.6c0.4,0.2,0.8,0.4,1.3,0.7c0.5,0.3,0.9,0.7,1.3,1.2c0.4,0.5,0.7,1.2,1,2.1c0.3,0.9,0.4,2,0.4,3.4
		c0,2.2-0.3,4.4-0.8,6.6c-0.5,2.2-1.3,4.2-2.2,6.2c-0.9,2-2.1,3.8-3.3,5.5c-1.3,1.7-2.7,3.2-4.1,4.5c-1.9,1.7-4,3-6.1,3.9
		c-2.2,0.9-4.3,1.4-6.3,1.4c-2.9,0-5.2-0.9-6.7-2.8c-1.6-1.9-2.3-4.6-2.3-8.3c0-2,0.2-4,0.6-6.2c0.4-2.2,1-4.3,1.8-6.4
		c0.8-2.1,1.7-4.1,2.8-6c1.1-1.9,2.3-3.6,3.6-5c1.3-1.5,2.7-2.6,4.2-3.5c1.5-0.9,3-1.3,4.6-1.3c0.5,0,1,0,1.4,0.1
		C199.2,77.4,199.7,77.6,200.2,77.8z"/>
	<path class="st0" d="M217.7,103.8c-1,0-1.8-0.3-2.4-0.8c-0.6-0.6-0.9-1.3-0.9-2.3c0-0.2,0-0.4,0.1-0.7c0.1-0.3,0.1-0.6,0.2-0.7
		c0.5,0,1.1,0,1.5,0s1.1,0,1.9,0c1.6,0,3.2,0,4.6,0c1.4,0,2.7-0.1,3.9-0.2c1.2-0.2,2.1-0.3,3-0.4c0.8-0.1,1.5-0.2,1.9-0.2
		c0.6,0,1.1,0.4,1.6,1.1c0.5,0.7,0.8,1.8,1,3.2c-0.8-0.1-1.5-0.2-2-0.2c-0.5,0-1,0-1.3,0c-1.4,0-2.7,0.1-3.8,0.2
		c-1.2,0.1-2.3,0.3-3.4,0.4c-1.1,0.2-2.1,0.3-3,0.4S218.7,103.8,217.7,103.8z"/>
	<path class="st0" d="M242.9,114.2c-0.2-1.3-0.3-2.7-0.4-4.3c-0.1-1.6-0.1-3-0.1-4.3c0-2.1,0.1-4.2,0.2-6.2c0.1-2,0.3-4,0.5-6.2
		c0.2-2.2,0.4-4.5,0.7-7.1c0.3-2.5,0.5-5.5,0.7-8.8c0.4,0,1,0.1,1.8,0.4c0.8,0.2,1.6,0.5,2.4,0.8c0.8,0.3,1.5,0.6,2.1,1
		c0.6,0.3,1,0.6,1.1,0.8c-0.5,1.2-1,2.9-1.5,4.9s-0.8,4.2-1.1,6.6c-0.3,2.4-0.5,4.9-0.7,7.4c-0.2,2.5-0.2,4.9-0.2,7.1c0,1,0,2,0,3
		c0,1,0.1,1.9,0.1,2.7c0.7-1,1.4-2.4,2.3-4.2c0.9-1.8,1.8-3.9,2.7-6.2c0.9-2.3,1.9-4.6,2.8-7.1c0.9-2.5,1.8-4.8,2.6-7.1
		c0.8-2.3,1.5-4.3,2-6.1c0.6-1.8,1-3.2,1.2-4.1c0.4,0,1,0.1,1.8,0.4c0.8,0.2,1.6,0.5,2.4,0.8c0.8,0.3,1.5,0.6,2.1,1
		c0.6,0.3,0.9,0.6,1,0.8c-0.5,1.2-1,2.9-1.5,4.9s-0.8,4.2-1.1,6.6c-0.3,2.4-0.5,4.9-0.7,7.4c-0.2,2.5-0.2,4.9-0.2,7.1
		c0,0.9,0,1.8,0,2.8c0,0.9,0.1,1.7,0.1,2.5c1-2.7,2.1-5.3,3.2-7.9c1.1-2.6,2.2-5.1,3.3-7.5c1.1-2.4,2.1-4.6,3.2-6.7
		c1-2.1,2-3.9,2.8-5.5c0.9-1.6,1.6-3,2.3-4c0.6-1.1,1.1-1.8,1.5-2.1c0.7,0.1,1.5,0.4,2.3,0.8s1.5,1,2.1,1.7c-0.9,0.7-2,1.9-3.2,3.6
		c-1.2,1.7-2.4,3.6-3.6,5.8c-1.2,2.2-2.5,4.6-3.8,7.1c-1.3,2.5-2.4,4.9-3.5,7.3c-1.1,2.4-2.1,4.6-2.9,6.6c-0.8,2-1.5,3.7-1.9,4.9
		c-0.8,0.4-1.6,0.6-2.4,0.6c-1-0.1-2-0.4-2.9-0.8c-0.9-0.4-1.6-0.8-1.9-1.4c-0.1-0.5-0.2-1.1-0.2-1.8c-0.1-0.7-0.1-1.4-0.1-2
		c0-0.7-0.1-1.3-0.1-1.9c0-0.6,0-1.2,0-1.6c0-2.8,0.1-5.8,0.3-8.7c0.2-3,0.5-6.1,0.8-9.5c-0.7,2.2-1.6,4.5-2.4,7
		c-0.9,2.5-1.8,5-2.8,7.4c-1,2.4-2,4.8-3,7c-1,2.2-2,4.2-3,5.8c-0.8,0.4-1.6,0.6-2.4,0.6c-1-0.1-2-0.4-2.9-0.8
		S243.3,114.8,242.9,114.2z"/>
	<path class="st0" d="M302.3,92.3c1.1,0,1.9,0.3,2.5,0.9c0.6,0.6,0.9,1.4,0.9,2.4c0,0.3,0,0.5-0.1,0.8s-0.1,0.5-0.2,0.7
		c-0.4-0.1-0.9-0.1-1.4-0.2c-0.5,0-1.1-0.1-1.8-0.1c-1.4,0-2.8,0.1-4.2,0.4c-1.4,0.2-2.8,0.4-4,0.6c-0.7,1.7-1.4,3.3-2,4.9
		c-0.6,1.6-1.1,3-1.6,4.4c-0.4,1.3-0.8,2.5-1,3.4c-0.2,1-0.4,1.7-0.4,2.2c2.6-0.6,5.2-1.1,7.8-1.5c2.6-0.4,5.4-0.6,8.3-0.6
		c0.4,0.5,0.6,1.1,0.9,1.7c0.2,0.6,0.4,1.3,0.4,2c0,0.2,0,0.4,0,0.6c0,0.2,0,0.4-0.1,0.7c-0.9,0-1.8,0-2.8,0c-1,0-2.3,0-3.9,0
		c-1.1,0-2.1,0-3,0c-0.9,0-1.9,0.1-2.9,0.2c-1,0.1-2,0.2-3,0.4c-1.1,0.2-2.3,0.4-3.6,0.6c-1.5-0.6-2.9-2-4.3-4.2
		c0.5-1.2,1.3-2.9,2.3-5.3c1-2.4,2.2-5.5,3.7-9.4c-1.4-0.4-2.4-1.2-2.8-2.4c0.2-0.2,0.6-0.4,1.4-0.6c0.8-0.2,1.7-0.5,2.8-0.7
		c0.5-1.2,0.9-2.3,1.2-3.3c0.3-0.9,0.6-1.8,0.9-2.6c0.3-0.8,0.5-1.6,0.7-2.4s0.4-1.6,0.6-2.6c-1.1,0-2-0.3-2.6-0.9s-1-1.3-1-2.2
		c0-0.3,0-0.6,0.1-0.9c0.1-0.4,0.2-0.7,0.3-0.9c0.6,0,1.3,0.1,1.8,0.1c0.6,0,1.4,0,2.3,0c2,0,3.9,0,5.7,0s3.4-0.1,4.8-0.2
		s2.6-0.3,3.7-0.5c1-0.1,1.8-0.2,2.4-0.2c0.7,0,1.4,0.4,2,1.2s1,1.9,1.3,3.3c-1-0.1-1.8-0.2-2.4-0.2s-1.2,0-1.7,0
		c-1.8,0-3.4,0.1-4.8,0.3s-2.9,0.4-4.2,0.5c-0.2,0.3-0.4,0.7-0.6,1.1c-0.2,0.4-0.6,1.1-0.9,1.9c-0.4,0.8-0.9,1.8-1.4,3
		c-0.6,1.2-1.2,2.7-2,4.5c1.2-0.2,2.4-0.3,3.4-0.5C300.7,92.4,301.6,92.3,302.3,92.3z"/>
	<path class="st0" d="M316,116.4c-1.8-0.5-3.1-1.1-3.7-1.6c-0.6-0.5-1-1.2-1-2c0-1,0.2-2.3,0.7-4.1s1-3.7,1.8-5.8
		c0.7-2.1,1.5-4.4,2.5-6.7s1.9-4.6,2.8-6.7c1-2.1,1.9-4.1,2.8-5.9c0.9-1.8,1.7-3.2,2.4-4.2l-0.3-2c0.4,0,1.1,0.1,1.9,0.3
		c0.8,0.2,1.6,0.5,2.4,0.8c0.8,0.3,1.5,0.6,2.2,1c0.6,0.3,1,0.6,1,0.8c-0.2,0.8-0.3,1.9-0.4,3.5c-0.1,1.6-0.1,3.2-0.1,5
		c0,3.5,0.1,6.9,0.4,10.2c0.3,3.3,0.9,6.7,1.9,10.2c0.5-2.6,1.1-5.1,1.7-7.7c0.6-2.5,1.2-5,1.8-7.3c0.6-2.3,1.3-4.5,1.9-6.5
		c0.6-2,1.3-3.7,1.8-5.2c0.6-1.5,1.1-2.7,1.7-3.5c0.5-0.8,1-1.3,1.4-1.4c0.4,0.1,0.7,0.2,1.2,0.4c0.4,0.2,0.8,0.5,1.2,0.7
		c0.4,0.3,0.7,0.6,1.1,1c0.3,0.4,0.6,0.7,0.8,1.1c-1,0.4-2,1.4-3,2.9c-1,1.5-2,3.4-2.9,5.6c-0.9,2.2-1.8,4.6-2.5,7.1
		c-0.8,2.6-1.5,5.1-2.1,7.6c-0.6,2.5-1.1,4.8-1.4,6.9c-0.3,2.1-0.5,3.8-0.6,5.1c0,0.1,0,0.1,0,0.1c-0.1,0-0.2,0-0.3,0
		c-0.1,0-0.2,0-0.3,0c-1.5,0-2.8-0.2-3.9-0.6c-1.1-0.4-1.9-0.9-2.2-1.6c-0.7-2.7-1.2-5.3-1.7-7.8c-0.4-2.5-0.8-5-1.1-7.5
		c-0.3-2.5-0.5-5-0.7-7.6s-0.3-5.2-0.4-8c-0.6,1-1.2,2.2-1.9,3.8s-1.3,3.3-2,5.1c-0.6,1.9-1.3,3.8-1.8,5.9c-0.6,2-1.1,4-1.6,6
		c-0.4,2-0.8,3.8-1.1,5.5s-0.4,3.3-0.4,4.5c0,0.7,0,1.2,0,1.4C315.9,116,315.9,116.2,316,116.4z"/>
	<path class="st0" d="M354,83.7c-1.3,0-2.3-0.4-3-1.1c-0.7-0.7-1-1.6-1-2.6c0-0.3,0-0.6,0.1-0.9c0.1-0.4,0.2-0.7,0.3-0.9
		c0.4,0.1,1,0.2,1.8,0.2c0.8,0,1.8,0.1,2.9,0.1c1.6,0,3.5,0,5.5,0s4-0.1,5.9-0.3c1.9-0.2,3.6-0.4,5-0.6s2.4-0.3,2.8-0.3
		c1.2,0,2,0.4,2.6,1.3c0.5,0.9,0.9,2.1,1.2,3.5c-0.8-0.1-1.7-0.1-2.5-0.1c-0.8,0-1.5,0-2.1,0c-1,0-2.1,0-3.1,0c-1,0-2.1,0.1-3.1,0.2
		c-0.4,0.9-0.9,2-1.5,3.3s-1.1,2.6-1.6,4c-0.5,1.4-1,2.8-1.5,4.1s-0.9,2.6-1.2,3.7c-0.7,2.1-1.3,4.1-1.8,5.9c-0.5,1.8-1,3.5-1.4,5
		c-0.4,1.6-0.7,3-1,4.5c-0.3,1.4-0.5,2.8-0.8,4.1c-2.1-0.3-3.9-1.7-5.4-4c0.3-1,0.6-2.1,0.9-3.2c0.4-1.2,0.8-2.5,1.3-4
		c0.5-1.5,1.1-3.2,1.8-5.1c0.7-1.9,1.4-4,2.3-6.4c0.3-0.9,0.7-1.8,1-2.8c0.4-1,0.7-1.9,1-2.9s0.6-1.9,0.9-2.8
		c0.3-0.9,0.5-1.7,0.7-2.4c-1.3,0.2-2.6,0.3-3.8,0.4S354.9,83.7,354,83.7z"/>
	<path class="st0" d="M375.2,103.8c-1,0-1.8-0.3-2.4-0.8s-0.9-1.3-0.9-2.3c0-0.2,0-0.4,0.1-0.7c0.1-0.3,0.1-0.6,0.2-0.7
		c0.5,0,1.1,0,1.5,0c0.5,0,1.1,0,1.9,0c1.6,0,3.2,0,4.6,0c1.4,0,2.7-0.1,3.9-0.2c1.2-0.2,2.1-0.3,3-0.4c0.8-0.1,1.5-0.2,1.9-0.2
		c0.6,0,1.1,0.4,1.6,1.1c0.5,0.7,0.8,1.8,1,3.2c-0.8-0.1-1.5-0.2-2-0.2c-0.5,0-1,0-1.3,0c-1.4,0-2.7,0.1-3.8,0.2
		c-1.2,0.1-2.3,0.3-3.4,0.4c-1.1,0.2-2.1,0.3-3,0.4S376.1,103.8,375.2,103.8z"/>
	<path class="st0" d="M422.1,97.5c0.8,0,1.5,0.3,2,0.9c0.5,0.6,0.7,1.4,0.7,2.4c0,0.3,0,0.5,0,0.8c0,0.3-0.1,0.5-0.1,0.7
		c-0.7-0.2-1.4-0.3-2.2-0.3c-0.2,1.4-0.7,2.9-1.5,4.4s-1.8,3-3,4.3c-1.2,1.3-2.5,2.5-3.9,3.5s-2.8,1.7-4.2,2c-4.3,0-7.4-1.1-9.4-3.2
		s-3-5.5-3-10c0-3.3,0.6-6.5,1.8-9.6c1.2-3.1,2.8-5.8,4.8-8.2c2-2.4,4.3-4.3,6.9-5.8c2.6-1.5,5.3-2.2,8.1-2.2c2.2,0,3.9,0.5,5.2,1.4
		c1.2,0.9,1.8,2.2,1.8,3.9c0,1.1-0.3,2.2-0.8,3.1s-1.4,2-2.6,3.1c-0.7-0.2-1.4-0.6-1.9-1.2c-0.5-0.6-0.9-1.2-1-1.9
		c1.1-0.8,1.9-1.5,2.3-2.2c0.4-0.7,0.7-1.5,0.7-2.4c0-1.5-0.9-2.2-2.6-2.2c-1.4,0-3,0.5-4.6,1.6c-1.6,1.1-3.3,2.6-5,4.6
		c-2.4,2.9-4.1,5.8-5.2,8.8c-1.1,3-1.6,6.4-1.6,10.2c0,1.4,0.1,2.7,0.4,3.8c0.3,1.2,0.7,2.2,1.2,3c0.5,0.9,1,1.6,1.7,2.1
		c0.7,0.5,1.4,0.8,2.1,0.9c1-0.2,2-0.7,3.1-1.6c1-0.8,2-1.8,2.8-2.9c0.8-1.1,1.6-2.3,2.2-3.6c0.6-1.3,1-2.5,1.1-3.6
		c-0.9,0.2-1.8,0.4-2.6,0.5c-0.8,0.2-1.6,0.3-2.3,0.3c-1,0-1.8-0.2-2.5-0.7s-1.2-1.1-1.5-2c0.6-0.3,1.4-0.7,2.5-1
		c1.1-0.4,2.3-0.7,3.5-1c1.2-0.3,2.5-0.6,3.7-0.8S421.3,97.5,422.1,97.5z"/>
	<path class="st0" d="M448.8,77.8c0.6,0.3,1.2,0.6,1.9,1c0.6,0.4,1.2,0.8,1.8,1.2c0.5,0.4,1,0.8,1.4,1.2c0.4,0.4,0.6,0.7,0.6,1
		c-0.5-0.1-1.1-0.2-1.6-0.3c-0.5,0-1-0.1-1.5-0.1c-1.4,0-2.9,0.4-4.3,1.1s-2.8,1.7-4.1,2.9c-1.3,1.2-2.5,2.6-3.6,4.3
		c-1.1,1.6-2,3.4-2.8,5.2c-0.8,1.9-1.4,3.8-1.8,5.8c-0.4,2-0.7,3.9-0.7,5.9c0,2.5,0.4,4.4,1.2,5.6c0.8,1.2,2,1.8,3.6,1.8
		c0.8,0,1.6-0.2,2.5-0.5c0.9-0.3,1.8-0.7,2.7-1.3c0.9-0.5,1.8-1.2,2.7-2c0.9-0.8,1.7-1.6,2.5-2.5c1.1-1.3,2.1-2.9,3-4.6
		c0.9-1.7,1.7-3.5,2.3-5.4c0.6-1.9,1.1-3.9,1.4-5.9c0.3-2,0.5-4,0.5-6c0-0.8,0-1.4,0-1.9c0-0.5-0.1-1-0.1-1.3c0-0.4-0.1-0.7-0.1-0.9
		s-0.1-0.4-0.1-0.6c0.4,0.2,0.8,0.4,1.3,0.7c0.5,0.3,0.9,0.7,1.3,1.2c0.4,0.5,0.7,1.2,1,2.1c0.3,0.9,0.4,2,0.4,3.4
		c0,2.2-0.3,4.4-0.8,6.6c-0.5,2.2-1.3,4.2-2.2,6.2c-0.9,2-2.1,3.8-3.3,5.5c-1.3,1.7-2.7,3.2-4.1,4.5c-1.9,1.7-4,3-6.1,3.9
		s-4.3,1.4-6.3,1.4c-2.9,0-5.2-0.9-6.7-2.8c-1.6-1.9-2.3-4.6-2.3-8.3c0-2,0.2-4,0.6-6.2c0.4-2.2,1-4.3,1.8-6.4
		c0.8-2.1,1.7-4.1,2.8-6c1.1-1.9,2.3-3.6,3.6-5c1.3-1.5,2.7-2.6,4.2-3.5c1.5-0.9,3-1.3,4.6-1.3c0.5,0,1,0,1.4,0.1
		C447.8,77.4,448.3,77.6,448.8,77.8z"/>
	<path class="st0" d="M465.7,116.4c-1.8-0.5-3.1-1.1-3.7-1.6c-0.6-0.5-1-1.2-1-2c0-1,0.2-2.3,0.7-4.1s1-3.7,1.8-5.8
		c0.7-2.1,1.5-4.4,2.5-6.7c0.9-2.3,1.9-4.6,2.8-6.7c1-2.1,1.9-4.1,2.8-5.9c0.9-1.8,1.7-3.2,2.4-4.2l-0.3-2c0.4,0,1.1,0.1,1.9,0.3
		c0.8,0.2,1.6,0.5,2.4,0.8c0.8,0.3,1.5,0.6,2.2,1s1,0.6,1,0.8c-0.2,0.8-0.3,1.9-0.4,3.5c-0.1,1.6-0.1,3.2-0.1,5
		c0,3.5,0.1,6.9,0.4,10.2c0.3,3.3,0.9,6.7,1.9,10.2c0.5-2.6,1.1-5.1,1.7-7.7c0.6-2.5,1.2-5,1.8-7.3c0.6-2.3,1.3-4.5,1.9-6.5
		c0.6-2,1.3-3.7,1.8-5.2c0.6-1.5,1.1-2.7,1.7-3.5c0.5-0.8,1-1.3,1.4-1.4c0.4,0.1,0.7,0.2,1.2,0.4c0.4,0.2,0.8,0.5,1.2,0.7
		c0.4,0.3,0.7,0.6,1.1,1c0.3,0.4,0.6,0.7,0.8,1.1c-1,0.4-2,1.4-3,2.9s-2,3.4-2.9,5.6c-0.9,2.2-1.8,4.6-2.5,7.1
		c-0.8,2.6-1.5,5.1-2.1,7.6c-0.6,2.5-1.1,4.8-1.4,6.9c-0.3,2.1-0.5,3.8-0.6,5.1c0,0.1,0,0.1,0,0.1c-0.1,0-0.2,0-0.3,0s-0.2,0-0.3,0
		c-1.5,0-2.8-0.2-3.9-0.6c-1.1-0.4-1.9-0.9-2.2-1.6c-0.7-2.7-1.2-5.3-1.7-7.8s-0.8-5-1.1-7.5c-0.3-2.5-0.5-5-0.7-7.6
		c-0.2-2.5-0.3-5.2-0.4-8c-0.6,1-1.2,2.2-1.9,3.8s-1.3,3.3-2,5.1c-0.6,1.9-1.3,3.8-1.8,5.9s-1.1,4-1.6,6c-0.4,2-0.8,3.8-1.1,5.5
		c-0.3,1.7-0.4,3.3-0.4,4.5c0,0.7,0,1.2,0,1.4C465.6,116,465.6,116.2,465.7,116.4z"/>
	<path class="st0" d="M514,92.3c1.1,0,1.9,0.3,2.5,0.9s0.9,1.4,0.9,2.4c0,0.3,0,0.5-0.1,0.8s-0.1,0.5-0.2,0.7
		c-0.4-0.1-0.9-0.1-1.4-0.2c-0.5,0-1.1-0.1-1.8-0.1c-1.4,0-2.8,0.1-4.2,0.4c-1.4,0.2-2.8,0.4-4,0.6c-0.7,1.7-1.4,3.3-2,4.9
		c-0.6,1.6-1.1,3-1.6,4.4c-0.4,1.3-0.8,2.5-1,3.4c-0.2,1-0.4,1.7-0.4,2.2c2.6-0.6,5.2-1.1,7.8-1.5c2.6-0.4,5.4-0.6,8.3-0.6
		c0.4,0.5,0.6,1.1,0.9,1.7c0.2,0.6,0.4,1.3,0.4,2c0,0.2,0,0.4,0,0.6c0,0.2,0,0.4-0.1,0.7c-0.9,0-1.8,0-2.8,0c-1,0-2.3,0-3.9,0
		c-1.1,0-2.1,0-3,0c-0.9,0-1.9,0.1-2.9,0.2c-1,0.1-2,0.2-3,0.4c-1.1,0.2-2.3,0.4-3.6,0.6c-1.5-0.6-2.9-2-4.3-4.2
		c0.5-1.2,1.3-2.9,2.3-5.3c1-2.4,2.2-5.5,3.7-9.4c-1.4-0.4-2.4-1.2-2.8-2.4c0.2-0.2,0.6-0.4,1.4-0.6c0.8-0.2,1.7-0.5,2.8-0.7
		c0.5-1.2,0.9-2.3,1.2-3.3c0.3-0.9,0.6-1.8,0.9-2.6c0.3-0.8,0.5-1.6,0.7-2.4s0.4-1.6,0.6-2.6c-1.1,0-2-0.3-2.6-0.9
		c-0.6-0.6-1-1.3-1-2.2c0-0.3,0-0.6,0.1-0.9c0.1-0.4,0.2-0.7,0.3-0.9c0.6,0,1.3,0.1,1.8,0.1c0.6,0,1.4,0,2.3,0c2,0,3.9,0,5.7,0
		c1.8,0,3.4-0.1,4.8-0.2s2.6-0.3,3.7-0.5s1.8-0.2,2.4-0.2c0.7,0,1.4,0.4,2,1.2s1,1.9,1.3,3.3c-1-0.1-1.8-0.2-2.4-0.2s-1.2,0-1.7,0
		c-1.8,0-3.4,0.1-4.8,0.3s-2.9,0.4-4.2,0.5c-0.2,0.3-0.4,0.7-0.6,1.1c-0.2,0.4-0.6,1.1-0.9,1.9c-0.4,0.8-0.9,1.8-1.4,3
		c-0.6,1.2-1.2,2.7-2,4.5c1.2-0.2,2.4-0.3,3.4-0.5C512.4,92.4,513.3,92.3,514,92.3z"/>
</g>
</svg>
