<?xml version="1.0" encoding="utf-8"?>
<!-- Generator: Adobe Illustrator 24.0.0, SVG Export Plug-In . SVG Version: 6.00 Build 0)  -->
<svg version="1.1" id="Layer_1" xmlns="http://www.w3.org/2000/svg" xmlns:xlink="http://www.w3.org/1999/xlink" x="0px" y="0px"
	 viewBox="0 0 95.1 95.1" style="enable-background:new 0 0 95.1 95.1;" xml:space="preserve">
<style type="text/css">
	.st0{fill:#A9A95E;}
</style>
<title>logo</title>
<g id="Layer_1-2">
	<g>
		<path class="st0" d="M89,0.1l-4.1,0.7C81.1,1.4,77.7,3.2,75,6L60.3,21.7L30.1,8.5c-2-0.9-4.3-0.4-5.8,1.1L20,13.9
			c-0.4,0.4-0.5,1-0.1,1.4c0.1,0.1,0.1,0.1,0.2,0.2l27.7,19.6L28.1,56.3l-12.6-2.9c-0.8-0.2-1.7,0.1-2.3,0.7l-3.6,3.6
			c-0.4,0.4-0.4,1.1,0,1.5c0.1,0.1,0.1,0.1,0.2,0.2l15.7,9.3c0.3,0.2,0.6,0.5,0.8,0.8l9.3,15.7c0.3,0.5,1,0.7,1.5,0.4
			c0.1,0,0.1-0.1,0.2-0.2l3.6-3.6c0.6-0.6,0.8-1.5,0.7-2.3l-2.9-12.6l21.2-19.7l19.6,27.7c0.3,0.5,0.9,0.6,1.4,0.3
			c0.1-0.1,0.2-0.1,0.2-0.2l4.3-4.3c1.5-1.5,2-3.8,1.1-5.8L73.3,34.7L89.1,20c2.8-2.6,4.6-6.1,5.2-9.9L95,6c0.4-2.8-1.5-5.5-4.3-5.9
			C90.1,0,89.5,0,89,0.1z"/>
		<path class="st0" d="M22,77.4c1-1.4,0.8-3.3-0.6-4.3c-1.4-1-3.3-0.8-4.3,0.6l0,0l-6.8,9.2c-0.4,0.5-0.4,1.2,0,1.7
			c0.5,0.6,1.4,0.8,2,0.3c0,0,0,0,0,0l9.2-6.8C21.6,77.8,21.8,77.6,22,77.4z"/>
		<path class="st0" d="M12,70.6c1-1.4,0.8-3.3-0.6-4.3c-1.4-1-3.3-0.8-4.3,0.6l-6.8,9.2c-0.4,0.5-0.4,1.2,0,1.7
			c0.5,0.6,1.4,0.8,2,0.3c0,0,0,0,0,0l9.2-6.8C11.6,71.1,11.9,70.9,12,70.6z"/>
		<path class="st0" d="M23.7,83.6l-6.8,9.2c-0.4,0.5-0.4,1.2,0,1.7c0.5,0.6,1.4,0.8,2,0.3c0,0,0,0,0,0l9.2-6.8
			c0.2-0.2,0.5-0.4,0.6-0.6c1-1.4,0.7-3.3-0.6-4.3c-1.2-1.1-3.1-1-4.2,0.3C23.8,83.4,23.8,83.5,23.7,83.6z"/>
	</g>
</g>
</svg>
