<?xml version="1.0" encoding="utf-8"?>
<!-- Generator: Adobe Illustrator 24.0.0, SVG Export Plug-In . SVG Version: 6.00 Build 0)  -->
<svg version="1.1" id="Layer_1" xmlns="http://www.w3.org/2000/svg" xmlns:xlink="http://www.w3.org/1999/xlink" x="0px" y="0px"
	 viewBox="0 0 100 125" style="enable-background:new 0 0 100 125;" xml:space="preserve">
<style type="text/css">
	.st0{fill:#A9A95E;}
</style>
<g>
	<path class="st0" d="M4.3,37.6c7.6-2.3,15.2-3.4,22.8-4.3c7.6-0.8,15.2-1.2,22.8-1.2c7.6,0,15.2,0.4,22.8,1.2
		c7.6,0.9,15.2,2,22.8,4.3c-7.6,2.3-15.2,3.5-22.8,4.3c-7.6,0.8-15.2,1.2-22.8,1.2c-7.6,0-15.2-0.4-22.8-1.2
		C19.6,41,11.9,39.9,4.3,37.6z"/>
	<path class="st0" d="M4.3,62.5c7.6-2.3,15.2-3.4,22.8-4.3C34.8,57.4,42.4,57,50,57c7.6,0,15.2,0.4,22.8,1.2
		c7.6,0.9,15.2,2,22.8,4.3c-7.6,2.3-15.2,3.5-22.8,4.3C65.2,67.6,57.6,68,50,68c-7.6,0-15.2-0.4-22.8-1.2
		C19.6,65.9,11.9,64.8,4.3,62.5z"/>
	<path class="st0" d="M4.3,87.4c7.6-2.3,15.2-3.4,22.8-4.3c7.6-0.8,15.2-1.2,22.8-1.2c7.6,0,15.2,0.4,22.8,1.2
		c7.6,0.9,15.2,2,22.8,4.3c-7.6,2.3-15.2,3.5-22.8,4.3c-7.6,0.8-15.2,1.2-22.8,1.2c-7.6,0-15.2-0.4-22.8-1.2
		C19.6,90.8,11.9,89.7,4.3,87.4z"/>
</g>
</svg>
