<?xml version="1.0" encoding="utf-8"?>
<!-- Generator: Adobe Illustrator 24.0.0, SVG Export Plug-In . SVG Version: 6.00 Build 0)  -->
<svg version="1.1" id="Layer_1" xmlns="http://www.w3.org/2000/svg" xmlns:xlink="http://www.w3.org/1999/xlink" x="0px" y="0px"
	 viewBox="0 0 607.2 93.1" style="enable-background:new 0 0 607.2 93.1;" xml:space="preserve">
<style type="text/css">
	.st0{fill-rule:evenodd;clip-rule:evenodd;fill:#A9A95E;}
</style>
<g>
	<path class="st0" d="M9,52.1c0.5,0.7,1.1,0.7,1.6,0.3C10.1,52.3,9.6,51.4,9,52.1z"/>
	<path class="st0" d="M10.5,50.2c0.6-0.2,1.1,0.9,1.6,0.3C11.6,50.2,11.1,49.3,10.5,50.2z"/>
	<path class="st0" d="M14.8,53.9c0.6,0.5,0.6-0.1,1.5-0.3c-0.3-0.5-0.6-0.4-0.9-0.6C15,53.3,15.2,53.6,14.8,53.9z"/>
	<path class="st0" d="M30.8,71.2c0.2,0.3,0.5,0.5,0.7,0.8c0.4-0.7,0.7-0.2,1.1-0.7C32.1,70.5,31.5,70.5,30.8,71.2z"/>
	<path class="st0" d="M13.6,50.6c-0.3,0.6,0.9,1.2,1.3,0.6c0-0.7-0.4-0.3-0.9-1C14,50.5,13.9,50.8,13.6,50.6z"/>
	<path class="st0" d="M33.4,71.7c0.7,0,0.7,0.7,1,1.2c0.3-0.6,0.2-1.3-0.3-1.9C33.9,71.2,33.6,71.5,33.4,71.7z"/>
	<path class="st0" d="M24.4,56.1c-0.3,0.7,1,1,1.5,0.1C25.4,55.3,24.8,56.8,24.4,56.1z"/>
	<path class="st0" d="M40.2,73.6c0.3,0.1,0.8-0.2,0.5,0.2c0.3,0.5,0.8-0.6,1.1-0.7c0.3,0.7,0.9,1.1,1.6,1.4c0-1.5,1.3-1.4,2.3-1.8
		c-0.5-0.1-1.1,0.1-1.6-0.7c0,1.1-0.3,0.6-1.2,1.1c0-0.3-0.1-0.5-0.3-0.8c-0.5,0.4-1,0.4-1.5-0.1C40.7,72.7,40.3,73.1,40.2,73.6z"/>
	<path class="st0" d="M26.7,56.8c0.2,0.3,0.5,0.5,0.7,0.8c0-0.3,0.3-0.8,0.6-0.5C28.3,56.5,27.1,56,26.7,56.8z"/>
	<path class="st0" d="M29.2,51.6c0.5,0.3,1.1,0.1,1.7-0.5C30.3,50.9,29.2,50.6,29.2,51.6z"/>
	<path class="st0" d="M55.4,78.6c0.5,0.6,1.4,0.5,1.5-0.3C56.4,78.3,55.9,78.1,55.4,78.6z"/>
	<path class="st0" d="M34.6,52.2c0.6,0.1,1.2,1.1,1.8,0.1C35.9,52,35.3,51.7,34.6,52.2z"/>
	<path class="st0" d="M53.3,65.6C54,66,54,65.1,55,64.8c-0.2-0.1-0.5-0.1-0.7-0.4C53.9,65.6,53,64.5,53.3,65.6z"/>
	<path class="st0" d="M41,49.9c0.3-0.6-1-0.7-1.4-1.6C39,49.1,40.5,49.5,41,49.9z"/>
	<path class="st0" d="M47.3,51.5c0.6,0,1.2,0.3,1.8-0.3c-0.7-0.3-1.5-0.3-2.2-0.9C46.4,50.7,48,51.2,47.3,51.5z"/>
	<path class="st0" d="M67.2,74c-0.3,1.2,1.1,0.3,1.4,0.5C68.9,73.5,67.5,74.2,67.2,74z"/>
	<path class="st0" d="M68.6,70c-0.4-0.8-0.9,0.4-1.3-0.6c-0.4,0.5-0.4,1-0.1,1.5C67.9,70,68.6,71,68.6,70z"/>
	<path class="st0" d="M78.7,81.7c0.6,0.5,1.3,0.9,2,0.3C80.1,81.8,79.4,81.4,78.7,81.7z"/>
	<path class="st0" d="M43.3,40.4c0.3,0.7,0.7,0.3,1.1,0.8c0.7-0.5,0.2-1-0.3-1.6C43.8,39.9,43.5,40.1,43.3,40.4z"/>
	<path class="st0" d="M48,45.4c0.5,0.8,0.9,0.6,1.4,0.8C49.6,45.7,48.4,44.5,48,45.4z"/>
	<path class="st0" d="M47.1,41.1c0.1,0.2,0.2,0.1,0.4,0c1.4,1,2.9,0.2,4.4,1c0.8-0.6,0.3-1.3,0.8-1.9c-0.8-0.6-0.7,0.6-1.3,0.5
		c-0.7-0.5-0.2-1-0.9-1c-0.1,1-1.1,0.7-1.7,1.3c-0.4-0.7-0.8-0.5-1.2-1C46.6,40.4,47.9,40.8,47.1,41.1z"/>
	<path class="st0" d="M77.3,72c-0.4-0.3,0.7-0.7,0.9-0.5c0.4-1-0.7,0.1-0.9-0.6c-0.8,0.4-0.3,0.9-0.6,1.3c0.5,0.4,1,0.6,1.4,0.8
		C78.7,72.4,77.8,72,77.3,72z"/>
	<path class="st0" d="M35.1,23.3c0.6,0.5,1.2,1.4,1.8,0.5C36.3,23.5,35.7,22.9,35.1,23.3z"/>
	<path class="st0" d="M34.9,21.9c-0.3,0.7,0.9,0.7,1.3,0.3C35.8,21.1,35.4,22.2,34.9,21.9z"/>
	<path class="st0" d="M37.4,23.6c0.5-0.4,0.3-0.9,0.6-1.3c-0.3-0.2-0.6,0-0.9-0.2C36.9,22.5,37.1,23.1,37.4,23.6z"/>
	<path class="st0" d="M79.6,71.8c-0.1,1.2,1.4,0.4,2,1.1C82.1,71.6,80.2,71.7,79.6,71.8z"/>
	<path class="st0" d="M31.2,10.8c0.5,0.3,1.4-0.3,2.4-1.2C32.9,10,32.1,9.8,31.2,10.8z"/>
	<path class="st0" d="M86.4,73.3c0-0.6-0.9-1.5-1.4-0.8C85,73,85.9,74.1,86.4,73.3z"/>
	<path class="st0" d="M48.3,29.7c0.6,0.8,2.7,0.3,1.7-0.9C49.4,29.8,48.9,29.3,48.3,29.7z"/>
	<path class="st0" d="M60.6,42.6c0.1,1,1.8,1.1,2.6,0.1c-0.4-0.3-0.2-0.5,0-0.8C62.3,41,61.4,43.2,60.6,42.6z"/>
	<path class="st0" d="M40.8,17.4c0.7,1,1.4,1,2.2,0.5C42.3,18.1,41.6,16.8,40.8,17.4z"/>
	<path class="st0" d="M89.9,74c0.3,0.1,0.5,0.1,0.3,0.4c1.2-0.8,2.3,0.5,3.5-0.4C92,74,91.3,71.8,89.9,74z"/>
	<path class="st0" d="M56.3,30.9c0.4,0.9,0.9-0.3,1.3-0.5c-0.2-0.1-0.5-0.1-0.7-0.4C56.9,30.3,56.7,30.6,56.3,30.9z"/>
	<path class="st0" d="M94.1,74c-0.5,0.7,0.6,0.3,0.7,0.8c-0.3-1.2,0.6-0.1,1.3-0.9c-0.4-1-0.9,0.8-1.3-0.3
		C94.6,74,94.3,74.2,94.1,74z"/>
	<path class="st0" d="M96.3,74.5c1.2,0.4,1.4,1.9,2.3,1.1c-1.1-0.7,0.4-1.3-0.6-1.9C97.9,75,96.9,73.8,96.3,74.5z"/>
	<path class="st0" d="M57.3,22.7c0.8,0.3,2.1-0.3,1.3-1.3C57.9,22,57.6,21.8,57.3,22.7z"/>
	<path class="st0" d="M102.5,74.8c0.7,0.9,1.5,0.2,2.2,0.5c0.4,0.5-0.1,0.9-0.6,1.3c1.3,0.6,1.3-1.3,3-1c-0.3-0.8-0.4-0.5-1-1.2
		c-0.8,0.7,0.3,0.2,0.5,1C105.2,75.4,103.9,74.2,102.5,74.8z"/>
	<path class="st0" d="M85.1,47.5c0.8,0.6,1.7-0.2,2.1-0.9C86.3,46.5,85.4,46.5,85.1,47.5z"/>
	<path class="st0" d="M73.8,33.3c0.7,0.1,0.2,0.3,0.7,0.8c0.3-0.4,0.2-0.9,0.2-1.3C74.5,32.6,74.1,33.1,73.8,33.3z"/>
	<path class="st0" d="M90.5,36.5c0.8,0.2,1.6,0.4,2.4-0.5C92.2,36.3,90.8,35.5,90.5,36.5z"/>
	<path class="st0" d="M80.1,13.5c0.4,0.5,0.8,0.3,1.3,0.6c0.6-0.4-1-0.8-0.3-1.2C80.7,12.7,80.4,13.2,80.1,13.5z"/>
	<path class="st0" d="M71,2.7c0.7,0.5,1.5,0.1,2.2-0.7C72.5,2.2,71.2,1.9,71,2.7z"/>
	<path class="st0" d="M109.3,43.2c0.2,0.3,0.5,0.5,0.7,0.8c0.1-0.3,0.1-0.6,0.4-0.4C110.7,43,109.6,42.5,109.3,43.2z"/>
	<path class="st0" d="M84.6,9.5c0.8,0.7,1.6,0,2.3,1.1c0.3-0.4-0.1-0.9-0.1-1.3c0.5-0.3,1.3,0.4,1.3-0.5c-0.4-0.3-0.9,0.6-1.3-0.3
		C86.5,9.8,85.5,8.7,84.6,9.5z"/>
	<path class="st0" d="M113,38.9c0.3,0,0.6,0.4,0.9,0.2c0.6-0.5,0.1-1.4-0.5-1.4C112.6,38.1,113.8,38.6,113,38.9z"/>
	<path class="st0" d="M95.3,9.3c0,1,2.4,1.3,2.6,0.1C97,9.5,96.1,10,95.3,9.3z"/>
	<path class="st0" d="M93.9,2.5c0.6,0.6,1.2,0.5,1.8-0.3C95.2,2.3,94.6,2,93.9,2.5z"/>
	<path class="st0" d="M104.3,12.8c0.6,0.2,1.2,0.7,1.8,0.1C105.5,12.6,104.9,12.3,104.3,12.8z"/>
	<path class="st0" d="M110.8,14.7c0.4,0.4,0.9-0.1,1.3,0.3c0.2-0.3-0.3-0.7-0.5-1C111.3,14.2,111,14.4,110.8,14.7z"/>
	<path class="st0" d="M113.6,14.2c0.5,0.7,1,0,1.4,0.5C115.2,14.3,114,13.3,113.6,14.2z"/>
	<path class="st0" d="M139,42c0.2-0.1,0.1-0.3,0-0.4c0.3-0.2,0.5,0.2,0.7,0.4c0.4-0.2,0.3-1.3,1-0.9c0.7-0.7-1-0.3-0.3-0.8
		C139.8,40.4,138.1,41,139,42z"/>
	<path class="st0" d="M141.1,40.7c0.2,0.4,0.5,0.2,0.7,0c0.3,0.3,0.5,0.5,0.3,0.8c0.3,0.2,0.6-0.3,0.9-0.5c-0.3-0.3-0.6-0.7-0.9-1
		C141.8,40.7,141.5,40.2,141.1,40.7z"/>
	<path class="st0" d="M145.1,44.6c0.5,0.3,1,0.1,1.5-0.3C146.2,43.6,145.7,44,145.1,44.6z"/>
	<path class="st0" d="M123.5,17.2c0.8,0.3,0.8-1.1,0.4-1.5C123,15.7,123.7,16.7,123.5,17.2z"/>
	<path class="st0" d="M122.1,14.9c0.9,0.4,2.3,1,2.8-0.4C124,14.8,123.1,13.5,122.1,14.9z"/>
	<path class="st0" d="M124.8,17.1c0.6-0.1,1.2,0.2,1.8-0.3c-0.6-0.2-1.2-0.1-1.8-0.5C124.7,16.6,125,16.9,124.8,17.1z"/>
	<path class="st0" d="M127.8,20.5c1.6-0.3,2,0.4,1-1.7C128,19.4,128,19.9,127.8,20.5z"/>
	<path class="st0" d="M150.7,44.5c0.6,0.6,1.2,0.6,1.8,0.1C151.9,44.4,151.3,43.9,150.7,44.5z"/>
	<path class="st0" d="M159.5,46.7c1.8-1,3.2,0,4.3-1.5c-1.3,0-2.7,0-4.1,0.6c-0.2-0.3,0.2-0.5,0.4-0.7
		C158.9,44.2,158.8,45.8,159.5,46.7z"/>
	<path class="st0" d="M138.8,19.2c0.9,0.6,0.4-1.5,1-0.9C139.9,17,138.5,18.7,138.8,19.2z"/>
	<path class="st0" d="M139.8,18.6c0.5,0.3,1.1,0.3,1.7-0.5C140.9,17.9,140.3,18.1,139.8,18.6z"/>
	<path class="st0" d="M168,45.6c0.2,0.3,0.5,0.5,0.7,0.8c0.4-0.3,0.2-0.6,0.6-0.9C168.9,45.6,168.5,45.1,168,45.6z"/>
	<path class="st0" d="M151.8,24c0.3-0.4-0.2-0.9,0.6-1.3C151.5,22.5,150.5,23.9,151.8,24z"/>
	<path class="st0" d="M177.8,8.1c0.9,1.2,1.6-0.1,1.7-0.9C179,7.2,178.4,7.7,177.8,8.1z"/>
	<path class="st0" d="M196.3,9.6c0.8,0.8,0.7-0.9,1.7-0.1c0.3,0.7-0.7,0.5-1,0.9c0.7,0.5,1.4,0,1.7-0.9c-0.5-0.1-0.7-0.3-0.7-0.8
		c0.8-0.9,1.6,0.6,2.4-0.5c-0.4,0-0.9,0.2-1.3-0.6c-1.1,0.9-2,0.5-2.6-0.1C196.5,8.2,197.3,9,196.3,9.6z"/>
	<path class="st0" d="M203.2,9.6c0.2,0.3,0.5,0.5,0.7,0.8c0.7-0.7,0.7-0.3,1.2-1.1c-0.6-0.7-1.7,0.9-1.1-0.4
		C203.5,8.4,203.3,9.4,203.2,9.6z"/>
	<path class="st0" d="M205.9,10.7c0-0.5,0.7-1,1.2-1.5c-0.2-0.2-0.3-0.4-0.5-0.6c-0.2,0.2-0.4,0.3-0.6,0.2c0,0.7,0.2,0.5-0.6,0.9
		C205.8,10,205.5,10.3,205.9,10.7z"/>
	<path class="st0" d="M208.8,11.6c0.6-0.7,1.2-0.1,1.9-0.7c-0.8-0.5-1.6,0.4-2.4-0.7C207.9,11,208.6,10.7,208.8,11.6z"/>
	<path class="st0" d="M211.8,9.8c-0.6,0.4-0.8,0.9-0.2,1.3c0.2,0,0.5-0.1,0.7-0.3C212.3,10.5,212.1,10.2,211.8,9.8z"/>
	<path class="st0" d="M212.3,10.4c0.3,0.3,0.1,0.6,0.5,1c0.4-0.3,0.2-0.8,0.6-0.5c0.2-0.3-0.3-0.7-0.5-1
		C212.7,10.1,212.5,10.2,212.3,10.4z"/>
	<path class="st0" d="M213.5,8.9c-0.1,0.4,1.3,1.7,1.8,0.9C214.7,9.4,214.1,8.8,213.5,8.9z"/>
	<path class="st0" d="M224,11.4c0.5-0.7,0.9-0.5,1.3-0.9c-0.4-0.8-0.9,0.1-1.3-0.6C223.7,10.4,223.3,10.9,224,11.4z"/>
	<path class="st0" d="M229.7,11.1c0.5,0.5,1,0.5,1.5,0.1c-0.2-0.3-0.5-0.5-0.7-0.8C230.2,10.6,230,10.9,229.7,11.1z"/>
	<path class="st0" d="M233.2,11.5c0.7,0.3,1.5,0.3,2.2,0.5c0.6-0.4-1.1-1-0.5-1.4c-0.4-0.2-0.4,0.3-0.6,0.5
		C233.9,11.4,233.6,10.7,233.2,11.5z"/>
	<path class="st0" d="M235.7,9.5c0.4,0.4,0.9-0.5,1.3-0.1c-0.1-0.7-0.5-0.8-1.2-1C235.4,8.7,236.2,9.1,235.7,9.5z"/>
	<path class="st0" d="M239.7,12.6c1.1-1,2.2,0.1,3.3,0.2c0.8-1.2-1.3-1.4-1.7-2.4c-0.2,1.1,0.1,1.2-1.2,1.5
		c-0.8-0.9-0.6-1.5-1.6-1.4C238.4,11.5,238.8,11.7,239.7,12.6z"/>
	<path class="st0" d="M240,10.1c0.8,0.3,1.6-0.1,2.4,0.3C242.4,9.9,240.8,9,240,10.1z"/>
	<path class="st0" d="M243.9,9.3c0.3,0.4,0.6,0.2,0.9,0.6c0.5-0.5-0.4-1.2,0.3-1.7c-0.4-0.1-0.7,0-1.1,0.3
		C244.7,9.2,244.7,8.8,243.9,9.3z"/>
	<path class="st0" d="M249.2,9.4c0.3,0.5,0.6,0.4,0.9,0.6c-0.1-0.5,0.3-0.9-0.1-1.4C249.9,9.4,249.7,8.9,249.2,9.4z"/>
	<path class="st0" d="M312.3,16.5c0.9,0.7,1.8,0.2,2.8-0.4c-0.8-0.3-1.5-0.9-2.3-1.1C312.5,15.4,312.5,16,312.3,16.5z"/>
	<path class="st0" d="M330.2,13.7c0.4,0.8,0.9-0.1,1.3,0.3C331.8,13.4,330.6,12.9,330.2,13.7z"/>
	<path class="st0" d="M348.8,15.4c0,0.8,1.5,0.8,2.2,0.1C350.3,15.2,349.6,15.5,348.8,15.4z"/>
	<path class="st0" d="M357.8,16.1c0.9-0.5,2.5-0.5,2.8-1.2C359.7,14.8,358.1,15,357.8,16.1z"/>
	<path class="st0" d="M375.8,15.1c0.7,0.5,1.3,0.1,2,0.3C377.9,14.8,376.4,14.2,375.8,15.1z"/>
	<path class="st0" d="M394.7,18.3c0.1-0.4,0.5-0.9,0.6-1.3c-0.4-0.1-0.7,0-1.1,0.3C394.6,17.7,394.3,18,394.7,18.3z"/>
	<path class="st0" d="M456.2,84.4c1.4,0.6,3-1.1,4.4-0.5C459.9,82.3,457.5,83.8,456.2,84.4z"/>
	<path class="st0" d="M460.8,83.2c0.6,0.6,1.2,0.5,1.8-0.3C462,82.8,461.4,82.9,460.8,83.2z"/>
	<path class="st0" d="M429.1,15.7c0.2-0.3,0.2-0.6-0.1-1c1.2,0.1,1.5,0.2,2.9-0.2c-1.2-0.5-2.4-0.6-3.7-0.2
		C428.9,14.8,428.7,15.2,429.1,15.7z"/>
	<path class="st0" d="M434.8,18.7c0-0.6,0.9-1.1,0.3-1.7C434.4,16.9,434.3,18,434.8,18.7z"/>
	<path class="st0" d="M433.4,14.9c-0.2,0.3,0.3,0.7,0.5,1c0.5-0.4,0.7-0.7,0.8-1.1C434.2,14.4,433.8,15.6,433.4,14.9z"/>
	<path class="st0" d="M477.1,12.2c0.7,0.4,1-0.5,1.3-0.9c-0.4-0.2-0.7,0-1.1,0.3C477.5,11.8,477.2,12,477.1,12.2z"/>
	<path class="st0" d="M480,9.8c0.5,0.4,1.2-0.8,1.2-1.1C480.3,8.7,480,9.1,480,9.8z"/>
	<path class="st0" d="M483.2,11.1c1.6,0.5,3.2,0,4.8-0.1c-0.3-0.9,0.7-0.7,1.3-1.3C487.1,9.7,485.6,10.8,483.2,11.1z"/>
	<path class="st0" d="M488.7,10.7c0.6,0.5,1.4-0.3,2-0.5C490.1,9.8,489.4,9.8,488.7,10.7z"/>
	<path class="st0" d="M491.5,10.2c0.7,0,1.4,0.5,2.2,0.1C493.6,9.7,492.3,9.3,491.5,10.2z"/>
	<path class="st0" d="M493.5,11.7c0.9,0.1,1.3,0.5,1.8,0.9c0.5-0.8,0.9-0.8,0.5-1.9C495.5,11.9,494.2,11,493.5,11.7z"/>
	<path class="st0" d="M495,1c-0.3,0.9,1.1,0.5,1.5,0.1c-0.3-0.5-0.6-0.4-0.9-0.6C495.3,0.7,495.4,1.3,495,1z"/>
	<path class="st0" d="M503.3,8.5c-0.2,0.1-0.1,0.2,0,0.4c0.1,0.1,0.2,0.3,0.3,0.4c0.5-0.9,2.4,0,3.5-1.2c-0.2-0.2-0.3-0.4-0.2-0.6
		c-0.9,0.5-1.7,0.4-2.6,1c-0.9-1,0.4-0.7,0.4-1.5c-0.4-0.6-0.9,1.1-1.3,0.5C503.2,7.8,504.3,9,503.3,8.5z"/>
	<path class="st0" d="M498.4,0.8c1.2,0.1,2.3,0,3.5-0.8C500.7-0.1,499.5,0.3,498.4,0.8z"/>
	<path class="st0" d="M508.1,8c0.6-0.1,0.5,1.3,1.4,1.2c-0.3-0.8-0.1-1.2,0.8-1.5C509.6,7.2,508.8,7.7,508.1,8z"/>
	<path class="st0" d="M509.4,6.7c0.8,0.5,1.7-0.2,2.6-0.6C510.8,5.7,510.6,6.4,509.4,6.7z"/>
	<path class="st0" d="M517.7,6.9c0.2-0.3-0.5-0.7-0.1-1c-1.2-0.1-2.5,1.7-3.7,0.6C513.8,8.7,516.5,6.2,517.7,6.9z"/>
	<path class="st0" d="M513.5,5.8c1.3,0.6,2.6-0.5,3.9-1.1C516.2,3.9,514.8,5.3,513.5,5.8z"/>
	<path class="st0" d="M516.6,2.9c-0.2,1,1.3,0,1.8-0.3C517.8,2,517.2,3.3,516.6,2.9z"/>
	<path class="st0" d="M517.3,4c1,0.3,2,0.9,3.1-0.4C519.3,4.5,518.3,3.2,517.3,4z"/>
	<path class="st0" d="M522.5,5.7c-1-0.9,0.3-1.7,1-1.3C523.9,5.1,523,5.3,522.5,5.7c0.4,0.9,1-0.4,1.4,0.5c0.4-1.7,2.9-3.5,4-4.2
		c0-1.4-2.5,1-2.6,1.8c-0.1-1.1-1.4-0.3-0.9-1.4c-1.4,1.1-2.6,2.6-4.6,4.4C520.7,7.3,521.6,6.6,522.5,5.7z"/>
	<path class="st0" d="M527.5,3.8c-0.2,0.3,0.3,0.7,0.5,1c0.5-0.1,1-0.8,1.5-0.7c0.1-0.3-0.2-0.7,0.2-1c-0.4-0.2-0.7-0.2-1.1-0.4
		C528.2,3.2,528.5,4.4,527.5,3.8z"/>
	<path class="st0" d="M529.7,5.4c0.6-0.1,1.9-0.5,1-1.3C529.9,4.6,530.1,5,529.7,5.4z"/>
	<path class="st0" d="M530.9,3.2c-0.4,0.9,0.8,0.1,1.1,0.8c0.2-0.7,0-0.8,0.8-1.1C532.1,2.3,531.5,3.3,530.9,3.2z"/>
	<path class="st0" d="M1.1,49c-0.3-0.5,0.6-0.9-0.1-1.3C0.6,48,0.3,47.8,0,48.2c1.5,0.2-0.8,3.4,0.9,1c1.6,0.2,3.2,0,4.7,1
		c0.7-0.8,1-0.5,1.3,0.3c0.2-0.2-0.2-0.5,0-0.8c0.7-0.4,0.2,0.7,0.9,1c0.2-0.9,0.6-0.8,1.6-2.2c-0.7-0.4-1.4,0.5-2.1,0.9
		c-0.5-1.1-1.1-0.4-1.6-0.3c-1.1-1.8-3-0.9-3.6-1.7c-0.9,0.8,0.9,1.5,1.2,1.4C2.5,49.6,1.8,48,1.1,49z"/>
	<path class="st0" d="M16.6,56.9c1,0.5,1.9,0.4,2.9,0.2c-0.7-0.4-0.2-0.8-0.7-1.2C18.5,57.4,17.5,56.3,16.6,56.9z"/>
	<path class="st0" d="M21.2,57.3c0.5,0,0.7-0.4,0.2-0.9c0.3-0.2,0.5,0.2,0.7,0.4c0.7-0.4,0.5-0.9,1-1.3c1.1,0.1,2.2,0.5,3.3-0.2
		c1.3,2,2.7,0.4,4,1c-0.1,1.5-2.1,0.5-2.3,1.8c2.1-0.5,3.2,0.9,5.5-0.5c0.5,0.9,0.8,1.6,1.8,0.5c0.5,0.9,0.2,1.8-0.6,2.1
		c0.3,0.5,0.6-0.1,0.9,0.2c-0.3-0.7,0.9-1.2,0.1-1.9c1.2,1.1,2.6-0.3,3.8,0c-1.7,0.7-2.8,1.5-3.2,1.6c0.5,1.4,2.7-0.4,3.9-0.8
		c0,1,1.3,0.8,2,0.7c0.2-0.2-0.2-0.5,0-0.8c0.2-0.1,0.4,0,0.6-0.2c0.1,0.3-0.3,0.6,0.1,1c1.5,0.1,3.1-0.6,4.6-0.7
		c0.1,0.2,0,0.4,0.2,0.6c-1.6,0.3-2.2,1-3.7,1.3c1.2,0.9,2.6,0.2,3.8,0.8c0.5-0.7-0.6-0.3-0.7-0.8c0.3-0.5,0.6-0.3,0.9-0.5
		c0.8,0.6,0.2,1.5,1,1.6c0.4-0.3,0.2-0.6,0.6-0.9c-0.2-0.2-0.4,0.1-0.6,0.2c-0.4-0.5-0.2-2-0.7-0.8c-1-1.1,0.3-1.5,1-1.3
		c-0.9,0.5,1,0.7,0.3,1.5c0.5,0.4,1-1,1.5-0.7c0.5,0.8-0.8,1.2-1.3,1.3c-0.5,0.5,0.4,1-0.1,1.5c0.6,0.5,1.4-0.3,2,0.3
		c-0.1,0.8-0.8,0.6-1.2,1.5c0.6,1.1,1.4-0.3,2,0.7c0.4-0.7-0.8-0.4-1-1.2c0.5,0.1,1.1-0.1,1.6,0.3c-0.8-0.8-0.3-1.2-0.1-2.1
		c0.2-0.1,0.4,0,0.6-0.2c0.8,0.4-0.5,0.7,0.3,1.2c0.9-1.2,5.1-0.1,4.7,1.4c0.5-0.7,1.1-0.3,1.2-1.1c0.9,0.6,0.3,1.2,0.8,1.8
		c-0.9-0.2-1.9,0.5-2.8,0.1c0.5,0.9,2.6,1.1,3.8,0.8c0.3,0.4-0.3,0.8,0.3,1.2c0.8-0.6,1.6-1.2,2.8-0.1c0.1-1,0.9-0.8,0.5-1.9
		c0.5,0.9,1.2-0.4,2.2,0.5c-0.5-1.4,1.5-0.5,1.5-1.5c1.3,0.6-0.8,1.1,0.1,1.7c0.6-0.8,1.1-0.8,1.7-0.5c0.1,0.5-0.2,0.9-0.2,1.3
		c-1.9,0.4-3.7-0.4-5.2,0.5c0.4,0.8,0.9-0.4,1.3,0.6c2.5-2.1,4.7,1.4,7.2-0.2c2.2,2,6.6,0.2,7.6,2.3c0.7,0.2,1.5,0.2,2.2,0.5
		c0.4-1.4,1.7-0.3,2.6-0.6c0.1,0.3-0.3,0.6,0.1,1c0.1-1,1.4-1,1.3-0.1c2.1-1.1,4,0.7,6,0.1c-0.6-0.6,0.5-0.9,0.8-1.1
		c0.3,0.5-0.8,0.9-0.6,1.3c1.7,1,3.4-0.1,5.1-0.1c-0.1,1.4,1.9,1.6,2.4,0.7c0.3,0.7,0.7,0.3,1.1,0.8c1-2.1,4.6,1.1,6.8-0.6
		c1.5,2.2,4.6-1.1,5.8,1.1c-0.5-0.2-1.1,0-1.7,0.1c0.4,1.1,2.3-0.3,3.7,0.2c0.6,0.2,2.6,1.5,2.7,0.3c0.4-0.4,0.7,0.6,1.1,0.8
		c1.3-0.7,2.6,0,3.9-0.8c1.5,0.8,4.7,0.7,7.1,0.9c61.5,7.4,123.4,6.4,185.2,5.2c0.5,0.5,0,0.9-0.2,1.3c-4.6-1.4-9.3,0.9-13.9-0.3
		c-0.4,0.8-0.6,0.7-1.3,0.9c-0.2-0.4,0.3-0.2,0.6-0.5c-0.7-0.5-1.5,0.9-2.2-0.1c-0.6,0.5,0.1,1-0.4,1.5c-1.9-1.9-5.1-1.4-7.7-0.4
		c-2.1-0.3-4.1-1-6.2,0.1c-0.2-0.2-0.3-0.4-0.2-0.6c-3.3,1.1-7.8-0.4-9.9,1c-0.5-0.5,0-0.7-0.7-0.8c-0.2,0.2,0.2,0.5,0.3,0.8
		c-4.1-1.3-7.5,1-11.7-0.6c-0.4,1.3-2.5,0-3.5,0c-1.7,0-2.9,1.2-3.7,0.2c-1.5,0.8-3,0.8-4.4-0.2c-0.8,0.3,0.4,0.8-0.4,1.1
		c-0.2,0.4-1.1-0.7-0.7-0.8c-1,1-2,0.1-3,0.6c-0.4-0.3-0.2-0.5,0-0.8c-1.3,1-2.6,0.3-3.9,0.8c-0.1-1.4-0.1-0.2-1.1-0.8
		c0,0.5-0.5,0.9-1,0.9c0-0.3-0.2-0.7-0.5-1c-0.9,1.4-2.6-0.6-4.4,0.9c-0.3-0.3-0.3-0.7-0.1-1c-2.2,0.4-7.2-0.1-7.7,0.8
		c-1.1,0.2-2.1-1.1-3.3,0.2c-1-0.9-2.8-1.5-3.3-0.6c-6.9-0.9-13.2,0-20.3-0.8c-0.4,0.2-0.2,0.5-0.4,0.7c-0.5-0.6-0.7-0.4-1.6-1
		c-3.8,1.1-9.1-1.3-13.6,0.5c-0.3-0.3-0.1-0.6-0.5-1c-1.7,0.1-3.5,0.6-5.1,0.1c0.1,0.6,0.4,2.2-1.2,2.6c-0.5-0.8,0-1.2-1-1.6
		c-0.2-0.6,1-1.3,1.3-0.5c0.7-0.9-1.2-1.4-1.1-0.4c-2.3-1.5-4.7,0.5-6.9-1.1c-0.6,1.3-2.1,0.8-3.1-0.4c-0.4,0.2-0.2,0.5,0,0.8
		c-2-0.7-4.1-0.3-6.2-1.1c-0.2,0.3,0,0.6-0.2,0.9c-3-0.8-7.1,0.4-9.3-1.4c-0.2,0.2,0.1,0.4,0.2,0.6c-3.3-0.5-6.6,0-9.8-1.3
		c-2.4,0.8-6.2-0.2-9.1-0.5c-0.7,0.4,0.1,0.9-0.6,1.3c-0.3,0.1-0.5,0.2-0.7,0c0.8-2.1-2.2-1.1-3.2-1.7c-0.4,1,0.8,0.2,1.1,0.8
		c0.3,0.8-0.9,0.5-1.1,0.7c-1.1-2.5-3.6-1.1-5.4-2.2c-0.7,0.4,0.1,0.9-0.6,1.3c-0.3,0.1-0.5-0.3-0.7,0c-0.2-0.3,0.3-0.6,0.6-0.9
		c-0.5-0.5-1.1-0.5-1.7,0.1c0,0.4,0.6,0.8-0.1,1.1c0.3,0.4,0.7-0.2,1.1,0.4c-0.6,0.8-1.2-0.3-1.9,0.7c-0.6-1.2-1.2-0.6-1.8-0.9
		c-0.1-1,1.2,0.3,1.7-0.5c-1.1-1.3,0.5-0.5,1-0.9c-1.7-1.5-1.6,0.1-3.3-0.9c-0.3,0.4,0.5,0.8,0.3,1.2c-0.2,0.2-0.4-0.1-0.5-0.2
		c-0.3,0.5-0.1,0.7,0.3,0.8c-1,1-1.9,0.6-2.8,1.6c-0.5-0.4-0.9-0.5-0.7-1.2c-0.8,0-1.7,1.5-2.4,0.8c-0.4-0.4,0.6-0.7,0.8-1.1
		c-0.6-0.6-1.1,0.4-1,0.9c-0.6,0.6-1.1-0.8-1.6-0.3c-0.2-0.4,0.5-0.7-0.3-1.2c-0.9,1.4-3.7,1.6-3.7,0.2c-0.8,0.1-1.6-0.6-2.4,0.5
		c-0.9-1.6-2.5,0.2-2.9-1.3c-1.1,2.2-3.3-1.4-5,0.3c-1.5-0.6-3.1-0.1-4.5-0.8c-0.5-0.6,0.9,0,0-0.8c-2.5,1.7-4.8-0.9-7.3,0
		c0.3,0.4,0.6,0.2,0.9,0.6c0.1,0.3-0.3,0.5,0,0.8c-1.1-0.2-2.1-1.2-3.2-1.3c-0.2,0.5,0.3,0.4,0.5,0.6c0.3,0.7-0.8-0.2-1.1,0.7
		c0-0.5-0.2-0.7-0.7-0.8c-1,2.1-2.9-0.9-4.4,0.5c-0.6-0.5-0.6-1.1,0.1-1.5c-0.5-0.7-1,0-1.4-0.5c-0.2,0.3,0.3,0.7,0.5,1
		c-0.5,0.8-1,0.5-1.5,0.7c-0.3-0.4-0.1-0.8,0.4-1.1c-1.3,0.7-2.6,0-3.8,0c-0.2-0.4,0.5-0.7-0.3-1.2c-0.8,2-4.7,0.4-5.9,1.2
		c-0.4-1-1.8-0.8-0.7-1.6c-0.8-0.2-0.9,0.3-1,0.9c-0.8,0.1-0.9-1.9-2-1.1c0.3,0.7,0.7,0,1.1,0.4c-0.3,0.2-0.3,0.4-0.2,0.6
		c-1.8-0.2-3.6-1.3-5.5,0.1c0.1-1.1-0.1-0.9-0.6-1.9c-0.6,0.5,0.1,1.2,0.5,1.7c-1,1.5-1.9-1-2.9,0.2c-1.1-0.8,0.5-1.4-0.1-2.1
		c-0.7,0.7-0.4,1.4-0.6,2.1c-0.7,0.7-0.7-0.8-1.1-0.4c-0.2-0.3,0.3-0.6,0.6-0.9c-0.6-0.3-1.7,0.2-1.3,0.9c-1.2-1.4-1.3-0.2-2.1-1.6
		c-1.2,0.7-1.3,0.4-2.6-0.1c-0.2,0.5,0.5,1-0.4,1.5c0.3,0.3,0.6,0.7,0.9,1c0.7,0.1,0.4-1,1.1,0.1c0.4-0.2,0.2-0.5,0-0.8
		c1.1,0.1,4.7-0.1,4,1.7c0.3,0.5,0.8-0.6,1.1-0.7c0.6,0.8,0.1,1.4-0.6,1.7c0.4,0.3,2.2,0.2,1.5-0.7c0.8-0.3,1.6,0.6,2.4-0.5
		c0.3,0.5-0.8,0.9-0.6,1.3c0.6,0.8,2.5-0.6,2,1.1c0.4,0.5,0.7-0.6,0.4-0.7c0.7,0,1.3,0.1,2,0.7c0.2-0.3,0-0.6,0.2-0.9
		c0.4-0.3,0.8,0.2,1.3-0.1c0,0.3-0.1,0.6-0.2,0.9c1.6-0.7,3.2-0.5,4.8-0.1c0.4,0.6-0.6,0-0.8,0.7c0.5,0.6,1.1-0.3,1.6,0.7
		c-0.8,0.4-1.5,0.4-2.2-0.5c-0.6,1.6-2.5-0.4-3.7,0.6c2.4,0.6,4.6,0.3,6.6,0.7c0.5-0.7-0.6-0.3-0.7-0.8c1.2-1,1.1,1.7,2.3,0.7
		c-0.4-0.2-0.7-0.2-1.1-0.4c0.5-1,1,0.3,1.5-0.7c0.5,0.3,0.1,0.6-0.2,0.9c0.3,0.1,0.6-0.2,0.9,0.2c0.4-1.3,3.5-0.4,4.9,0.1
		c0.3,0.9-0.8-0.5-1.1,0.3c2.5-0.2,5-0.1,7.5,0.6c0.2,0.3-0.3,0.6-0.6,0.9c0.7,1,1.4-0.3,1.3-0.9c1.1-0.2,0,1.1,1,1.6
		c1-0.4-0.7-0.9-0.1-1.3c1.5,0.1,3.1-1,4.6,0.4c0.6-1.3,1.3-0.7,2.3-1c0.6,0.4,0.2,0.8,0.7,1.2c1.2-0.8,2.3-0.5,3.5-0.4
		c0.2,0.7-1,0.4-1.3,0.5c0.7,0.8,2.1,0.3,3.1-0.4c0.7,0.5-0.2,0.9,0.5,1.4c-0.5,0.6-1.3,0.1-1.3,0.9c2.3,0.2,3.9-0.3,5.9-1.2
		c1,0.6-0.7,1.1,0.1,1.7c2,0,3.9-0.2,5.8,1.1c1-1.2,1.7-0.1,2.2,0.1c0.4-0.4-0.2-0.8,0.4-1.1c1.4,1.3,4.8-0.6,4.9,1.2
		c2.3-0.1,5.4,1.2,7.1,0.2c1.1,1.1,2.3,0,3.4,1.5c0.8-1.1,1.6,0,2.4-1.2c0.6,0.4,0.2,0.8,0.7,1.2c4.3,0.2,8.6,0,12.8,1.4
		c0.1-0.5,0.6-0.9-0.1-1c3.5,0.9,7,1.6,10.6,0.9c0.9-0.4,1.7,1,2.5,0.9c0.2-0.2-0.2-0.5,0-0.8c1.1,0.4,2.4,1,4,0.2
		c0.3,0.4,0.7,0.8,1,1.2c3.8-0.9,7.5,0,11.1,0.8c0.1-0.2,0-0.4,0.2-0.6c6.4,1.1,12.9,0.6,19.4,1.4c1-1.2,5.4,0.1,8.2,0.2
		c1.5,0.1,2.7-0.6,3.8,0.4c0.3-0.2,0.5-0.5,0.8-0.7c0.7,1.4,2.4-0.4,3.6,1c3.1-1.2,7.5,0.6,11.2-0.4c0.2,0.3,0.5,0.5,0.7,0.8
		c4.8-1.2,9.4,0.7,14.1-0.6c2,1.3,4.2-0.5,6.2,0.7c1.3-1.1,2.4,0.3,3.7-0.6c3.4,0.9,6.8,0.6,10.3,0.1c7.5,0.6,15.2-0.6,22.7,0
		c0.3-0.2,0.5-0.5,0.8-0.7c0.3-0.2,0.3,0.3,0.2,0.6c4-0.5,7-0.4,11-1c0.2,0.3,0.5,0.5,0.7,0.8c0.8-0.1,0.3-1.4,1.5-0.7
		c0.2,0.4-0.3,0.2-0.6,0.5c0.5,0.3,1.3,0.1,1.3-0.5c29.8,0.4,58.7-3.1,88.4-4.1c0.2-0.2,0.4-0.4,0.6-0.5c4,0.6,8.1-1.3,12.1-0.2
		c0.7-0.2,1.4-1.5,1.5-0.3c0.6-0.5,2.2-0.9,3.3-0.2c0.3-0.2,0.5-0.5,0.8-0.7c1.4,0.1,2.8,0.4,4.2-0.4c6.7,1,13.6-1.5,20.3,0.5
		c0.3-0.2,0.5-0.5,0.8-0.7c1.1,0.9,3.1,0.7,3.7-0.2c0.3,0.3,0.1,0.6,0.5,1c0.5-1.4,1.1-0.5,1.7-0.1c1.8-1.2,3.9-0.9,6.3-0.8
		c0.3,0.3,0.3,0.7,0.1,1c0.6,0.2,0.7-1.4,1.7-0.5c0.2-0.2-0.1-0.4-0.2-0.6c0.6-0.3,1.1,0.4,1.7-0.5c0.4,0.3,0.2,0.5,0,0.8
		c0.6-0.5,1.9-1.1,3-1c0.5,1-0.6,0.5-1.1,1.1c2.2-0.9,4.5-1.3,6.7-2c0.3,0.3,0.6,0.7,0.9,1c-0.2,0.9,0.5-0.5-0.3-0.8
		c1-1,2-0.7,3.4-1.4c0.2,0.8,1.5,0.5,0.7,1.2c0.6,0.3,0.6-1.1,1.8,0.1c0.9-0.8-0.4-0.6-0.7-0.8c1.3-1,2.6,0,3.9-1.1
		c0.2,0.3-0.2,0.5-0.4,0.7c0.4,0.2,0.8-0.4,1.1,0.4c-0.3-1.1,0.7-0.4,1.3-1.3c3.1,1.5,6.8-2.5,9.5-0.3c0.6-1.7,2.6-1.4,3.7-1.7
		c-0.1,1.2-1.6,0.3-2.2,1c0.3,0.4,0.6,0.2,0.9,0.6c-1.1,0.5-2.2,1.6-3.2,1.9c0.1-2-2.7,0-3.3,0.2c2.1,1,5.6,0.4,7.6-1.3
		c0.2,0.3-0.3,0.6-0.6,0.9c1.1-0.2,3.5-0.2,3.6-1.9c0.7-0.4,0.4,0.8,0.9,1c2.1-1.2,3.4-1.2,5.8-2.6c2.8,0,5.6,0,8.5-1.9
		c1.6,0.3,4.3-0.6,5.4-1.8c3.6,0.8,9.8-4,14.4-1.2c-1.1-2.4,2.8-1.3,2.5-3.5c1,0.2,2.1-2,3-0.6c3.9-2.1,7.8-2.2,11.6-0.4
		c0.5-0.6,1.1-1.2,0.8-1.9c0.6-0.2,1.2,0.1,1.8,0.9c0.6-0.9,1.1-0.4,1.7-0.5c0.3-1,0.8-0.9,1.2-1.9c-0.3-0.5-0.7,0.3-1.1-0.1
		c2.4-1.3,6.4-1.3,9.3,0.7c0.4-1.4,1.4-1.7,2.6-1.4c2.3-2.8,5.3-4.3,8.3-5.3c0.3,0.4,0.7,0.8,1,1.2c-0.3-1.2,1.6-0.9,2.5-1.6
		c0.1,0.3,0.1,0.5,0,0.8c2.6-0.5,5.1-0.8,7.3-2.5c2.8-0.4,6.5-1,8.8-3.2c1.9,0.2,5.4-2,6.9-2.9c2.6-1.5,4.9-2.6,6.8-4.6
		c-0.7,0-0.7-0.7-1-1.2c0.5-0.6,1-0.1,1.5-0.7c-0.9-0.4-1.3,0.3-1.8-0.5c-0.9,1.3-2.4-0.6-2.8,0.8c-0.4,0.4-0.8-0.8-1.2-1
		c-1.2,0.3-2.3,0.4-3.5,0.4c1.1-0.9,1.6-1,3.1-2.5c-4.4,0.5-10.3,0.7-15.4,3.2c-0.5,0.2-1-0.1-1.4-0.5c-0.1,0.3,0,0.6,0.1,1
		c-0.5,0-1.1,0.3-1.7,0.5c-0.8-1.8-2.9,1-4,2.3c-0.5-0.7,0.3-1.3,0.8-1.9c-0.5,0.2-1.3-0.3-1.2-1c0.9-0.8,1.1-0.1,1.7-1.3
		c-0.4-0.6-0.9,1.2-1.3,0.1c-0.7,0.3-0.3,0.8-0.8,1.1c-0.2,0.1-0.5,0.1-0.7,0c0-0.6,0.8-1.2,0.8-1.9c0.2-0.1,0.4,0,0.6-0.2
		c-0.4,1.2,1.1,0.3,1.8,0.1c0.3,0.3,0.1,0.6,0.5,1c1.6-0.6,2-2.5,3.4-2.9c0.1,0.7-1.3,1.3-1.7,2c0.7,0,2.1-0.3,1.7-1.3
		c1.7,0.7,3.6-0.9,5.4-1.8c-1.1-0.6-2.2,0.9-3.4,1.4c0.7-1.8,2.9-2.4,4.1-1.3c1.5-1,2.9-1.9,4.3-1.1c4.5-2.5,8.8-1.7,13.2-3.7
		c-0.9-0.9-1.9-0.3-2.9-1.7c-1.1,0.4-2.1,0.3-3.1-0.7c-0.4,0.2-0.2,0.5-0.4,0.7c-0.7-1.3-1.6-0.1-2.3-0.7c-0.4-0.5,0.1-0.9,0.6-1.3
		c-0.9-0.8-2,0.1-2.9-0.1c-0.7-0.5,0.4-0.9-0.1-1.3c-1.4-0.6-2.2,0.8-3.9,1.1c-0.4-1.1,1.5-1.8,2.1-2.4c-0.3,0-0.6-0.3-0.9-0.6
		c-0.2,0.2,0.1,0.4,0.2,0.6c-0.7,0.5-1.1-0.4-1.5,0.7c-0.3-0.3-0.1-0.6-0.5-1c-1.3,0.6-2.5,0.4-3.7,0.2c-0.5,0.5-0.5,1-0.1,1.5
		c-0.4,0.5-0.8,0.7-1.1,0.7c-0.4-0.8-0.5-1.6-0.6-2.3c1.5-0.2,3.7-1.7,4.2-3.2c2.3-0.4,4.6-0.9,6.8-0.2c-0.5-1.5,1.1-1,2.1-0.9
		c0.2,0.8-1-0.1-1.3,0.5c0.9,0.9,2-0.8,3-1c0.7,0.5-0.5,0.9,0.5,1c0.3-1.3,2.8-1.3,4.1-0.9c1.1-1.2,2.4-0.6,3.9-1.1
		c0.2-1.3-1.3-0.3-1.8-0.5c1.3-0.7,4.4-2.1,6.6-0.8c1.6-1.6,6.8,0.1,7.3-3.3c1.3,0.5,1.9-1.2,3-0.6c0,0.7-0.7,0.4-0.6,1.3
		c3-1.3,5.9-3.2,6.1-5.8c-0.7-0.6-1.9-1.2-1.5-2.2c-1.6-0.9-4-0.7-4.4-3.1c-0.8,1.1-2.1,0.6-2.3,1.8c0.2,0.2,0.5-0.2,0.8-0.3
		c0.3,0.7-0.1,0.5-0.6,0.9c-0.5-0.8-0.9-1-1.4-0.8c-0.5-0.5-0.3-0.9,0.2-1.3c-0.5-0.1-0.9,0-0.9,0.5c-1.1-1.4-3.7-0.2-5.5,0.5
		c-2-1.8-4.2,0.7-6.3,2c-0.1-0.1-0.2-0.3-0.4-0.4c0.9-2,2.9-2.1,4-3.4c-0.3-0.6-0.7-0.1-1.1-0.8c-3.2,2.1-5.1,1.3-8.2,2.7
		c-0.1-0.2,0-0.4-0.2-0.6c1.1-0.2,2.8-1.1,3.4-2.1c-0.5-0.6-1,0.1-1.4-0.5c0.2,0.8-0.3,1-0.9,0.5c0.1,0.5,0.1,1-0.1,1.5
		c-1.1-0.5-3.5,0.2-3,1.8c-0.5,0.6-0.2-1.2-0.9-0.6c-0.1-0.4,0.7-0.4,0.4-1.1c-0.7-0.1-1.4,1.3-1.2,1.9c-0.5,0.3-0.4-1-0.9-1.4
		c-1,0.5-0.4,1.1-1,1.7c-0.5,0.4-0.6-0.6-0.3-0.8c-0.8-0.4-0.6,0.8-0.8,1.1c-0.2-0.1-1-0.6-1-1.2c0.5-0.7,0.9-0.5,1.3-0.9
		c-1.1-0.7-1.6,0.7-1.5,1.5c-1.3,0.2-2.5,0.2-3.4,1.7c-0.9-0.6,0.1-1-0.3-1.5c0.7-0.3,1.5-0.4,2.2-0.7c-0.7-0.8-0.6-1.6,0.1-2.3
		c-0.5-0.4-0.9,0-0.9,0.5c-0.1-0.9-0.9-0.1-1-1.2c-1,1-2,1-3.3,1c-0.2-0.6,1-1,1.3-0.1c0.2-0.1,0.1-0.2,0-0.4
		c0.1-0.1,0.3-0.2,0.4-0.4c-0.7-0.7-1.5,0-2.2,0.3c-0.3-0.8,0.1-1.5-0.3-2.3c-0.4,0.8-0.4,0.4-1.2,1.1c-0.7-0.5-0.4-0.9-0.9-1.4
		c-0.5,0.3-0.4,0.6-0.6,0.9c-0.5-0.4,0-0.8-0.7-1.2c-1.1,0.4-2.2,0.3-3.3,0.2c-0.5-0.9,0.4-0.5,1-1.3c-0.5-0.5-1.1,0.6-1.6-0.3
		c0,0.3-0.4,0.6-0.2,0.9c-2.7-0.8-5.4,1-8.1,0.4c-0.2,0.2,0.2,0.5,0.3,0.8c-0.4,0.5-0.9,0.9-1.3,0.9c-0.6-3.1-3.6,0.7-5.1,0.1
		c0.5-2.7,2.5-1.9,4-3.1c-0.8-0.6-1.7,0.7-2-0.7c-0.4,0.4-0.8,0.7-1.2,1.1c-0.4-0.3-0.3-0.7-0.5-1c0.5,0,1-0.8,1.5-0.3
		c-0.2-0.9,0.5-0.5,0.6-1.3c-0.8-1.5-1.8,1.9-2.6,0.3c-0.9,1-1.7,2.1-2.5,3.1c-0.7-0.5-0.3-1,0.1-1.5c-0.6-1-1.2-0.3-1.8-0.5
		c0.1,0.5-0.1,1-0.8,1.5c0.4,0.2,0.8-0.4,1.1,0.4c-0.6,0.4-1.2,0.4-1.8-0.1c-0.6,0.5-1.2,1.1-1.7,1.6c-0.3-1.1,0.4-0.9-0.9-1
		c-0.9-0.6,0.4-1-0.3-1.5c-0.3,1.9-1.3,1.3-2.5,2.7c-1.1-0.3-2.2-0.4-3.3-0.9c-0.9,1.8-2,2.1-3.3,3.1c-0.8-0.6,0.6-1,0.4-1.5
		c-1.7,0.1-3.4,2.7-4.2,4c1.7,0.5,2.3-2,3.4-2.5c0.3,0.3,0.3,0.7,0.1,1c0.5,0.4,1.2-0.8,0.8-1.1c1.5,1.5,4.6-3,6.6-0.8
		c-1.3,2.2-4.1,2.3-6,2c-1.2,2.6-3.8,2.4-6.2,2.6c0.7-1.2,1.1-2,1.3-3.4c-0.5,0.8-1,0.4-1.5,1.1c-1.6-2.1-2.3,1.1-3.8-0.8
		c-1.7,0.9-1.2,0.6-2.8,1.2c0.5,0.3-0.1,0.6,0.1,1c-0.5,0.3-1,0-1.5,0.7c-0.8-0.7,0.2-1.2,0.8-1.1c-0.2-0.9-2.3,0.2-2.2,1
		c-0.7-0.1-1.5,0.6-2.2-0.5c-1-0.1-2.2,1.8-3.2,1.2c-0.6-1.1,0.5-2.2,1.1-3.2c-1.3,0.1-1.9,1.7-3.7,1.3c-0.6-0.8-0.3-0.9-1.1-0.8
		c-0.6,0.7,1.1,0.3,0.5,1c0.5,0.1,1.1,0.2,1.7-0.1c0.2,1,0.1,0.9,1.1,0.8c0.2,0.3-0.2,0.5-0.4,0.7c-0.5,0.3-0.9-1.1-1.4-0.8
		c0,0.3-0.4,0.6-0.2,0.9c-0.6,0.3-1.2-0.1-1.8-0.1c-0.3-0.5-0.1-0.7,0.4-0.7c0.4-0.2,0.1,0.3,0.5,0.6c0.1-0.6,0.4-1.1-0.1-1.7
		c-2.6,3-5,2.8-7.5,4.2c-0.3-0.3-0.5-0.5-0.3-0.8c-0.2,0.6-2.1,1.6-3.4,1.7c-0.1-1,1.9-1.4,1.7-2c0.5,0.9,1,0.4,0.2-0.2
		c-2.1,0.9-4,1.3-5.6,1.2c-0.6-1.3,1.9-0.8,1.9-2.2c-0.7,0-0.9-0.4-1.3,0.5c-2.4-1.1-6.8,1.8-9.3,2.2c-0.5-0.5,1.5-0.9,0.4-1.5
		c-0.4,1.1-1.3,1.4-2.1,1.6c0.5,0.2,1.1,0.5,1.6,0.3c0.1,0.2,0,0.4,0.2,0.6c-1.1,0.7-2.2-0.8-3.3,0.6c-0.3-0.3-0.1-0.6-0.5-1
		c-0.9,0.9-1.7,0.2-2.6,0.6c-0.3-0.3-0.3-0.7-0.1-1c-0.4-0.3-0.9,0.5-1.3-0.3c-0.4,0.2-0.2,0.5,0,0.8c-3.4-0.2-5.7,0.1-9,0.5
		c-0.3-0.4-0.1-0.8,0.4-1.1c-0.5-0.1-1.1,0.3-1.7,0.1c-0.9,0.5,0.4,1-0.4,1.5c-0.8-0.8-1.7-0.5-2.6,0.3c-0.5-0.4,0-0.8-0.7-1.2
		c-0.3,0.4,0.1,0.9-0.2,1.3c-1-1.1-0.8,0.1-2.2,0.3c-0.5-0.4,0-0.8-0.7-1.2c-0.2,0.3-0.2,0.6,0.1,1c-1.2,0.5-3.6-0.8-3.6-2.1
		c-1.7,0.7,1.4,1.2,0.3,2.3c-0.6,0-0.4-0.6-1.2-1c-0.9,0.7-1.9,0-2.3,1.4c-0.8,0-1.7,0.1-2-1.1c-0.3,0.3-0.6,0.6-1,0.9
		c0.6,1,0.3-0.8,0.9,0.2c-0.5,1.4-3.2,0.3-4.8,1.3c0.3-0.8,0.1-1.4,1-1.7c-1.2-1.1-1.5,1.4-2.8,1.6c-0.8-1.2-1.7-0.2-2.6,0.3
		c-1-1.1-2-0.6-3.1-0.4c-0.2-0.8,1-0.3,1.3-0.9c-0.3-0.6,0.5-1.1,0.3-1.7c-1,1.1-2.5,1.3-3.4,2.5c-0.3-0.4-0.7-0.1-1.4-0.5
		c-0.4-1.1,2.2-0.2,0.8-1.5c0.6-0.8,1.1,0.3,1.7-0.5c-0.5-0.9-2.1,0.6-2-0.7c-0.6,0.7-1.3,0.4-2.3,1c0.1-1.6-1.1,0-2-1.1
		c-1.2,1.1-2.2,0.7-3.4,1.4c0,0.8,0.9,1.4,1.4,0.8c-0.1,1.3-1.7,0.5-2.4,0.5c-0.2-0.6,0.3-1.2,0.6-1.3c-0.1-0.6-0.6-0.7-0.7-1.6
		c-0.1,1.7-1.1,0.4-2.1,1.6c0.4,1,0.9-0.1,1.3,0.6c-0.6,0.1-1.3,0.7-1.8-0.1c-0.2-0.4,0.3-0.2,0.6-0.5c-0.3-0.4-0.8-0.2-0.5-0.6
		c-0.7-0.6-0.3,1.2-0.9,0.1c0.2,0.7,0.5,1.3-0.1,1.9c-0.9,0,0-0.6-0.7-1.2c-0.5,0.4-0.3,0.9-0.2,1.3c-0.3,0.1-0.6-0.3-0.9,0.1
		c-0.9-0.9,0.6-1.6-0.1-2.5c-0.2,0.5-0.5,1-0.4,1.5c-0.6,0.8-1.2-0.9-1.8,0.3c-0.7-0.5-0.4-0.9-0.9-1.4c-0.8,0.8-1.6,0.2-2.4,0.1
		c-0.5,1.3-1.8,0.9-2.8,0.8c-0.5-0.4,1-0.7,0.1-1.1c-0.8,1.2-1.7,0.5-3,0.6c-0.8,0.4,0.3,0.9-0.2,1.3c-1.1,0.2-0.2-1.1-1-1.6
		c-0.5,0-0.7,0.2-0.8,0.7c-1.7-2.2-3.7,1-5.5-0.3c-0.7,1.3-1.1,1-2.3,1.8c-0.3,0-0.5-0.8-1.3-0.6c-0.2-1,1.1-0.5,1.5-1.1
		c-1.1-0.6-2,0.1-2.8,0.8c-0.9-0.4-0.5-0.8-1-1.6c-0.7,0.2-1.1-0.3-1.5,0.7c-0.2-0.3-0.5-0.5-0.7-0.8c0.3,1-1.7,1.4-2.4,0.1
		c-0.6,1.4-1.1,0.8-2,0.5c-0.8,0.7,0.1,0.2,0.3,0.8c-0.5,0.5-0.9,0-1.3,0.1c-0.7-0.9-0.2-0.9,0.1-1.5c-0.8,0-1.6-0.3-2.3-1.5
		c0.2-0.2,0.4-0.3,0.6-0.2c-0.1-0.7-1.8-0.4-2.5-0.5c1.9,0.6,1.5,1.9,3.4,2.3c-1.8,1.6-1.9-1.2-3.3-0.9c0,0.8,1.4,1.7,1.2,2.6
		c-0.5-0.7-1.7-0.7-2.1-1.6c-0.5,0.8-0.6,1.6-1,2.4c0.2-1.4-0.7-1.3-1.4-2c-0.3-0.5,0.8-1,0.1-1.5c-0.3,0.6-0.5,0.6-0.4,1.5
		c-0.5,0-1.1-0.7-0.7,0.3c-0.5,0-1.1-0.6-1.6-1c0-0.6,1.7,0,1.3-1.3c-1,0.7-5.4,2.2-4.6,0c-0.5-0.1-1.1,0.8-1.7,0.1
		c-0.8,1.8-2.7,0.3-4.1,2.1c-0.3-1.3-1.4-0.5-1-1.6c-0.6-0.3-0.5,1-1.3,1.3c-1.4-0.1-2.8-0.7-4.2,0.4c-0.1-1.1-1.3-0.8-1.5-0.1
		c-0.5-1-1.1-0.4-1.6-1c0.2,0.6,0.4,0.7,0.7,1.6c-0.7,0.1-1.5-0.7-1.8-1.2c-1-0.2-0.5,1.1-1.8-0.1c-0.1,0.3,0.2,0.6-0.2,0.9
		c0.8-0.2,1.6,0.1,2.3,0.7c-1.3-0.1-2.7-0.3-4-0.2c-0.1-0.2,0-0.4-0.2-0.6c0.6-0.3,1.8,0.5,1.9-0.7c-0.9-0.6-1.8,0.9-3.1-0.3
		c-0.3,0.3-0.5,0.5-0.8,0.3c-0.2,0.3-0.2,0.6,0.1,1c-0.8,0.6-1.6-0.1-2.4,0.5c-0.7-0.4-0.2-0.8-0.7-1.2c-0.7,0.5,0.4,1-0.6,0.9
		c-0.7-0.5,0.5-0.9-0.5-1c-0.5,0.3,0.1,0.6-0.2,0.9c-2.8-2.4-6.3-0.2-8.5-1.4c-0.3-0.4,0.5-0.7,0.4-1.1c-1-0.4-2.1,1.3-3.1-0.3
		c-0.2,0.3-0.2,0.6,0.1,1c-0.4,0.7-0.7,0.2-1.1,0.7c-0.5-0.3-0.1-0.6,0.2-0.9c-0.5-0.5-1.1,0-1.6-0.3c-0.2,0.2,0.2,0.5,0.3,0.8
		c-0.4,0.6-0.7,0-1.1,0.3c0-0.3,0.3-0.6-0.1-1c-0.3,0.2-0.5,0.5-0.8,0.7c-0.5-0.4,0-0.8-0.7-1.2c-1.8,0.2-3.6,0.5-5.3,0.3
		c0.2,0.2,0.3,0.4,0.5,0.6c-0.5,0-1,0.8-1.5,0.3c-0.5-0.3-0.1-0.6,0.2-0.9c-1.1-0.5-3,0.4-3.5,0.8c-0.3-0.8-0.7-1-1.4-0.5
		c0.9,0.8,0.1,0.8-0.4,1.1c1.7-0.3,2.4,0.8,4.2,0.4c0.2-0.4-0.2-0.2-0.3-0.4c0.4-0.8,0.7,0.5,1.1-0.3c0.5,1,0.6,0.7,1.4,1.6
		c-2.1-0.9-5.1,0.6-6.6-0.7c-0.1,0.2,0,0.4-0.2,0.6c-0.7,0.4,0.2-0.7-0.5-1c-1.2,1.5-2.2,0.5-3.3,0.2c-0.3,1-1.1,0.9-1.9,0.7
		c0.3-0.8,1-1.5,0.5-2.3c0.5-0.2,1.5,0.1,1.5-0.7c-0.7,0.1-0.7-0.1-1.1-0.8c-0.3,0.9-0.8,0.6-1,1.3c-0.6,0.3-1.2-0.5-1.8,0.3
		c-0.7-1.4-2.3-0.7-3.7-0.2c0-1.2-0.7-1.1-1.6-0.3c-0.1-0.3-0.1-0.6,0.2-0.9c-1.2-0.6-2.5,0.7-3.7,0.2c-0.3,0.4,0.4,0.8-0.1,1.1
		c-0.4,0.5-0.7-1-1.1-0.1c-0.3-0.3-0.3-0.7-0.1-1c-0.6-0.2,0,1.1-0.9,0.5c-0.4-0.4-0.6-0.8-0.3-1.2c-0.9,0.5-2.6-0.6-3,0.6
		c-0.5-0.4,0-0.8-0.7-1.2c0,1.2-1,0.1-0.9,0.1c-1.3,0.1-1.8,1.6-3.1,0.4c-0.3,1.1-1.8,0.5-2.6,0.6c-0.1-0.3,0.3-0.6-0.1-1
		c-0.6,1.2-1.5,0-2.4,1.2c-0.3,0.8,0.9,1.1,1.3,0.6c0.3,0.2-0.9,0.8-1.1,0.7c-0.4,0.9,0.8,0.3,1.1,0.4c0.2,0.3-0.3,0.6-0.6,0.9
		c-0.3,0.1-1-1.2-1.8-0.1c-0.5-0.5-0.9-0.9-0.5-1.4c-0.6-0.7-1.4,0.3-2-0.7c-0.2,0.5,0,1.2-0.8,1.1c0.5-1.4,1.9-2.4,3.3-3.1
		c-0.6-0.2-1.2-0.6-1.8-0.9c-0.3,0.4-0.4,1.1-0.9,0.5c-0.2,0.3,0,0.6-0.2,0.9c-0.8,0.5-0.5-0.5-1.2-1c0.1,1.6-3.1,1.7-3.5,0
		c0,1-0.8,0-1.3,0.9c0.6,0.7,1.2-0.2,1.8,0.5c0,0.7-1.6,0-2.2-0.1c-0.1,0.4-0.3,0.8-0.8,1.1c-0.5,0.4-0.4-0.6,0-0.8
		c-0.6-0.3-0.7,1-0.2,1.3c0.4-0.3,0.8,0.2,1.3-0.5c0.2,0.4,0.2,0.8,0.3,1.2c-0.9,0.5-1.7-0.7-2.6-0.1c-0.2-0.7,1.3-2.1,0.1-2.3
		c0.2,1-0.3,0.5-1,0.9c-0.1-1.1,0.6-0.5-0.7-1.2c-0.1,0.7-0.2,1-1,1.3c-0.3-1.5-1.4,0.5-2.2-0.9c2.2-0.1,4-1.2,6.4-0.3
		c-0.9-1.3,1.7-0.5,1.4-2c-0.3-0.4-0.6-0.2-0.9-0.6c-0.4,1.2-1.9,0.3-2.2-0.5c0.5,1.1-0.9,1-0.3,2.1c-0.5-0.1-1,0.5-1.5-0.1
		c-0.3-0.6,1.5,0.1,0.2-0.9c0.4-0.8,0.7,0.5,1.1-0.3c-0.3-0.3-0.1-0.6-0.5-1c-1.1,1.2-1.4,0.2-1.6-0.7c-0.1,1.6-2.4,0.4-3.5,0.8
		c-0.4,0.7,0,0.5,0.5,1c-1.3,1.2-3.2,0-3.9,1.1c-0.7-0.5,0.1-0.9-0.1-1.3c1,0,2-0.2,2.9,0.1c0.4-0.5,0.4-1,0.1-1.5
		c-0.3,0.4-0.5,0.2-0.7,0c-0.1,0.3-0.2,0.5,0,0.8c-1-1.2-3.8-0.1-4.4,0.9c0.5-1.9-1.3-1-1.7-2.4c-0.3,0.3-0.6,0.3-0.9,0.1
		c-0.4,1,0.8,0.2,1.1,0.8c0.3,0.8-0.8,1.3-1.8,2.4c-0.8-1.1,0.8-1.1,0.8-1.9c-0.9-0.8-0.7,0.1-1.7,0.5c0.3,0.5,0.1,0.9,0.1,1.3
		c-0.4,0.3-0.8-0.6-1.3,0.1c0.8,0.8,1.6-0.8,2.4,0.7c1-0.8,1.9-1.4,2.8-1.2c0.3,0.5-0.8,0.3-1.1,0.3c-0.4,0.7,0.9,0.7,0.7,0
		c0.1,3.8-5.2,0.4-8.1,1.5c0.3,0.3,0.5,0.5,0.3,0.8c0.4,0.6,0.9-0.5,1.3,0.3c0.1,0.5-1.4,1.2-1.8,0.3c0.4,0.9-1.2,2.1-1.9,1.1
		c-0.2-0.2,1.1-0.8,1.5-0.3c-0.2-1.1,0.4-1.1,0.6-2.1c-0.8-0.5-0.5-0.7-1.4-1.2c1.3-0.4,2.1,0.4,3.7-1c-0.7-0.9,0.1-0.9-1-1.6
		c0,0.6,0.7,1.3-0.5,1.9c-1.2,0-2.4-0.5-3.7-0.2c0.5,0.4,0.6,0.8,0.3,1.2c0.5,0.2,1.1,0.2,1.6,0.3c-0.1,0.5-0.8,0.9-1.2,1.1
		c-0.4-0.3-0.2-0.5,0-0.8c-1-0.6-0.3,1.1-1.5,0.7c-0.1-0.6,0.4-1.1,0.3-1.7c-1.3,1.4-3.8-0.1-5.2,1.3c-0.2-0.5,0.2-0.9-0.5-1.4
		c-0.7,0.4-1.3-0.1-2.1,0.9c0.5,0.4,0.6,0.8,0.7,1.2c-0.9,0.4-1.7,0-2.6,0.6c-0.4-0.8,0.7-2.2,1.5-1.1c-0.4-0.6,0.3-1.1-0.1-1.7
		c-0.8,1.3-1.6,0.7-3.2,1.6c0.4,0.8,0.9-0.3,1.3,0.3c-0.1,0.9-1.1,0.1-1.7,0.9c-0.3-0.3-0.1-0.6-0.5-1c-0.5,2.1-2.1-0.2-3.2,0.8
		c-0.5-1.4,1.4-1,1.6-1.8c-0.2-0.2-0.4,0.1-0.6,0.2c-0.8-0.4,0.5-0.7-0.3-1.2c-0.7,0.6-1.6-0.1-1.3,0.9c-0.7,0.8-1.2-0.4-1.8-0.1
		c-0.1-0.5,0.2-1.2,0.8-0.7c-0.1-1.3-2.4,1-2.5-0.9c-0.4,0.4-0.8,0.7-1.1,1.1c0.4,0.3,0.3,0.7,0.5,1c-0.7,0.4-0.7-0.3-1.1-0.8
		c-1.2,1.5-2.2,0-4.2-0.8c-1.1,1-3.4-0.6-5.1,0.1c-0.1,0.9,0.8,0.3,1.3,0.6c-0.3,1-2.1,0.7-3,0.6c-0.3-1,1.2,0.1,1-0.9
		c-0.6-0.5-1-0.8-1-1.2c-0.5,0.4-1.3,1.5-1.9,2.2c-0.8,0.2-0.6-1-1.2-1.4c-0.4-0.1-1.9,0.9-1.6-0.3c-1.5,1-2.8,0.6-4.2,0.4
		c-0.8-0.6,0.7-1.1-0.1-1.7c-1.1,0.5,0.3,1.2-0.6,1.7c-0.8,0.5-0.9-1-1.4-1.6c-0.5,0.4-1-0.2-1.5-0.1c0.2-0.5,0-1-0.7-1.6
		c0,0.3-0.3,0.8-0.6,0.5c-0.5,0.5,0.6,0.1,0.7,0.8c-0.5,0.7-1,0-1.5-0.1c-0.4,0.5,0.7,0.7,0.9,0.6c0,0.5-0.2,0.9-0.2,1.3
		c-0.7,0-0.7-0.7-1.1,0.3c-0.8-0.9,0.2-0.7,0.2-1.3c-0.7-0.6-0.7,0.4-1,0.9c-0.9,0.3-1.7-0.2-2.6-0.1c0-0.6,0.6-1.1,0.6-1.7
		c-0.8-0.3-1.5-1.9-2.5-1.3c-0.7-1.2-0.8-1.8-2.5-2c0.5,0.4,1.1,0.5,1,1.2c-0.6,0.5-1.1,0.2-1.7,0.1c-0.4,0.4,0.2,0.8-0.4,1.1
		c0.7-0.1,2,1.1,2.2,0.1c0.1,0.5,0.3,0.9-0.2,1.3c-0.6,0.1-0.4-1.1-1.3,0.1c-0.8-0.4,0.5-0.7-0.3-1.2c0.1,1.2-0.9,1.1-1.7,0.5
		c-0.5,0.7,0.2,0.9,0.7,0.8c-0.3,0.4-0.6,0.1-0.9,0.5c-0.2-0.5-1.3-1-0.9-1.4c-0.3-0.1-1.6,1-1.3-0.3c-0.6-0.4-1,1.7-1.9,1.1
		c-0.2-0.3,0.3-0.6,0.6-0.9c-0.9-0.2-2.5-1.3-2.9-0.2c-0.3,0.1-1.6-0.3-0.7-0.8c-1.6,0.1-3.7,1.2-4.4,3.4c-0.4,0-0.8-0.2-1.3,0.1
		c-0.7-0.7,0.7-1.2-0.3-1.9c0.9-0.7,0.9-0.2,1.5,0.1c0.9-0.6,1.1-1.2,0.5-1.9c-0.2,0.2,0.1,0.4,0.2,0.6c-0.6,0.3-1.1,0.8-1.7,0.1
		c-0.4-0.6,0.6,0,0.8-0.7c-0.5-0.8-1,0.5-1.4-0.5C175,10.4,173,9,171.8,8c-0.6,0.7-1.2,2,0.1,2.1c-0.3-1,0.5-0.6,1.1-0.3
		c0.2,0.3-0.3,0.3-0.6,0.2c0.3,0.9,2.2,0.3,3.1,0.7c-3,1.2-7.4,0-11,0.6c-0.2-0.3,0.2-0.5,0.4-0.7c-0.5-0.3-1-0.5-1.5,0.3
		c-0.2-1.2-0.7-0.2-1.4-0.8c-0.5-0.5,1.2-0.8,0.2-1.3c-0.7,1.2-1.1,0.5-2.4,0.1c-0.6,0.9-1.3,1.6-2.2,0.3c-0.7,0.8-1.2,0.2-1.9,1.1
		c-1.8-2.7-5.4-0.9-8.7-2.4c0.1,0.8-0.8,1.5-1.1,0.3c-0.8,0.4-0.6,0.9-0.6,1.3c-0.2,0.1-0.5,0.1-0.7,0c0.1-0.6-0.1-1.2,0.6-1.7
		c-1-0.8-0.3,1.6-1.5,0.3c-0.3,1.3-0.6,0.9-1.7,0.9c-0.4-0.5,0.1-0.9,0.6-1.3c-1.8,1-4.4-0.1-5.8,2.2c-0.9,0.4-0.9-0.2-1.4-0.5
		c-0.5-0.6,0.5-1.1-0.1-1.7c-0.7,0.5-0.6,1-0.4,1.5c-0.9-0.3-0.7,0.4-1.5,0.7c-0.5-1,0.7-2.3,1.6-2.2c-0.4-0.3-0.2-0.6,0-0.4
		c-1.2-1.2-2.9-2.4-4.9-0.4c-0.6-0.5,0.9-1,0.1-1.5c-0.7,1-2.4-0.3-3.7-0.2c-0.4,0.3-0.2,0.6-0.6,0.9c0-0.3,0.3-0.6-0.1-1
		c-0.7,0-0.2,0.3-0.8,0.7c-0.1-0.3,0.3-0.5,0-0.8c-0.8-0.8-1.6-0.2-1.5,0.7c-0.2-0.3-0.3-0.3-0.5-0.2c-0.2-0.3,0.2-0.5,0.4-0.7
		c-1.7-0.1-4.3-1.7-5.5-0.3c-1.6-1.1-1.2,0.3-2.2-0.5c-1,1.5-1.6,1.2-2.8,2c0.4,0.5,0.8,0.3,1.3,0.6C113.5,7,113,6,112.5,6.5
		c-0.2-0.3,0.2-0.5,0.4-0.7c-1.2-0.1-2.3-1-3.4-1.1c-0.2-0.3,0.2-0.5,0.4-0.7c-0.5-0.1-1.1-0.4-1.7,0.1c-0.7,2.1-4.2-1-6.1,0.3
		c2.1,0.4,4.2,0.7,6.4,1.3c-0.8,0.5-1.5,0-2.2-0.1c-0.3,0.9,0.9,0.3,1.3,0.6c-0.4,0.4-0.8,0.7-1.2,1.1c-0.3-0.3-0.1-0.6-0.5-1
		c-1.6,0.4-1.5,2.2-3.4,1.4c-0.1-0.7,1.2-0.7,1.7-1.3c0-0.5-0.5-0.9-0.1-1.3c-0.4,0.3-1.4,2.6-2.8,1.6c-0.3-0.4-0.1-0.8,0.4-1.1
		c-0.7-0.7-1.5,1.6-2.6,1c-0.7-0.5,0.6-1-0.3-1.5c-0.2,0.1-0.1,0.2,0,0.4c0,0.5-1,0-0.8,1.1c-0.3-0.2-1.5-0.5-1.3,0.5
		c-0.4-0.2-0.9,0.3-1.3-0.3c0-0.7,1.3-1.3,1-2.1C96,4.7,95.3,5,94.7,5.4c-0.5-0.4,0-0.8-0.7-1.2c-1.1,0.2-2.2-0.1-3.3-0.2
		c-0.4-0.5,0.7-0.2,1-0.9c-1.4-0.7-1.8,2-3.1,0.4c-0.4,0.2-0.8,1.2-1.1,0.7C87,4.8,88,4.4,88.1,5.1c-0.2,0.2-0.4,0.4-0.6,0.5
		c-1.1-0.8-2.2-0.1-3.3-0.9c0-1,1.5-1,2-0.1c0.5-0.4,1-0.8,1.5-0.7c-0.6,0-2-1.4-2.9-0.2c-0.7-0.6,0.3-1.1-0.5-1.7
		c-0.8,1.3-2.9,1.1-4.6,1.1c-0.4-0.7,0.6-0.2,0.8-0.7c-0.8,0-0.4-0.7-1-1.2c-1,0.5-2,0-3,0.6c-1.3-1.2-1.3,0.2-3.4,1.4
		c0.8-0.1,1.6-0.5,2.4-0.1c0.4-0.2,0.2-0.5,0-0.8c0.5-0.3,1-0.2,1.5,0.1c0.4,0.4-0.6,0.5-0.7,0.3c0.2,0.6,2,2.5,2.9,1.3
		c0.5,1.2,2.6,1.2,3.8,0.8c0.4,0.6,0.2,1,0.9,0.2c1.8,1.4,3.7,1.7,5.6,1.2c0,1.3,2,0.4,1.4,1.6c0.3-0.4,0.9-0.3,1.7-0.5
		C92.3,7,92,7.2,91.7,6.8c0.4-0.2,0.7-0.2,1.1-0.3C93,6.8,93,7.1,92.6,7.4c0.5,0.6,1,0.2,1.4,0.8c0.4-0.2,0.2-0.5,0.4-0.7
		c0.4,0.6,0.8,1.1,1.3,0.3c0.3,0.3,0.6,0.9,0.9,0.6c0.5,0.4-1,0.7-0.1,1.1c0.8-1.5,3.9-0.6,4.6,0.4c0.6,0.5,0.2-0.6,0.8-0.7
		c0.2-0.1,0.4,0,0.6-0.2c0.7,0.5,0.2,0.9,0.9,1.4c1.2-1.2,3.6,0,5.3,0.5c0.5-0.7,0.9-0.5,1.3-0.9c-0.9-0.9-0.7,0.7-1.7,0.1
		c0.5-0.6,0.3-0.4-0.1-1.3c1.2-1.2,2.2-0.5,2.5,0.5c-0.5,0.7-0.9-0.9-1.5-0.1c0.8,0.1,1.2,1.2,0.5,1.7c1.2,0.1,2.3,0.7,3.4,0.8
		c-0.4,1-0.2,0.6,0.7,1.2c-0.6,0.2-1.2-0.1-1.8-0.9c-0.3,0.4,0.4,0.8-0.1,1.1c0.7-0.2,1.3,0.4,2,0.3c0.5-0.5-0.2-1-0.7-1.6
		c1-0.2,2.1,0.4,3.1-0.4c0.2-0.5-0.2-1,0.1-1.5c1.1-0.2,0,1,0.8,1.4c0.2,0.4-0.3,0.2-0.6,0.5c1,1.4,3.5,0.6,4.7,2.2
		c1.5-1.2,2.9-0.3,4.4-0.2c0.5,1-1,0.8-1.2,1.9c1.1,0.8,1.4-1.2,1.6,0.7c0.4-0.6,0.4-1.3,0.1-1.9c1.3-0.4,2.6-0.1,3.8,0.4
		c0.5-1.5,1.7-0.8,2.6-0.6c0.2,0.3-0.2,0.5-0.4,0.7c-0.3,0.2-0.6-0.4-0.9-0.6c-0.3,0.2-0.3,0.4-0.2,0.6c-0.1,0.1-0.3,0.2-0.4,0.4
		c0.6,0.5,1.4-0.6,2,0.7c-0.5,0.5-0.9,0-1.3,0.1c-0.3,1,1.1,0.5,1.4,0.8c-1.3,1.6,1.4,0.4,2.3,1.1c0-0.6,0.2-1.7,1-1.7
		c-0.5,1,0.4,1,0.5,2.1c0.2-0.2,0.4-0.3,0.6-0.2c-0.3-1.1,0.9-0.9,1.2-1.9c0.5,0.2,2,1.3,3.1,0.3c0.6,0.5,0,1-0.1,1.5
		c1,0.5,2,0.6,2.5,1.3c0.3-0.2,0.5-0.5,0.8-0.7c-0.2-0.3-0.5-0.5-0.7-0.8c-0.7,1-1.3-0.2-2-0.3c0.9-0.8,1.7,0.5,2.6-0.3
		c-0.1,2.3,2,1.1,3.4,2.3c-0.5-0.3-1.1,0.2-1.6-0.3c-0.1,1,1.4,0.7,2,0.7c0.2-0.5,0.1-1,0.4-1.5c1-0.2,0.5,1,0.9,1.4
		c0.3-0.4,0.5-0.2,0.7,0c0.1-1.2,0.9-1.2,1.8,0.1c-0.5-1.3,0.3-0.4,1.2-1.5c1,1.1-1.3,0.9-0.1,1.9c0.4-1.4,1-1,1.6-1.8
		c0.9,0.9-1.1,0.9-0.8,1.5c0.9,0.1,1.1,0.1,1.7-0.9c0.8,0.9-0.6,0.4-0.4,1.1c1.5,1.4,2.1-0.1,3.7-0.6c0.4,0.5,0.2,0.9,0.9,1.4
		c0.8-0.8,1.6,0,2.4-0.5c0.2,0.5-0.2,1-0.1,1.5c-0.3,0.4-0.5,0.1-0.7,0.3c-0.6-0.4,0.1-0.8,0.1-1.1c-1.1,0.1-1.5,0.8-2.8,0.4
		c0.8,0.3,1.5,1.1,2.4,0.7c0.6,0.6-1,0-0.4,0.7c-0.8-0.4-1.7-0.3-2.5-0.5c-0.2,0.2,0.2,0.5,0,0.8c-0.7,0.4-0.2-0.7-0.9-1
		c-0.3,0.3-0.6,0.3-0.9,0.1c-0.2,2.4-1.8-0.6-2.8,0.8c-0.6-0.5,0.2-1.2-0.7-1.2c-0.6,0.7,0.1,1.5-0.5,2.3c0.5,0.6,1-0.1,1.4,0.5
		c0.2-0.2-0.2-0.5-0.3-0.8c0.6-0.6,1.2-0.1,1.8,0.1c0.1,0.7-0.6,0.3-0.8,1.1c-0.7,0.1-1.5-0.3-2.2,0.3c-0.6-0.5,0.2-1.2-0.7-1.2
		c-1.3,2.7-5.2,0.5-7.5,0.6c-0.1-0.5,0.8-1,0.4-1.5c2.2,0.4,4.3,1.2,6.5,1.1c0.4-0.7-0.8-0.7-1.1-0.1c-0.5-0.7-1.3-0.5-0.5-1.4
		c-0.6,0.1-1.2,0.3-1.8,0.3c-0.1-0.5,0.6-1-0.3-1.5c-0.6,1.1-0.8,0.7-1.7,0.5c-0.7-0.5,0.2-0.9-0.5-1.4c-1.3-0.4-2.9,0.3-3.7,1
		c0-0.3-0.4-0.7-0.1-1c0.5-0.5,0,1,0.7,0c-1.1-0.8-2.2-0.2-3.3-0.9c-0.4,0.4-0.9,0.9-1.3,1.3c-0.3-0.5-0.3-1-1-1.6
		c-0.8,1.3,0.4,1.3,0.6,2c-0.7,0.7-1.3-1.4-2-0.3c-0.8-0.8,0.8-1.5-0.3-2.3c-0.2,0.2,0.1,0.4,0.2,0.6c-1.4,0.6-2.8-0.1-4.2-0.4
		c-0.8,0.8,0.4,1.7,1,1.6c-0.7,0.3-1.4,2.1-2.1,1.2c-0.3-0.7,0.8-0.2,0.6-0.9c-0.3-0.9-0.8,0.4-1.1-0.4c-0.4,0.7,0,1-1,1.3
		c-0.4-0.4-0.4-0.8,0.1-1.1c-1-0.8-1,1.5-1.9,0.7c-0.3-0.6,1-1.1,0.3-1.7c-0.7,0.4-0.5,0.9-1,1.3c-0.3,0.1-0.5,0.1-0.7,0
		c0-0.6,1-0.6,0.8-1.5c-0.9,0-0.7-0.6-1.6-1.4c-1.7-0.8-3.5,0.1-4.8,0.1c1.1-1.3-2.9-0.9-4.1-1.6c0.1-1,1.7,0.2,2.4-0.8
		c-1.5-1-2.8,0.9-3.8-0.4c-0.2,0.2,0.2,0.5,0.3,0.8c-0.5,0.9-1,0-1.5,0.7c-1.3-2-3.2-0.3-4-1.7c-1.7,0.8-2.7-0.3-4.1,0.9
		c0.7,0.1,0.2,0.3,0.7,0.8c-2.1,1.1-2.6-1-2.6-2.6c-0.5,0.7-0.1,1.5-0.5,2.3c-0.8-0.3-1.6-0.2-2.3-0.7c-0.3-0.5,1-0.4,1.3-0.9
		c0.2,0.5-2.7-0.8-3.3-0.5c-0.4-0.2-0.4-1.2,0-0.8c0-0.9-0.7-0.1-1.1-0.1c-0.2,0.2,0.2,0.5,0.3,0.8c-1.5,0-3.7-2.4-5.8-1.4
		c-0.3-0.3-0.6-0.7-0.9-1c-0.4,0.4-0.7-0.3-1.1,0.3c-1.5-2.1-3.2-0.2-4.7-2.2c-1.7,0.9-3.3,0.1-4.9-1.2c1-0.6,1.1-1,1.9-1.4
		c-1.8,0-3.7,1.2-4.6,0c0,1.6-1.4,2.3-0.9,4.2c-0.9-0.3-1.8-0.8-2.7-1.1c0,1.7,3.3,0.8,3.2,2.8c-0.4,0.4-0.7-0.6-1.1-0.8
		c-0.2,1.2-1.5,0-2.2,1c0.1-0.6,0.3-1.3-0.6-2c0,0.9-0.5,1.1-1.4,1.7c-0.5-0.8-1.5-1.8-1.6-0.7c-0.6-0.5-0.3-1.2-1-1.2
		c-0.3-0.7,0.1-0.5,0.6-0.9c-0.8-0.2-1.6-0.4-2.4,0.1c-0.6-0.7,0.7-1.2,0.1-1.9c-0.3,0.3-0.7,1.8-1.3,0.9c-0.1,0.4-0.6,0.9,0.1,1.3
		c-1.1,0.4-0.9,0.2-1.3,1.3c-0.4,0.6-0.7-1.1-1.1-0.4c-0.9,0.7,0.4,0.8,0.7,1.2c-0.5,0.1-1-0.4-1.5-0.1c-0.3-0.5,0.8-1,0.1-1.5
		c-0.3,0.8-1.3,0.3-0.9-0.2c-1.2,1.4-3,0.6-4.5-0.8c-0.1,0.4-0.5,0.9-0.6,1.3c0.8,0.4,0.4,0.4,1,1.2c0.5-0.3,0.1-0.6-0.1-1
		c1.5-0.2,3,1,4.5,1.6c-1.3,0.6-2.5-1-3.8-0.4c0.7,0.3,1.3,0.5,2,1.1C59.6,15,59,14,58.2,15.3c-0.4-0.5,0.3-1-0.3-1.5
		c-0.3,0.3-0.6,0.1-0.9,0.5c-0.5-0.3-0.1-0.6,0.2-0.9c-0.3-0.4-0.7,0.2-1.1-0.4c-0.2,1.1-1.4,0.4-1.5,1.5c-1-0.7,0.1-1.3-0.6-1.9
		c-0.8,0.6-2.4-0.2-2.5-0.9c-1.2,0.6-1.1-0.6-2.2-0.1c-0.4-0.7,0.6-0.2,0.8-0.7c-1-0.9-2.1-0.1-3.1-0.7c-0.4,0.6-0.5,0.8-0.6,1.7
		c-0.6-0.2-1.8,0.1-1.9,1.1c-0.8-0.4,0.5-0.7-0.3-1.2c-0.5-0.3-1.1,0.4-1.6-0.3c-0.7,0.5-0.3,0.9-1,0.9c-0.6-0.7,0.9-1.2,0.8-1.9
		c0.5-0.5,0.8,1.3,1.3,0.3c-0.1-0.9-1.6-0.9-2.4-0.3C40.5,9.7,41,9.4,40.5,9c-0.9,0.6-2.9,1.3-3.1,0.4C37,9.2,37,9.7,37.1,10
		c-0.7,0.1-1.4,0.3-2-0.7c-0.5,0.7-0.9,0.2-1.3,0.9c0.8-0.6,1.5,1.4,2.4,0.3c0.5,1-0.3,1.3,1,2c-1.1,1.2-1.4-0.2-1.6-0.3
		c-0.8,0.9,0.7,0.7,0.7,1.6c0.4-0.6,0.8-0.6,1.1,0.1c0.5-0.7,0.9-0.2,1-0.9c-0.6-0.5-1.1,0-0.9-1c0.4-0.3,0.8,0.8,1.3,0.3
		c0.3,0.8-0.5,1,0.5,1.4c-0.3-1.3,0.8,0.1,1.5,0.1c0.1,0.2-0.1,1.3-0.6,0.9c0.5,0,1.6,1.3,2.5,0.9c0.6,1.7,1.8,0.7,2.3,2.2
		c1-0.3,0.9-1.1,1.9-1.1c0.2,0.3-0.3,0.6-0.6,0.9c0.7,1.3,1.6,0.6,2.3,1.1c0.3-0.5,0.1-0.7-0.3-0.8c0.5-0.9,1.3,0.1,1.3-0.9
		c0.1,0.2,0.2,1.2,0.7,0.8c0.3,0.7-0.1,0.5-0.6,0.9c0.9,0.7,2-0.1,2.9,1.3c0.4-2,1.3,1,2.2-0.7c-0.2,1.2,0.8,0.5,0.9,1.4
		c-0.7,0.1-1.4,0.3-2-0.7c-0.7,1.6-2.3,0.2-3.4-0.8c-0.1,0.6-0.2,1.1-1,1.7c1.8-1.7,5.1,3,7-0.4c1.2,0.2,2.3,0,3.4,0.8
		c0.3-0.5,0.1-0.7-0.3-0.8c0.4-0.4,0.8-0.7,1.2-1.1c0.4-0.1,0.7,0.1,1.1,0.4c-0.6,0.6-1.1-0.1-1.7,0.9c0.5,0.5,1.1,0.5,1.6,1
		c0.3-0.2,0.5-0.5,0.8-0.7c0.3,0,0.6,0.1,0.9,0.2c0.4,0.5-0.1,0.9-0.6,1.3c1.4,0.4,0.8-1.8,2.2-1c0.2-0.3,0.2-0.6-0.1-1
		c0.4-0.3,0.8-0.5,1.1-0.3c-0.8,1.6,2,2.2,3,3c-1.1,0.4-3.7-0.9-3.7,0.6c-1.1,0-2.2-0.7-3.3-0.6c-0.2,1.1,1.3,0.4,1.8,0.9
		c-0.9,0.5-0.9,0-1.5,1.1c-0.4-1.7-1.1-0.2-1.4-2c-0.9,0.7-0.6,1.4-0.3,2.1c-0.7,0.3-0.7-0.9-1-1.2c-0.4,0.4-0.9,0.2-1.3,0.9
		c-0.7-0.4-0.2-0.8-0.7-1.2c-0.9,0.9-0.5,0-1.3-0.3c-0.9,0.6-1.7,0-2.6,0.6c-0.7-0.5,0.1-0.9-0.1-1.3c0.9-0.3,2.5,0.7,2.4-0.8
		c-0.5-0.1-1,0.6-1.5,0.7c0-0.3-0.1-0.5-0.3-0.8c-0.8,0.8-1,0.9-1.7,0.1c-1.1,0.7,0.1,1.4-1,2.1c-0.2,0.1-0.4,0-0.6,0.2
		c-0.6-0.5,0-1,0.1-1.5c-0.4-0.9-1-0.1-1.4-0.8c-0.4,0.2-0.2,0.5,0,0.8c-1.1,0.4-2.1-1.4-3.3,0.2c-2-0.8-3.5,0-5.1-1.4
		c-0.7,0.9-1.2,0.2-1.8,0.3c-0.3,0.9,0,1.1-0.6,1.7c0.8,0.9,0.8,0.6,1.4,1.6c0.4-0.9,0.1-0.7,0.8-1.5c0.8-0.2,1.6,0.5,2.4-0.5
		c0.4,0.7-0.8,1.4-1,2.1c0.4,0.5,1.8-0.1,1.6,1c1.2,0.4,2.5-1,3.6,0.6c-0.8,0.6-1.5,0.2-2.2,0.7c0.5,0.2,1,0,1.4,0.8
		c0.2-0.8,0.4-0.8,0.7,0c1.5-1.3,2.8,0.8,4.2,0.4c0.7,0.4-0.1,0.8-0.4,1.1c0.5,0.7,1,0,1.4,0.5c-0.3-0.7-0.3-1.4-1.2-2.2
		c0-0.3,0.1-0.6,0.2-0.9c0.4,0,0.9,0.2,1.3,0.3c0.2,0.4-0.5,0.7,0.3,1.2c0.5-0.3,0.4-0.6,0.6-0.9c0.2-0.1,0.5,0.3,0.7,0
		c0.4,0.8-0.4,0.4-0.4,1.1c-0.6,0.5-1.1-0.7-1.7,0.1c5.6,1.1,11.3,1.3,16.9,3c0.4-1.6,2.2-0.7,2.5,0.5c0.4-0.8-0.1-1.7,0.3-2.5
		c1.1-0.3,0.9,1.2,2,0.7c0.2,0.3-0.2,0.5-0.4,0.7c0.9,0.3,1.9-0.6,2.8,0c-1.2,2,2.1,1.3,3.5,2.9c0.8-0.3,0-0.8-0.3-1.2
		c1.5,0.2,0.8,0.3,2.2,0.9c0.2-0.3-0.5-0.7-0.1-1c0.4-0.1,0.7,0.1,1.1,0.4c0.1-0.4,0.3-0.8,0.8-1.1c0.8-0.6,0.5,1,1.5,0.1
		c0.3,0.4,0.1,0.8-0.4,1.1c2.2,0.7,1.8,1.2,4.5,0.8c0.1,0.3,0.1,0.6-0.2,0.9c1.8-1,3.4,0.1,5.2-0.5c0.1,0.3,0.1,0.5,0,0.8
		c0.7,0.1,1.4-0.5,2.1-1.2c0.6,0.4,0.5,0.8-0.1,1.1c2.2-0.3,4.3,1.9,6.6-0.1c0.7,0.5-0.2,0.9,0.5,1.4c-0.4,0.4-0.7-0.3-1.1,0.3
		c1.7-0.2,3.9-1.3,6.1-0.3c0.3-0.8-1.4-0.7-0.3-1.5c0.9,0.8,1.7,1.5,2.5,1.3c0.6-1.2-0.8-0.1-1.3-0.6c0.7-0.8,1.4-0.3,2-0.5
		c0,0.6-0.2,1.3-0.5,1.9c1.9-0.2,3.3-1.5,5.3-0.7c0.1,0.3-0.3,0.5,0,0.8c0.3,0.4,0.6,0.2,0.9,0.6c0.7-0.7,0.4-0.7,1.2-1.1
		c0,0.4,0.2,0.8,0.7,1.2c0.9-0.4,1.8-0.1,2.8-0.1c0.4,0.5-0.6,0.6-0.8,0.3c0.6,1.2,2.3-0.1,2.8-1.2c0.9,0.6,0.1,1-0.4,1.5
		c1.3,0.1,2.6-1.5,3.9-0.8c0.4,0.3-0.6,1.1-0.8,0.3c0.2,0.8,0.9,1.2,1.8,1.2c-0.3,0-1.1,0.2-0.4,0.7c-0.4,0.2-0.7-0.5-1.1,0.3
		c0.6,0.7,1.2,0,1.8,0.5c-0.2-0.5,0.3-1.5,1-0.9c0.2-0.4-0.3-0.2-0.5-0.6c0.8-0.3,1.5-0.4,2.3-1.4c0.8,0.6-0.4,1,0.3,1.6
		c0.6-0.6,1.5-0.6,1.5-1.5c1.5,0.3,3.3,0.9,4.4,0.6c0-0.4-0.2-0.9,0.6-1.3c0.5,1.1-0.5,1.6,1,2c-0.5,0.8-1,0.2-1.5,0.3
		c0,1,1.7-0.1,2.4,0.3c0.1-0.3-0.2-0.6,0.2-1c0.6,0.4,1,0.2,1.4,1.2c0.7-0.4,0.3-0.9,1-1.3c0.5-0.1,1,1.7,2,0.3
		c0.5,0.4,0,0.8,0.7,1.2c-0.5,0.5-0.9,0.3-1.3,0.1c2.7,2,7.1,0.4,10.4,1.1c0,0.5-0.3,1-0.8,1.5c0.7,0.3,1.4-0.3,2,0.3
		c0.5-0.4,0.3-0.9,0.2-1.3c1.6,0,4.5,2,6.3-0.4c0.5,0.9-0.7,0.6-0.6,1.3c1.2,0.1,1.4,0.1,2.4,0.3c0.2-0.3,0-0.6,0.2-0.9
		c1.2-0.3,3.1,2,3.8,0.4c0.4,0.5,0.2,0.9,0.9,1.4c0.6-0.2,1.2-1.1,1.7-0.1c0.9-2,3.1,0.6,4.6-0.7c-0.2,0.4,0.6,0.8,0.3,1.2
		c0.9-0.4,1.9-1,2.7,0.3c0.4-0.5,0.8-0.7,1.1-0.7c0,0.3,0.1,0.5,0.3,0.8c0.2-0.6,1.2-0.6,0.7,0c0.6-0.5,1.5-0.3,2.6,0.1
		c-0.2-0.8,0.3-0.9,1-0.9c0.2,0.3-0.2,0.5-0.4,0.7c0.9,0.3,1.8,0,2.7,0.3c-0.8,0.9-0.9-0.2-1.3,0.9c0.5,0.2,1.1,0.5,1.6,0.3
		c0.2,0.3-0.3,0.6-0.6,0.9c-0.7,0-1.3-1.3-2-0.3c0.8-0.2,0.4,1.3,1.2,1c0.2,0.9-0.5,0.9-1.2,1.1c-0.3-0.5,0.2-0.9,0.2-1.3
		c-0.7-0.6-1,0.4-1.3,0.9c-0.6,0-1.2,0.3-1.8-0.5c1.3,0.3,1.1-1.2,2.1-0.9c0.4-0.7-1.2-0.4,0.1-1.1c0.7-0.6-0.2,1.2,0.5,0.6
		c1-0.8,0.1-0.4-0.3-1.2c0.2-0.1,0.5-0.1,0.7,0c-0.8-0.7-3.2,0.3-4.6-0.4c0.3,1.1-0.7,0.2-0.8,1.1c0.9,0,1.7-0.1,2.6-0.6
		c0.3,2.6-2.6,1.6-3.6,2.3c-1.3-1,0-1.9-0.8-2.9c-0.1,1.3-1.2-0.4-1.9,0.7c0.6-0.2,2.2,0.4,1.6,1.4c-1-1.3-1,0.6-2.4-0.3
		c-0.7-0.6,0.3-1.1-0.5-1.8c-0.3,0.3-0.6,0.6-1,0.9c0.3,0.3,0.5,0.5,0.3,0.8c-1.8,0.9-3.4,0.4-5.2,0.9c0.5,0.9,1.1,0.3,1.6,0.7
		c-1.1,0.6-2.9,1-3.3-0.6c0.5,0.2,1,0,1.5-0.7c0.2-0.7-0.9-0.3-0.5-1c-1.2,0.1-2.2,1.6-2.9-0.2c-0.5,0.8-0.9,0.3-1.3,0.1
		c0,0.3-0.4,0.6-0.2,0.9c-1.3-0.7-3.7,0.5-4.4-1c-0.8,0-1.6,0.3-2.4,0.5c0-0.3,0.1-0.6,0.2-0.9c-0.7-0.4-0.5,0.7-1,0.9
		c-0.7-0.7-0.3-1.3,0.1-1.9c-0.8-0.4-1.9,0-2.1-1.3c-0.3,0.8,0.4,1.6-0.5,2.3c1.1,0.6,0.5-1.7,1.9-0.7c0.2,0.8-0.1,1.2-0.8,1.5
		c-1.4,0.3-2.7-1.6-4.2-1.2c-0.5-1.1,0.6-0.6,1.2-1.1c-0.6-0.6-1.2,0-1.8,0.3c0,0.3,0.1,0.5,0.3,0.8c-0.5,0.2-0.7-0.5-0.8,0.3
		c-1-0.8-2.1,1.1-3.1-0.7c-0.2,0.9-1.7,0.9-1.8-0.1c-0.7,1.6-2.4,1.5-3.5,0.8c-0.4,0.2-0.2,0.5-0.4,0.7c-0.9-0.7-2-0.2-1.9-1.4
		c-0.4,0.4-0.9,0.8-1.3,1.3c-1.2-0.7,0.4-1.3-0.3-1.9c-0.8,0.8-1.6,0.5-2.4,0.1c-0.1,0.6-0.9,1.2-1.2,1.9c-0.5-0.8,0.9-1.5,0.1-2.3
		c-0.1,1.9-2.4,1.6-3.5,0.8c-1,0.3-0.9,1.5-1.9,1.1c0.1-0.7,0.8-1.4-0.3-1.2c-0.2-0.6,0.4-1.1,1-1.7c-0.1-0.2-0.2-0.1-0.4,0
		c-0.1-0.1-0.2-0.3-0.3-0.4c-0.6,0.5-0.2,1-0.8,1.5c-1,0.5-0.8-1-1.8-1.6c-0.7,0.7-1.3-0.4-2,0.1c0.7,1.1,1.4,0.9,2.2,0.5
		c0,0.4,0.4,0.9,0.9,1.4c-0.8-0.2-0.7,0.6-1.6-0.3c-0.8,0.3,0.4,0.8-0.4,1.1c-0.8-1-2.5-0.8-3.8-1.2c-0.2,0.5,1.1,0.7,1.4,0.5
		c0.2,1.5-1.6,1.2-2.4,0.8c-0.5-0.9,1.3,0,0.8-0.7c-0.9-1-0.8,0.6-1.7,0.1c1.1-1.8-2.8,0.1-4-1.7c-0.5,0.8-1.8,1.1-2.8,2
		c0.2-1.7-2.9-0.3-3.3,0.2c-0.3-0.3-0.5-0.5-0.3-0.8c-0.3,0.6-1.1-0.1-1.9,0.7c-0.5-1.4-1.3-0.1-2.6,0.3c-0.2-0.5,0.2-0.9-0.5-1.4
		c-2.3,0.9-3.5-0.1-5.9,0.5c-0.2-0.5,0.2-0.9-0.5-1C95.8,45,94.6,44,94.1,43c0.3,1.2-0.9,2-1.9,1.4c-0.3-1,1.2,0.1,1-0.9
		c-0.3-0.4-0.6-0.2-0.9-0.6c-0.3,0.5,0.1,1-0.6,0.9c-0.2-0.3,0.5-0.6,0.2-0.9c-1.1-0.6-1.5,0-1.5,0.7c-0.9,0.3,0.1-1.2-0.9-1
		c0.1,0.9-0.7,1.2-1.5,1.5c-0.3-1.2-0.6-0.1-1.2-1c0,0.8-1,0.7-1.5,0.3c0-0.5,0.4-0.2,0.2-0.9c-0.3,1.2-3.1-0.3-2.8,1.6
		c-0.6-0.6-1.4,1.1-2,0.5c-0.5-0.9,0.6-0.6,1.2-1.5c-0.7-0.3-1.3,0-2-0.3c-0.4,2.4-2.8,1.1-3.6,1.5c0.1-0.7,1-1,1.3-1.3
		c0.4,0.3,0.2,0.5,0,0.8c0.8,0.5,0.6-0.5,1.5-0.7c-1.2-0.3-1.5-0.1-2.5-1.7c-0.8,0.4,0.1,0.9-0.2,1.3c-1-1.5-5.4-0.2-6.9-0.7
		c-0.2,0.1-1.5,0.7-1,1.3c-1,0.8-1.8-0.9-1.9,0.7c-0.5-0.5,0.1-1,0.1-1.5c0.3-0.2,0.6,0.4,0.9,0.6c0.6-0.7-0.4-1.2,0.8-1.5
		c-0.9-0.1-1.1,0.5-2.2,1c0-0.3-0.1-0.5-0.3-0.8c-0.6,0.6,0.4,0.5,0.1,1.3c-0.6,0.3-1.1-0.4-1.7,0.5c2.8,1.1,5.6,1.3,8.4,1.6
		c0.8,0.4-0.5,0.7,0.3,1.2c0.7,0,0.5-0.4,1-0.9c0.7,0.8-0.5,1.5-1.2,2.2c-1.6-0.1-3.2-1.9-5.3-0.8c-0.5,0-1.1-0.8-1.6-0.7
		c0.5,0.9,0.3,0.8-0.7,0.3c-0.7,0.4,0,0.8-0.4,1.1c-1.3-1.5-1.7-0.4-2.9-0.5c-0.5-0.4,0-0.8-0.7-1.2c0,0.8-0.6,1.4-1.3,0.9
		c-0.5-0.4,1-0.7,0.1-1.1c-0.3,0.4-0.5,0.2-0.7,0c0,0.3-0.2,0.6-0.6,0.9c-1.6-0.5-2.3-0.7-3.6-1.7c-0.4,1.6-1.2-0.5-2,0.5
		c-0.3-0.7,0.7-0.2,1-0.9c-0.7,0-1.4,0.2-2-0.3c-0.4,0.2-0.8,1.2-1.1,0.7c0.2,1,0,0.9-1,1.7c1.4-0.1,1.9,1.1,3.1,0.3
		c0.6,0.9-0.5,0.7,0.1,1.4c0.8-0.5,0.8-1.1,0.6-1.7c0.4-0.3,0.9,0,1.3-0.5c0,1.3,1.2,0.7,1.8,0.5c0.4,0.9-0.8,0.7-1,1.7
		c0.7,0.2,0.7-0.1,1.1-0.7c0.2,0.3,0.7,1.1,1.8,1.2c0-0.5,0.7-1,1.2-1.5c0.2,0.7-0.1,1.3,0.6,2c0.5-0.5,1,0.1,1.5,0.1
		c-0.2,0.4,0.2,0.9,0.1,1.3c2-0.3,3.9,0.2,5.8,0.7c1.2-1.2,2.2,0.6,3.3-0.2c1.8,2.1,4.7-0.9,6,1.6c0.4-0.7,0.7-0.2,1.1-0.7
		c0.5,0.8,0.9,0.8,1.4,1.2c-0.8,0.4-1.3-0.4-1.7,0.9c0.4-1-0.4-0.5-1.1-0.8C76.3,54,77,53.8,77.4,54c-0.9,0.9-1.7,0.3-2.6,0.3
		c-0.3-0.4,0.9-0.6,1.1-0.3c-0.3-1-2.2-0.1-3.1-0.4c0.4,0.8,0.9-0.1,1.3,0.6c-1.7-0.3-2.3,0.6-3.9,0.8c-0.5-0.5,1.2-0.8,0.2-1.3
		c-0.3,0.2-0.5,0.5-0.8,0.7c-1.6-0.9-3.5-0.3-4.6,0.3c1.1-1-0.7-0.8-1.6-1c-0.1,0.5-0.6,0.9,0.1,1c-1.3,1.4-1.4-0.8-2.6,0.3
		c-0.5-0.6-0.2-1.2-0.1-1.7c-0.5-0.3-1.3,0.9-1.3,1.3c-0.8,0.4-2.1-1.4-2.4,0.1c-0.3,0-1.5-0.6-1.2-1c-0.7,0.9-2.8,1-4.4,0.2
		c1-0.4,0.9-0.2,1.7-1.3c-0.6-0.5-1.2-0.8-1.8-1.2c-0.5,0.2,0.5,1.4-0.2,0.9c-0.4,1,0.8,0,1.1,0.1c0.1,1.3-2.1,2-3,0.6
		c-1.2-0.1-2.5,2.3-3.7,1c-0.3,0.2-0.5,0.5-0.8,0.7c-0.6-0.4,0.1-0.8,0.1-1.1c-0.7-0.4-1.5,1.1-2.2,0.3c-0.3-0.7,0.7-0.5,1-0.9
		c-2.1,0.4-4,1.1-5.3-0.5c-0.6,0-1.2-0.2-1.9,0.7c0.4,0.3,0.5,0.7,0.1,1c-0.7-1-2.7,0.2-4-1c0.4-0.5,0.9-0.9,1.3-0.5
		c-0.3-0.7-2.3-0.8-3.3-0.9c-0.9,0.9,0.6,0,0.9,1c-0.6,0.6-1.2,0-1.9,0.7c0.1,0.3,0.1,0.6-0.2,0.9c0.5,0.6,0.7,0.1,0.7,0.8
		c-0.2,0-0.5,0.1-0.7,0.3c-0.9-1.5-1.2-1.1-2.3-1.8c0.7-0.9,1.2,0.6,1.8-0.3c-0.4-0.7-0.8-0.3-1.2-1c0.3,0.8-1.4,1.3-2.1,1.2
		c-0.2-0.3,0.2-0.5,0.4-0.7c-0.4-0.9-1-0.1-1.4-0.8c-0.3,0.4,0.5,0.8,0.3,1.2c-1.3,0.6-2.5-0.4-3.8,0c0,1,0.9-0.1,1.4,0.5
		c0.1,0.2,0,0.4,0.2,0.6c-0.9-0.4-1.2,0.3-2.2,0.7c0,1.1,0.9,0.8,1.3-0.1c0.8,0.6-0.9,1.1,0.3,1.2C21.6,56.2,20.3,56.3,21.2,57.3z
		 M90.4,70.2c0.7-0.8,1.3,0.1,2,0.3C91.7,71.1,91.1,70.7,90.4,70.2z M146.1,79.9c-0.6,0.8-1.8,0.1-1,1.3c-1.1,0.5-2.1,0.1-3.1-0.4
		c0.5-0.8,0.6-0.2,1.2-1.5c0.3,0.3,0.6,0.8,0.9,0.6c0.3-0.2-0.1-0.5,0-0.8C144.7,79.6,145.5,78.6,146.1,79.9z M562.3,32.2
		c0.7-0.6,0.5-1.3,1.3-0.5C563.6,32.3,562.8,32.9,562.3,32.2z M561.8,11.5c1.2-0.4,1.3-0.6,2.3-1.8c0.4,0.9,0.8,0.4,1.3-0.1
		c0.6,0.8,0.7,0.9,1,2c1-0.7,0.3-1.5,0.1-2.3c1.5,0.5,1.3,2.3,0.4,3.3c-1.2-1.5-2.6,1.1-3.9,0.4c-0.6-0.9,0.7-0.4,0.4-1.1
		C562.9,12.2,561.8,12.2,561.8,11.5z M448.3,17.6c-0.7,0.7-1.3-0.2-2,0.1C447,17,447.6,17.1,448.3,17.6z M390.6,19.3
		c-0.3-0.7-1.5-0.6-1.2-1.4C389.9,18.8,391.2,18.1,390.6,19.3z M347.1,17.5c0.5,0.2,1-0.5,1.4,0.5C348.1,18.5,346.8,18.2,347.1,17.5
		z M91.8,5.3c-0.8,0-1.6,0-2.3-0.7C90.1,4.7,91.8,4.3,91.8,5.3z M106.8,18.5c-0.1,0.9-3.3,0.5-2.7-0.7
		C104.9,18.8,105.9,17.4,106.8,18.5z M42.5,12.5c0.2-0.3,0.1-0.6,0.6-0.9c0.3,0.4,0.6,0.2,0.9,0.6C43.5,12.8,43,13.2,42.5,12.5z
		 M126.6,46.1c-1.7,0-2.4-0.1-3.8-0.4C124,45.2,125.3,45.4,126.6,46.1z M91.3,44.5c-0.6-0.1-2.1,0.1-2-0.7
		C89.8,43.9,91.4,43.6,91.3,44.5z M73.2,42.3c0,0.3-0.7,1.6-1.1,0.7C71.8,42.5,73,41.8,73.2,42.3z M27.6,54.5
		c-0.4-0.3-0.2,0.3-0.6,0.5c-0.5-1.2-1.1,0.6-1.6-0.7C26,53.4,27.6,53.9,27.6,54.5z M53.1,60.6c-0.5,0-1,0.6-1.5-0.1
		C52.5,59.6,53,60.6,53.1,60.6z M78.1,68c-0.1,0.7-1.2,0.7-1.8-0.1C76.9,67.2,77.5,67.7,78.1,68z M83.4,68.5c-0.6,0.4-2.2,0-2.2-0.9
		C81.9,68.2,82.7,67.4,83.4,68.5z M47.4,27c1.2,0.2,2.5-0.3,3.7,0.2C49.8,28.1,47.9,27.7,47.4,27z M98.9,82.3
		c-0.1,0.9-1.4,0.8-2,0.1C97.6,81.4,98.2,81.8,98.9,82.3z M75.4,55.2c-0.6-0.1-1.2,0.5-1.8-0.1C74.1,54.6,75.5,54.3,75.4,55.2z
		 M47.5,23.5c-0.2-0.6-1.4,0.2-1.1-0.8C46.9,22.9,48.1,22.4,47.5,23.5z M48.8,23c0.3,1.1,0.6,0.3,1.3,0.6c-0.3,0.3,0.4,0.7,0.1,1
		c-0.9-0.1-0.6-0.8-1.5-0.1c-0.2-0.2-0.3-0.4-0.5-0.6C48.4,23.6,48.3,23.3,48.8,23z M52.2,25.7c-0.6,0.1-1.3,0.7-1.8-0.1
		C51,24.7,51.6,25,52.2,25.7z M74.7,46c0.4-0.3,0.8-0.5,1.1-0.3c-0.8,0.6-0.4,2.4-1.6,1.8C74,46.6,75.3,46.7,74.7,46z M57.9,25.4
		c-0.3,0.2-0.5,0.5-0.8,0.7c-0.2-0.2-0.3-0.4-0.5-0.6C57,24.8,57.5,25.3,57.9,25.4z M47.3,13.2c-0.2-1.3-0.7,0.1-1.4-0.5
		C45.8,11.5,48.5,12.1,47.3,13.2z M78.7,45.8c1.2,0.9,2.7-0.9,3.3,0.9c0.1-1.1,1.4-1.1,2-0.5c-1.8,0.2-1.5,1.5-3.2,2.3
		c-0.6-1.6-0.7,0.1-1-1.2c-0.9,0.2-2.9,1-3.1,0c0.2,0.1,1.2,0,0.8-0.3c-0.6,0.2-1.2,0.1-1.8-0.5c0.5-0.7,1-0.2,1.4,0.5
		C77.6,46.5,78.7,46.9,78.7,45.8z M97.8,69.8c-0.1,1-1.1,0.7-1.7,0.5C96.2,69.5,97.2,69.3,97.8,69.8z M74.8,42.9
		c0.2,0.3,0.5,0.5,0.7,0.8c-0.4,0.5-0.8,0.6-1.1,0.3C75.3,43.7,74,43.3,74.8,42.9z M53.6,15.2c-0.6,0.8-1.1-0.9-1.7,0.1
		c-0.6-0.6,0.1-1.4-0.9-1.4C52.4,12.6,52.5,15,53.6,15.2z M63.9,26.7c-0.6,0.6-1.2,1.3-1.7,0.5C62.7,27.1,63.4,25.9,63.9,26.7z
		 M56.9,19c-0.6-1.1,1.3-2.4,2.1-1.6c0,0.7-0.6,1.2-1,1.3C58,17.7,57.3,18.3,56.9,19z M89.9,49.5c0-1-0.7-0.4-1.1,0.3
		c-0.5-0.1-0.7-0.3-0.7-0.8c-1.3,0.9-2.5-0.6-3.9,0.4c-0.6-0.5,0.1-1.7-0.9-0.6c-0.6-0.6-0.6-2.1,0.4-1.5c-0.2,0.2-0.4,0.5,0,0.8
		c0.2-2.2,2.3-1.4,3.6-1.9c0.3,0.3,0.6,0.7,0.9,1c0.7-0.1,1.5-1.1,2.2-0.3c-0.4,1.2-2.1,1.3-3,1c0.2,0.3-0.1,0.3-0.4,0.4
		c0.6,0.1,1.2,0.9,1.8,0.9c1-1,1.9-1.8,2.8-0.8C90.2,48.1,90.5,49,89.9,49.5z M65.2,26.2c0.3-0.4-0.4-0.8,0.1-1.1
		c0.3,0.9,0.8-0.4,1.1,0.4c-0.6,0.6-0.5,1.3-1.2,1.9c-0.2-0.2-0.4-0.4-0.5-0.6C64.8,26.5,65,26.3,65.2,26.2z M117.3,84.6
		c0.2,0.6-1,1.3-1.3,0.5C116.4,84.8,116.9,83.7,117.3,84.6z M109.1,71.5c-0.5,1.3-2.4-0.5-1.6-0.3C108,71.5,108.6,70.8,109.1,71.5z
		 M63.5,19c-0.3,0.2-0.5,0.5-0.8,0.7c-0.2-0.3-0.5-0.5-0.3-0.8C62.8,19.2,62.8,18,63.5,19z M70.2,23.5c-0.4,0.3-0.3,0.6,0.1,1
		c-0.3,0.3-0.6,0.6-1,0.9c-0.5-0.2-1.1-0.7-1.6-1C68.6,24.3,69.4,23.8,70.2,23.5z M63.9,18.6c0.4-0.6,0.3-1.1,0.3-1.7
		c0.3,0.4,0.7-0.2,1.1,0.4c-1.5,1.3,1.3,0.7,0.8,1.8c-0.7-0.6-2.5,0.6-2.5-0.9C63.6,18.3,63.8,18.5,63.9,18.6z M73.4,26.4
		c-0.2-1.4-1.2-0.1-2-0.7C72,24,74,24.9,73.4,26.4z M74.9,26.8c0.7,0.2,0.2,1.2,0.7,0.8c0.3-0.4-0.1-0.9,0.2-1.3
		c0.2,0.3,0.5,0.5,0.7,0.8c-0.3,0.3-0.7,0.6-0.2,0.9c-0.4,0.5-0.9,0.9-1.3,0.5c0.2-0.2,0.4-0.5,0-0.8c-0.7,0.4-0.3,0.8-0.8,1.1
		C73.4,28.2,74.6,27.5,74.9,26.8z M79.7,32.1c-0.8,0.8-1.6,0.7-2.4-0.3C78.2,31.2,79,31.5,79.7,32.1z M66.6,18.6
		c0.9-0.4,1.8,0.8,2.7,0.3c-0.8,0.8-1.3,0.6-2.4,0.5C67.1,19.1,66.9,18.8,66.6,18.6z M94.6,47.6c-0.3,0.2-0.5,0.5-0.8,0.7
		c-0.4-0.8-0.9-0.9-1.5-0.1c-0.2-0.2-0.3-0.4-0.5-0.6C92.8,47,93.7,47.5,94.6,47.6z M70.6,20.3c-0.5-0.4-1.1-0.1-1.6-0.7
		C69.4,19,70.8,19.4,70.6,20.3z M118.2,73.1c-1,0.5-1.9-0.4-2.9-0.1C115.6,71.7,117.3,72.7,118.2,73.1z M66.8,14.7
		c-0.1-0.5,0.4-0.9,0.6-1.3c0.5-0.1,1-0.1,1.5,0.1c0.2,0.6-0.1,1.1-0.3,1.7c0.9-1.3,1.7-0.9,2.6-1c0.7,1.4,1.4,1.2,2.7,1.9
		c-0.6,1-2.5,0.1-3.7-0.2c0.3,0.3,0.3,0.7,0.1,1c-1.1-0.1-1.4-0.4-0.9-1c-0.9,0.2-3.5,0.7-4.2-1.2C66.2,15.2,66,14.5,66.8,14.7z
		 M76.1,24.2c-0.3,1-0.7,1.5-1.7,0.9C75.6,25.2,74.9,24,76.1,24.2z M69.3,17.2c0.4,0.3,0.9,0.1,1.3,0.6C70,18.5,68.7,18,69.3,17.2z
		 M97.2,47.7c0.3,0.2,0.6,0.2,0.9-0.1c0.3,0.3,0.6,0.7,0.9,1c1.3-0.9,1.5,0,3-0.6c-0.4,0.4,0.2,0.8-0.4,1.1
		c-0.7-0.8-1.4-0.4-2.2-0.1c0.3,0.7,0.3,1.3-0.5,1.9c-0.5-0.3-1.1-0.4-1.6-1c0.6-0.6,1.1-0.1,1.7-0.9C98.7,48.2,97.3,48.5,97.2,47.7
		z M97.7,48.7c-0.6,0.6-1.2,0.3-1.8-0.5C96.5,47.8,97.1,48.5,97.7,48.7z M73.9,18.9c0.8,0.4-0.5,0.7,0.3,1.2c-0.5,0.4-1,0.4-1.5-0.1
		C72.8,19.5,73.5,18.9,73.9,18.9z M125.8,78.7c-0.5,0.4-1,0.9-1.5,0.3C124.8,78.3,125.3,78.5,125.8,78.7z M72.9,17.3
		c0.4,0.3,0.2,0.6,0.5,1c-0.4,0.5-0.9,0.3-1.3-0.3C72.4,17.8,72.7,17.6,72.9,17.3z M88.5,32.5c0.3,0.3,0.5,0.7,0.5,1
		c-0.8,0.2-1.6,0.6-2.4-0.3C87.3,32.3,87.9,33.4,88.5,32.5z M75.9,19.2c0.9,0.8,2-0.2,2.9,0.5c-1-0.2-2,1.1-2.9,0.2
		C76.2,19.7,75.8,19.5,75.9,19.2z M80.1,23.7c0.3-0.2,0.5-0.5,0.8-0.7c0.2,0.5,0.6,0.9,0.5,1.4C81,23.5,80.5,24.4,80.1,23.7z
		 M75.1,17.1c0.3-0.5-1.2-1.1-0.3-1.6c0.9,0,0,0.8,0.9,1.4c-0.3,0.3-0.6,0.6-1,0.9c-0.2-0.5-1.3-0.3-0.9-1
		C74.3,16.6,74.7,17.1,75.1,17.1z M103.9,49c-0.8-0.5-0.7,0.8-1.7,0.1C102.7,48.4,104.1,48,103.9,49z M85,24.5
		c-0.7,0.1-1.4,0.4-2,0.1C83.7,23.7,84.4,24.3,85,24.5z M133.6,80.1c-0.4,0.3-0.9,0.7-1.3,0.1C132.3,79.4,133.1,79.2,133.6,80.1z
		 M90.4,28.6c-0.7-0.3-1.3,0.1-2-0.7C89,27.2,90.4,27.9,90.4,28.6z M107.9,49.2c0.9-0.1,1.7,0.3,2.5,0.5
		C109.6,50.5,107.5,50.6,107.9,49.2z M82.5,12.7c-0.8,0.7,0.1,0.2,0.3,0.8c-0.5,0.8-0.8-0.4-1.3,0.1c0.6,1.1,1.2,0.7,1.8,1.2
		c0.1,0.3,0.8,1.7-0.2,1.3c0.4-0.7-0.7-0.3-0.9-1c-0.8,1.1-1.5-0.3-2.2,0.3c-0.5-1-0.9-1.2-1.8-1.2c-0.3,0.3,0.4,0.7,0.1,1
		c-1.6-1.1-0.6-1.9,0.2-3.4c0.4,0.3,0.1,0.6,0.1,1c0.3-0.3,0.6,0.4,0.9,0.2c-0.3-0.3-0.5-0.7-0.5-1c0.7-0.6,1.2,0.1,1-0.9
		c0.4,0,0.9-0.2,1.3,0.6c-0.3,0.4-0.7,0.2-0.6,0.5C81.3,12.2,81.9,12.4,82.5,12.7z M87.7,19.4c0-0.7,0.6-0.4,1.1-0.7
		c0.3,1.2,1.3,0.4,2.2,0.9c-0.9,1.1,0.8,0,1,1.2c-0.8,0.4-1.6-0.5-2.4-0.3c-1.5,1-1.2,3.3-2.7,2.6C88,22.4,89.4,20.2,87.7,19.4z
		 M139.9,79.2c0.1,0.5-1,0.8-0.2,1.3c1-0.5,0.6-1.1,1-1.7c0.3,0.4,0.6,0.2,0.9,0.6c-0.6,1.4-1.4,1.7-2,3c-1.3-1.5-1.5-1.4-2.8-2.1
		C137.5,79.8,138.6,79,139.9,79.2z M112.3,49.4c-0.3,0.8-0.9,0.9-1.7,0.5C111.2,49.6,111.7,49.6,112.3,49.4z M78.4,10.3
		c-0.3,0.4,0.4,0.8-0.1,1.1C77.4,11.7,77.5,10,78.4,10.3z M91,22.1c-0.5,0.5-1,1-1.5,1.5c-0.2-0.2-0.5,0-0.7-0.4
		C88.6,22.3,90.2,21.5,91,22.1z M113.7,49.9c0.5,0.5,0.9,0.3,0.5,1c-0.3-0.4-0.7,0.2-1.1-0.4C113.4,50.3,113.5,50.1,113.7,49.9z
		 M101.8,33.8c1,0.9-0.8,1.4-1.3,0.9C101,34,101.4,34.5,101.8,33.8z M83.9,14.3c0.4,0,1.1,0.9,0.5,1.4
		C83.9,15.2,83.5,14.7,83.9,14.3z M114.9,48.8c-0.1,0.1-0.2,0.2,0,0.4c0.3-0.3,0.6-0.3,0.9-0.1c-0.6,0.6-1.3,0.7-1.8,0.3
		C114.3,49.1,114.6,48.6,114.9,48.8z M114.5,45.1c-0.6-0.7-1.3,0.6-1.8-0.1C113.2,44.4,114.7,44.2,114.5,45.1z M78.4,2.3
		c-0.4,0.8,0.7,0.4,0.6-0.2c0.5,0.5,0.2,0.9,0.1,1.3c-0.8-0.2-0.7,0.3-1.8-0.1C77.5,2.8,77.9,2.3,78.4,2.3z M152.3,81
		c-0.5,0.7-1,0-1.5-0.1C151.3,80.3,151.8,80.3,152.3,81z M113.2,34.7c-0.5,0.5-0.9,0.3-1.3-0.3C112.3,33.9,112.8,34.2,113.2,34.7z
		 M128.7,52.2c0.8,0.6-0.3,1.6-0.8,0.7C128.4,52.4,128,52.2,128.7,52.2z M116.2,35.8c0.8-0.8,2.6-0.4,2.7,0.7
		c-0.7-1.1-1.6,0.1-2.4,0.1C116.9,36.1,116.1,36.5,116.2,35.8z M161.5,82.4c-0.8,0.2-1.6,0.4-2.4-0.3
		C159.9,81.7,161.4,81.4,161.5,82.4z M94.5,6.4c-0.4-0.3-1.7-0.5-1.4-1.2C93.5,4.8,94.8,5.7,94.5,6.4z M109.4,17.8
		c0.6,1,1.2,0.6,1.8,1.2c-0.7,0.7-1.3-0.5-2.1,0.9c-0.3-0.6-0.7-0.1-1.1-0.8C108.9,18.5,108.7,18.7,109.4,17.8z M134.6,45.8
		c0.7,0.6,0.9,1.2,0.1,1.7c-0.6-0.2-0.7-1.2-1.6-1C133.7,45.6,134.1,46.5,134.6,45.8z M107.6,8.6c-0.7,0.6-1.4,1.2-2.1,0.9
		C106.2,8.8,107,7.8,107.6,8.6z M122.5,27c-0.5,0.5-0.9,0.3-1.3-0.3C121.7,26.2,122.1,26.4,122.5,27z M117.4,19.4
		c-0.7,0.6-1.4,0.9-2,0.1C116,19,116.7,19.3,117.4,19.4z M121.9,23.1c0.9,0.8,2-0.2,2.9,0.1c-0.7,1.4-1.8,0.7-3.2,0.8
		c-0.2,0.3-0.1,0.7-0.6,0.2C121.2,23.8,121.4,23.4,121.9,23.1z M137,37.7c-1,0.8-1.9,0.6-2.8,0.4C135.2,37.3,136.1,37.5,137,37.7z
		 M111.9,7c-0.5,0.4-1,0.3-1.5,0.3c0.4-0.6,0-1.3,0.5-1.9C111.6,6,111.2,6.5,111.9,7z M108.9,7.7c-0.3-1-0.7-0.6-1.4-1.2
		c1.3-0.1,2.3-2.2,3-0.6C109.4,6.1,109.5,6.9,108.9,7.7z M112,8.8c-0.3-0.8-1.7,0.2-1.4-0.8c0.7,0,1.4-0.2,2,0.7
		c-0.4,0.3-0.3,0.6,0.1,1c-0.6,0.5-1.2,0.5-1.8,0.3C111.1,9.5,112.3,9.5,112,8.8z M124.3,20.5c-0.5-0.4-1,0.3-1.4-0.5
		C123.2,19.5,124.5,20,124.3,20.5z M122.1,20.4c0.6-0.4-0.5-0.9,0.2-1.3C123.1,19.5,122.8,20.7,122.1,20.4z M126.1,24.3
		c0.5-0.7,1-0.4,1.5-0.7c0.5,0.8,0.9,0.6,1.4,0.8c-0.8,0.3-0.5,0.4-1.2,1.1c-0.3-0.8-0.5-1.1-1.3-0.3
		C126.3,24.9,126.1,24.6,126.1,24.3z M154.1,53.7c-0.5,0.8-1.3,0.4-1.3,1.3c-0.1-0.1-0.2-0.3-0.3-0.4c-0.1,0.1-0.3,0.2-0.4,0
		C152.4,53.6,153.3,53.1,154.1,53.7z M176.6,82c0.5,0.3,0.9-0.2,0.9,0.6C176.9,83.4,176.1,82.6,176.6,82z M113.7,7.9
		c-0.6,0.1-1.1-0.2-1.6-0.7C112.5,6.3,113.9,7.6,113.7,7.9z M150.4,47c-0.8,0.4-1.5,0.4-2.2-0.1C148.9,46.4,149.6,46.5,150.4,47z
		 M120.7,9.6c-0.4-0.3-0.2,0.3-0.6,0.5c-0.8-0.2-0.8-1.3-1.8-0.5c-0.1,0.7,1.1,0.5,0.5,1.4c-0.7,0-1.1-0.4-1.4-1.2
		C118.5,8.8,120.4,8.4,120.7,9.6z M145.2,39.8c0.8,0.3,1.6-0.8,2.4,0.3c-0.7,0.7-1.4,0.4-2.1,0.9C145,40.6,144.9,40.2,145.2,39.8z
		 M131.5,22c0.4,0.1,0.7,0.3,1.1,0.8C132.1,23.7,131,22.6,131.5,22z M123.5,9.9c-0.3,0.2-0.3,0.5-0.4,0.7c-0.4-0.1-0.7-0.3-1.1-0.8
		C122.5,9.4,123,9.5,123.5,9.9z M135.2,22.6c-0.6,0-1.2,1.2-1.7,0.5C134.1,22.5,134.6,22.4,135.2,22.6z M140.3,26.1
		c-0.8,0.9-0.9-0.2-1.3,0.9c-0.3-0.3-0.5-0.7-0.5-1C139.1,25.3,139.7,25.4,140.3,26.1z M136.3,25.5c0.7,0.8,1.5-0.7,2.2,0.5
		C137.8,27.1,136.3,26.5,136.3,25.5z M125.9,12.4c-0.5,1-1,0.1-1.4-0.5C125,11.3,125.5,12.2,125.9,12.4z M137.7,23.5
		c-0.5,0.7-1,0.2-1.5,0.3C136.2,22.9,137.2,22.8,137.7,23.5z M140,22.1c-1,0.8-1.4,0.8-1.6,1.8c-0.7,0-0.4-0.7-0.7-1.2
		c0.5-0.7,1-0.4,1.5-0.7c-0.2-0.2-0.7-0.1-0.5-0.6c1.1-0.4,1.6,0.4,2.3,1.1c-0.2,0.3-0.1,0.6-0.6,0.9C139.7,23,140.2,22.5,140,22.1z
		 M142.6,24.3c-1.3,0.7-2.5,0.5-3.7,0.2C139.2,22.7,141.4,23.7,142.6,24.3z M125.7,6.4c-0.9,0.3-1.8-0.2-2.7-0.3
		C123.9,5.7,124.8,5.5,125.7,6.4z M130.9,12.4c-0.1,0.5-0.2,1.5-1,0.9C129.9,13.1,130.4,12,130.9,12.4z M129.8,8
		c1,0.5-0.8,0.9-0.2,1.3c0.5,0.4,1-0.7,1.5,0.1c-1,0.8-2,0.4-2.9,0.2C128.4,8.8,129.3,9.2,129.8,8z M144,26.7
		c1.2-1.1,2.5,0.7,1.9,1.8C145.4,27.7,145.5,27.4,144,26.7z M144.3,24.2c-0.3,0.3-0.6,0.6-1,0.9c-0.2-0.3-0.5-0.5-0.3-0.8
		C143.4,24.9,143.9,23.1,144.3,24.2z M137.4,14.7c0.5,0.5,0.1,0.9-0.2,1.3c-0.2-0.2-0.5,0-0.7-0.4C136.7,15.3,137.1,15,137.4,14.7z
		 M134.5,10.1c0.4,0.7,0.3,1.4-0.3,2.1C133.4,11.5,133.8,10.2,134.5,10.1z M143.4,22.1c0.6-0.9,1.5,0.3,1.4,0.8
		C143.9,23.8,144.2,22.7,143.4,22.1z M137.6,10.1c0.3,0.4,0.6,0.6,0.9,0.6c-0.9,0.4-1.1-0.4-1.7,0.9c-0.2-1.2-0.9-0.3-1.6-1
		C136,9.9,136.8,10.8,137.6,10.1z M142.6,12.3c-1.1-1.4-3.3,0.3-3.8-1.2C139.9,11.2,142.8,10.2,142.6,12.3z M141.5,12.2
		c-0.4,0.4,0.2,0.8-0.4,1.1c-0.3-0.2-0.6-0.1-0.9-0.6C141,12.5,140.7,11.8,141.5,12.2z M147.9,11.9c0.4,0.8,0.9-0.1,1.3,0.6
		c-0.5,0.4-1,0.6-1.5,0.3C147.9,12.6,147.8,12.3,147.9,11.9z M163.8,25.4c-0.6,0.1-2.5,0.8-2-0.7C162.3,25.6,163.9,24.6,163.8,25.4z
		 M181.5,46.2c0.8,0.6-0.2,1.7-0.8,1.1C181.3,47,180.9,46.6,181.5,46.2z M163.3,24.4c-0.5,0.5-0.9,0.1-1.3-0.3
		c0.5-0.3,0.5-1.6,1-1.3C162.8,23.4,163.3,23.9,163.3,24.4z M163.9,22.7c0.9,0.6,0,1.9-0.6,1.3C163.4,23.6,163.2,23.1,163.9,22.7z
		 M156.9,13.4c0.5,1.1,1.1-0.3,1.6,0.7c-0.9,0.6-1.9,0.5-2.8,0.4C156.1,14.1,156.5,13.7,156.9,13.4z M164,21.2
		c-0.3,0.2-0.5,0.5-0.8,0.7c-0.2-0.2-0.3-0.4-0.5-0.6C163.2,20.6,163.6,21.1,164,21.2z M167.1,25.2c1-0.9,0.8,0.7,1.8,0.9
		C168.3,26.3,167.1,25.9,167.1,25.2z M169.5,26.3c0.2,0.3,0.5,0.5,0.7,0.8c-0.4,0.7-1.7,0.9-1.5-0.1
		C169.2,27.5,169.4,26.4,169.5,26.3z M187.4,46.2c-0.4,0.1-0.8-0.4-1.3-0.6c2.6-0.1,5.1-0.2,7.7,0.8c-0.8,1.4-1.4-0.7-2.2,0.3
		c0.5,0.5,0.9,0.3,0.5,1c-0.8,0-0.4-0.8-1.2-1.4c-0.8,0.9-1.6-0.6-2.4,0.5c0.5,0.2,1,0,1.4,0.8c-0.4,0.5-0.7,0-1.1,0.7
		c-0.7-0.3,0.2-1.5-0.7-1.2c-0.6,0.4,0.5,0.9-0.2,1.3c-0.4,0.1-0.7-0.1-1.1-0.4C186.9,47.3,187.6,46.8,187.4,46.2z M167.2,22.5
		c0.8,1.1,1.7,0.3,2.5,0.9c-0.5,0.8,0.1,1.4-1,1.7c-0.8-0.6-0.2-1-0.3-1.5c-0.6,0.2-1.1-0.1-1.7,0.5C166.2,23.5,166.7,23,167.2,22.5
		z M161,14.1c-0.6,0.6-1.3,1.4-1.9,0.7C159.8,14.5,160.5,13.5,161,14.1z M174,30.3c-0.3,0.2-0.5,0.5-0.8,0.7
		c-0.2-0.2-0.4-0.4-0.5-0.6C173.2,29.9,173.6,29.8,174,30.3z M179.7,26c0.3-0.1,0.6-0.1,0.9,0.2c-1.4,0.9-2-1.5-2.7-1.9
		c-0.3,0.3-0.6,0.6-1,0.9c-1.4-1.2-2.8-1.1-4.2-0.8c-0.2,0.9-0.8,1.6-1.2,1.9c0-1.5-0.7,0.5-1.4-0.5c1.2-1,2.2-1.5,2.9-2.7
		c1.1,1.8,3.3,0,4.8-0.1c-0.2,0.4-1.2,0.7-0.8,1.1c0.7-0.5,1.4-0.3,2.1-0.9c-0.2-0.2-0.7-0.1-0.5-0.6c0.7,0.7,2.3-0.5,2.3,0.7
		c-0.9-0.6-2.3,0.8-1.6,1.8c0.2-1.4,2.5-0.5,2.6,0.1C181.3,25.3,179.3,24.6,179.7,26z M180.6,24.1c0-0.4,0.8-0.9,1.3-0.9
		c-0.4,0.6,0.8,0.2,1.1,0.8C182.1,24.7,181.3,24.3,180.6,24.1z M161,14.5c0.9-0.2,1.8,0,2.7,0.3C162.9,15.2,161.2,15.6,161,14.5z
		 M168.2,21.6c-0.4-0.2-0.8,0.4-1.1-0.4C167.4,20.2,168.6,21.1,168.2,21.6z M171.7,22.4c-0.5,0.5-1.8,0.7-1.6-0.3
		C170.6,22.4,171.1,22,171.7,22.4z M165.4,14.8c0,0.6-1,1-1.5,0.3C164.4,14.4,164.9,14.6,165.4,14.8z M195.8,47
		c-0.2,0.9-1.1,0.1-1,1.3C193.9,47.7,195.3,46.4,195.8,47z M197.8,46.9c0,0.8-1,0.5-1.5,1.5c-0.2-0.2-0.3-0.4-0.5-0.6
		C196.5,47.1,197.2,46.3,197.8,46.9z M176.6,22.8c-0.5,0.1-1.8,0.8-1.6-0.3C175.5,22.8,176.1,22.2,176.6,22.8z M173.4,16.7
		c-0.5,0.5-0.9,0.7-1.3,0.1C172.5,16.3,173,16.1,173.4,16.7z M184,25.3c0.5,0.1,1,0,1.5,0.1c-0.6,0.6-0.7,1.4-1.5,1.1
		C184.3,26.1,183.5,25.6,184,25.3z M187.7,27.2c0.3,0.4,0.6,0.6,0.9,0.6c-0.1,0.1-0.3,0.2-0.4,0.4c0.1,0.1,0.2,0.3,0,0.4
		c-1-0.9-0.3,0.8-0.8,1.1c-0.4-0.3-0.9,0.2-1.3-0.6C187.1,28.4,187.1,27.8,187.7,27.2z M185.7,23.6c0.2,0.3,0.7,0.7,0.5,1
		c-0.8-0.4-1.7,0.7-2.5-0.5C184.6,23.6,185.1,24.4,185.7,23.6z M237.7,83.6c0.6,0.5,0.1,1-0.4,1.5c-0.2-0.3-0.5-0.4-0.7-0.4
		C236.6,84.2,237.2,83.6,237.7,83.6z M206.1,46.7c0.6-0.4,1.2-0.2,1.8,0.5c-0.6,0.7-0.7,2.1-1.7,1.3
		C206.8,47.7,207.2,47.1,206.1,46.7z M191.9,28c-0.7,0-0.8-0.7-0.7-1.2c-1.3,0.8-3.6,0.3-4.2-1.2c1.5,0.9,3.3,0.5,4.4-0.2
		c-0.3,0.5,0,1,0.3,1.6c0.1-0.8,0.2-0.9,1-0.9c0.4,0.3,0.1,0.6,0.1,1c0.4-1,0.4-0.3,1.1-0.3c-0.5-0.8,0.6-0.9,1.1-0.3
		c0,0.7-0.8,0.4-1.3,1.3C192.5,27.4,192.4,26.9,191.9,28z M178.8,10.8c0.9,0.8,1.7-1,2.2-1c0.7,1-0.4,0.8-0.8,1.9
		c-0.3-0.8-0.7,0-1.1,0.3C178.6,11.6,178.5,11.2,178.8,10.8z M191.7,24.5c0.8,0.4,1.6,0.4,2.4,0.7c-0.6,0.4-1.1,0.6-1.7,0.5
		C192.7,25.4,190.9,25.5,191.7,24.5z M185.2,14.2c0,0.5-0.8,1.4-1.3,0.9C184.3,14.9,184.8,13.8,185.2,14.2z M184.3,10.3
		c-0.5,0.7-0.9,0.2-1.3,0.9c0.5,0.5,0.9,0.3,0.5,1c-0.5-0.3-2.1,0.1-2-1.1C182.3,10.6,183.2,9.6,184.3,10.3z M196,26.7
		c0.3,0.9,1.6-0.4,1.3,0.6C196.7,27.5,195.4,27.8,196,26.7z M192.5,19.4c-0.7,0.2-1.5,0.1-2.2,0.3C190.4,19.1,192.5,18.4,192.5,19.4
		z M186.1,12c-0.3,0.2-0.3,0.5-0.4,0.7c-0.4-0.4-1.8-0.3-1.6-1C184.7,12.3,185.4,11.1,186.1,12z M203.7,26.7c-1.2,0.5-3,0.4-4.4,0.5
		c0.3,0.5,0.7,0.9,0.1,1.3c-0.2-1.6-0.8-0.4-1.8-1.2c0.7-0.7,1.2-0.7,1-2.1C199.8,27.4,202,25.8,203.7,26.7z M249.6,84
		c-0.6-0.3-1.3,0.8-1.8-0.1C248.3,83.7,249.8,83.1,249.6,84z M219.1,47.2c0.3,0.6,0.7,0.7,1.1,0.1c0.7,1.2-1.3,2.5-2.3,1.8
		C219,48.3,218.9,48.2,219.1,47.2z M189.7,12.5c-1.1,0.4-2.2-0.1-3.3-0.2c0.2-0.2,0.4-0.4,0.6-0.5C187.9,12.4,188.8,12,189.7,12.5z
		 M206.5,33.1c-0.7-0.1-2.4,0.2-2.5-0.9C204.7,32.8,206.5,31.8,206.5,33.1z M204.9,29.2c0.9,0.9,1.9,0.2,2.9,0.9
		c-1.1,0.8-3.1,0.3-3.5-0.4C204.6,30,204.8,29.5,204.9,29.2z M191.2,12.2c-0.3,0.3,0.4,0.7,0.1,1c-0.5-0.4-1,0.3-1.4-0.5
		C190.3,12.3,190.8,11.8,191.2,12.2z M194.6,13c-0.6,0.7-1.3,0.6-1.8,0.3C193.4,13.1,194,12.5,194.6,13z M205.2,26.7
		c1.1-0.8,1.2,0.1,2,1.1c-0.3,0.3-0.6,0.6-0.6,0.9c-0.1-0.1-0.2-0.3-0.3-0.4C206.6,27.4,206.1,27.1,205.2,26.7z M192.9,10.2
		c1,0.3,2-0.5,2.9,0.5c-1,0.1-0.7,1.4-1.5,1.5c-1-0.5,0.1-1.8-0.7-1.6c-0.3,0.4,0.1,0.9-0.6,1.3C192.5,11.3,192.8,10.8,192.9,10.2z
		 M197.2,13.1c-0.1,0.4-0.3,0.8-0.8,1.1c-0.4-0.9-1-0.1-1.4-0.8c0.1-0.1,0.3-0.2,0.4-0.4C195.9,13.8,196.3,12.9,197.2,13.1z
		 M211.4,27.4c-0.9-0.1-3.3,1.6-2.9-0.1C209.4,28.2,210.4,26.5,211.4,27.4z M216.7,30.8c-0.5,0.4-1,0.6-1.5,0.3
		C215.3,30.5,216.2,30.1,216.7,30.8z M217,28.7c-1.1-0.5-3.9,0.8-3.8-1.2C214.3,28.6,216.5,27.5,217,28.7z M223.2,33.8
		c-0.5,0.7-1,0.5-1.5,0.3C221.7,33.5,222.7,33.4,223.2,33.8z M222,30.9c1,1.7,2.1,0.4,3.1,1.1c-0.7,1.2-2.7,0.1-3.9,0
		C221.8,31.6,221.3,31.2,222,30.9z M222.4,30.1c1,1.1,1.2-1.4,2.4-0.5c-1,0.6-0.5,0.4-1,1.3C223.3,31,221.8,31.2,222.4,30.1z
		 M228.6,30.8c-0.6,0.7-1.1,0.8-1.7,0.5C227,30.6,228.1,29.8,228.6,30.8z M217,15.8c-0.7,1-1.2,0.4-1.8,0.3
		C215.8,16,216.5,15.4,217,15.8z M216.7,15.1c-0.4,0.6-1.7,0.3-1.4-0.5C215.7,15.1,216.3,14,216.7,15.1z M219.4,17.3
		c-0.3,0.4,0.5,0.8,0.3,1.2c-0.5,0.5-0.9,0.7-1.3,0.1C219,18.3,218.4,17,219.4,17.3z M219.4,13.3c-0.1,0.3-0.8,0.9-0.6,1.7
		c0.4-0.4,0.9,0.1,1.3,0.6c-0.9,0.5-1.9,1.6-2.8,0.8C218.6,15.6,217.7,12.3,219.4,13.3z M235.2,34.4c-0.4,0.8-1.6,0.5-1.3-0.3
		C234.4,34.5,234.9,33.6,235.2,34.4z M222,16.3c-0.5,0.5-0.9,0.7-1.3,0.1C221.1,15.9,221.6,15.7,222,16.3z M233.2,30.1
		c0.9-0.1,2.5-0.3,2.7,0.7c0.7-0.6,1.9,0.5,2.1-0.9c0.2,0.3,0.5,0.5,0.7,0.8c-0.5,0.7-0.9,0.2-1,0.9c-1-0.5-1.6-0.6-1.9,0.7
		c-0.8-0.4-0.1-0.8-0.3-1.2c-0.3,0.3-0.6,0.6-1,0.9C233.8,30.9,234.7,30.4,233.2,30.1z M239.8,31.6c1,1.2-1.3,1.9-1.9,1.1
		c0.2-0.3,0-0.6,0.2-0.9C239.3,31.6,238.9,33.1,239.8,31.6z M241.9,30.3c0.9,0.7-0.1,1.4-0.6,2.1c-0.3-0.3-0.6,0.3-0.9-0.2
		C241,30.9,241.4,31.7,241.9,30.3z M246.2,35c-0.6,0.3-1.1,0.8-1.7,0.1C245.1,34.4,245.7,34.4,246.2,35z M297,83
		c0.5-0.4,1.8-0.7,1.6,0.3c-0.5-0.5-1.1,0.2-1.1,0.7C297.1,83.6,297,83.3,297,83z M256.2,32.4c1,1.2-1.9,2.5-1.7,0.9
		C255.3,33.8,255.3,32.5,256.2,32.4z M299.9,82.7c1-0.3,3-0.9,3.3,0.5c-1.3-0.6-0.6,0.9-1.2,1.5c-0.7-0.7-0.4-1.4-0.4-2.1
		C300.9,83.5,299.9,83.8,299.9,82.7z M305.6,82.8c-0.5-0.2-1,0.3-1.5-0.1C304.1,81.6,306.3,81.9,305.6,82.8z M256.4,16.9
		c-0.6,0.4-1.2,0.4-1.8-0.1C255.2,15.9,255.8,16.4,256.4,16.9z M259.7,15.9c0.5-1.5,0.9,0,1.5,0.1c-0.4-1,0.5-1.7,0.8-2.3
		c0.9,0.9-1.2,1.6-0.3,2.5c0.2-0.3,0.1-0.6,0.6-0.9c0.3,0,1.4,0.7,1,1.2c-1-0.7-5,2.7-4-0.2c-0.7,0-2.5,0.7-2.5-0.5
		C257.3,15,259.4,14.9,259.7,15.9z M260.9,14c-0.9,0.6-1.9,0.5-2.8,0.4C259.1,14,260,13.4,260.9,14z M317.8,80.4
		c0.8,0.5,2.6-1.1,2.7,0.3C319.7,80.6,318,81.9,317.8,80.4z M264.3,13.4c0.2,0.3,0.7,0.7,0.5,1c-0.9-0.6-1.3-0.5-1.7,0.5
		C262.6,13.8,263.6,13.8,264.3,13.4z M267.6,15.7c0.4,0.8,0.9-0.4,1.3,0.6C268.4,16.8,267.1,16.5,267.6,15.7z M266.4,11.4
		c0.5,0.4,0.6,0.8,0.3,1.2c-0.2-0.2-0.5-0.6-0.7-0.4c-0.2,0.1-0.4,0.4-0.6,0.2C265.7,12,266,11.7,266.4,11.4z M327,80.5
		c-0.2,0.3-0.1,0.6-0.6,0.9c-0.4-0.8-0.8-0.3-1.3-0.6C325.7,80.2,326.4,79.8,327,80.5z M274.2,15.7c-0.1,0.4,0.8,0.5,0.9,0.6
		c0.2-0.3,0-0.6,0.2-0.9c1-0.1,1.2,0.9,0.5,1.7c-1-0.2-2,0-2.9-0.5C273.6,16.2,273.9,15.7,274.2,15.7z M330.2,82.2
		c-0.2-0.3-0.5-0.5-0.7-0.8C330.1,80.5,331,81.6,330.2,82.2z M279,16.7c0.6-0.3,1.1-0.4,1.6,0.3c-0.6,0.6-1.1,0.5-1.7,0.1
		C279,16.9,279.1,16.8,279,16.7z M338.4,79.5c0.4,0.3,0.9,0.1,1.3,0.6c-0.3,0.2,0.1,1.4-0.6,0.9c0.4-0.5,0-1-0.5-0.6
		c0.1,0.4,0.1,0.8-0.1,1.2c-0.3-0.4-0.7,0.2-1.1-0.4C338.3,80.7,337.4,80,338.4,79.5z M284.5,15c0.8,0.4,2.6-0.2,2.7,0.7
		c-0.5-0.3-1.1,0.1-1.7,0.1c0.3,0.4,0.6,0.2,0.9,0.6c-0.5,0.3-1.3,0.5-1.3,1.3C284.8,16.8,284.6,15.9,284.5,15z M342,79.7
		c-0.3,0.4-0.1,0.9-0.6,1.3C341,80.5,341.2,79.1,342,79.7z M288.3,16.2c0.9,0.9,0.7,1.7,0.4,2.5c-0.2-0.3-0.5-0.4-0.7-0.4
		C288.5,17.6,287.4,16.9,288.3,16.2z M343.6,80.7c-0.5,0.5-0.9,0.7-1.3,0.1C342.8,80.3,343.2,80.2,343.6,80.7z M290.7,15.7
		c-1,0.2-2,0.4-2.9-0.2c1.1-0.2,1.3-0.5,2-0.5c-0.1,0.2-0.1,0.4,0.2,0.6C290.3,15.5,290.5,15.3,290.7,15.7z M292.2,16.6
		c-0.2,0.3,0.2,0.6,0.1,1c-1.1,0.8-2.1,0.6-3.1,0c0.6-0.5,0.2-1,0.8-1.5C290.7,16.5,291.4,16.2,292.2,16.6z M348.3,79.6
		c-0.7,0.5-1.2,1.1-1,1.7c-0.5-0.5-1.1,0-1.6-0.3c1.1-1.2-0.5-0.8,0.1-1.5C346.5,80.3,347.4,79.3,348.3,79.6z M293.5,14.5
		c0.4,0.3,0.2,0.6,0.5,1c0.2-0.2,0.1-0.4,0.2-0.6c0.8,0.5,0.3,0.9-0.2,1.3c-0.2-0.2-0.5-0.6-0.7-0.4c0.2,0.3-0.1,0.5-0.4,0.7
		c-0.2-0.2-0.3-0.4-0.5-0.6C293.4,15.2,293.2,15.5,293.5,14.5z M296,17.4c0.6-0.4,1.2,0.1,1.8,0.1C297.1,18.4,296,18.5,296,17.4z
		 M300.1,16c0.6-0.1,1.1-0.6,1.7-0.1c-0.5,0.9-1,0.2-1.5,0.3c0.1,0.2,0.3,0.4,0.2,0.6C300.1,16.5,300.1,16.3,300.1,16z M304.2,17.6
		c-0.6-0.4-1.2,0.3-1.8-0.5C302.9,16.6,304.4,16.7,304.2,17.6z M303.8,17.9c0.2,0.1,0.4,0.1,0.6-0.2c0.5,0.4,0.6,0.8,0.3,1.2
		c-0.3-0.2-0.6,0-0.9-0.2C304,18.5,303.7,18.2,303.8,17.9z M308,18.3c-1,0.9-2,0.7-2.9,0.2C306.1,17.8,307,18.7,308,18.3z
		 M308.7,16.3c-0.4,1.3-1.6,1.1-2.4,0.8C307.1,16.3,307.9,15.7,308.7,16.3z M313.1,19c0.2,0.3,0.1,0.6,0.5,1c-0.8,0.7-1.6,1-2.4,0.1
		C312.2,20,313.1,19.5,313.1,19z M324,16.7c-0.5,0.5,0.6,0.1,0.7,0.8c-0.4,0.6-1.6-0.1-1.3-0.6C323.9,17.2,323.7,16.4,324,16.7z
		 M399.5,17.8c0.5,0.3,1,0.1,1.4,0.8c-0.8,0.8-1.5,0.9-2.2,1c-0.2-0.2-0.3-0.4-0.5-0.6C399.2,18.7,399,18.9,399.5,17.8z M405.5,19.1
		c-0.8-1-1.9,0.6-1.6-1C404.3,18.5,405.7,18.1,405.5,19.1z M475.2,77.7c-1.7,1.3,1.8,0.4-0.1,2.3c-0.6-0.9-0.4-0.9-1.2-1
		C474,78.4,474.3,77,475.2,77.7z M473.2,79.9c-0.2-0.2-0.5-0.6-0.7-0.4c-0.3,0.4,0.1,1.8-0.8,1.5c-0.1-0.5,0.3-0.9-0.1-1.3
		c1-0.1,0.9-1.7,1.9-1.8C473.7,78.5,474.1,79.2,473.2,79.9z M423.5,18.1c0.6-0.5,1.1-0.2,1.7-0.1c0,0.7-0.8,0.4-1.3,1.3
		C423.2,18.8,423.8,18.5,423.5,18.1z M477.9,77.6c0.5,0.7,0.1,1.3,0.3,1.9c-0.5-0.4-1,0.7-1.5-0.1C477.3,78.5,477.4,78.6,477.9,77.6
		z M427.3,18.8c-0.9-0.4-0.7,0.9-1.5,0.3C425.7,18.7,427.6,17.6,427.3,18.8z M478.5,77.8c0.4-0.4,0.8-0.4,1.1,0.1
		c-0.2,0.5-0.4,0.8-0.8,0.7C479,78.4,478.7,78.1,478.5,77.8z M481.2,15.6c-0.6-0.6-1.4,0.6-2,0.1C479.8,14.7,481.3,14.7,481.2,15.6z
		 M484.1,15.4c-0.9-0.1-1.8,0.3-2.7-0.3C482.3,14.3,483.2,14.4,484.1,15.4z M485.4,14.5c-0.3,0.2-0.5,0.5-0.8,0.7
		c-0.2-0.2-0.3-0.4-0.5-0.6C484.6,13.9,485,14.4,485.4,14.5z M543.3,47c0.6,0.7,0.1,1.3-0.5,1.9c-0.9,0.5-2.2,0.4-3.5,1.2
		c-0.2-0.3-0.5-0.5-0.3-0.8C539.9,48.3,541.9,47.5,543.3,47z M548.3,47c0.3,0.4,0.5,0.8,0.3,1.2c-1.2,0.1-2.5,0.8-3.7,0.6
		C546,48.1,547.1,47.7,548.3,47z M518.9,12c-0.2,0.7-1.6,1.5-2.3,1C517.4,12,518.2,12.2,518.9,12z M553.8,45.4c-1.6,1-3,1.3-3.8,2.9
		c-0.2-0.3-0.5-0.5-0.7-0.8C550.5,47.1,551.8,44.6,553.8,45.4z M532,6.5c0.3-0.3,0.6-0.5,0.9-0.5c0.9,0.9-0.7,1.8,0.6,2.7
		c-0.7,0.1-1.4,1-2,0.1C532.7,8.9,533.1,7.6,532,6.5z M567.3,46.5c0.5,0.5-0.1,1-0.1,1.5c-0.4-0.3-0.9,0.2-1.3-0.6
		C566.5,46.9,566.9,47.2,567.3,46.5z M560.6,30.6c0.5,0.3,0.9-1.1,1.2-1.5c0.8,0.4,0.1,0.8,0.3,1.2c0.2-0.1,0.4,0,0.5,0.2
		c-0.9,0.2-1.7,0-1.3,1.3C560.8,31.8,560.5,31.1,560.6,30.6z M553.9,12c-0.4-0.6-0.9,0.5-1.3-0.3C553,11,554.2,11.3,553.9,12z
		 M559,12.3c-0.9,0.6-1.9,1.1-2.8,0.4C557.2,12.7,558.2,11.6,559,12.3z M562.7,12.9c-0.5,0.4-1,0.7-1.5-0.1
		C561.7,12.4,562.2,12.4,562.7,12.9z M562.5,9c0.5,0.6,0.6,0.6,0.7,0c0.8,0.7-0.9,1.4-1.1,0.7C562.4,9.5,562.4,9.3,562.5,9z
		 M594.9,17.4c0,0.7-1,1.1-1.5,1.1C593.4,17.9,594.4,16.8,594.9,17.4z"/>
	<path class="st0" d="M164.7,9.5c-0.2,0.4,0.5,0.2,0.2,0.6c2.1-1.7,4-0.2,6.1-1c-1.7-0.8-3.4-0.7-5.1-0.6c-0.2,0.2,0.2,0.5,0.3,0.8
		C165.7,9.3,165.2,9.7,164.7,9.5z"/>
	<path class="st0" d="M38.5,72.7c0.6,0.5,1.2-0.3,1.8-0.3C39.7,72.3,39.1,72,38.5,72.7z"/>
	<path class="st0" d="M71.6,69.8c-0.5,0.3-0.4,0.6-0.6,0.9c0.3,0.2,0.6-0.3,0.9-0.5c0,0.3,0.1,0.5,0.3,0.8
		C72.7,70.3,72,70.2,71.6,69.8z"/>
	<path class="st0" d="M45.3,40.3c-0.8,0.2,1.1,0.2,1,1.2c0.3-0.4,0.2-0.9,0.2-1.3C45.8,39.5,46.1,40.9,45.3,40.3z"/>
	<path class="st0" d="M56.8,52.4c-0.4,0.4-0.5,0.7-0.1,1.1c0-0.5,0.5-0.7,0.9-0.5C58.1,52.5,57,52.7,56.8,52.4z"/>
	<path class="st0" d="M54.8,47.7c-0.1-0.3,0.3-0.6-0.1-1c-0.5,0.4-0.7,0.7-0.8,1.1c0.3,0.4,0.8-0.5,1.1,0.1
		C55.2,47.6,54.9,47.6,54.8,47.7z"/>
	<path class="st0" d="M80.1,76c0.6,0.9,0.5-0.5,0.8-0.7c0.5-0.4,0,0.6,0.7,0.8c1-1.1,2-0.8,2.9-0.2c0.2-0.4,0.2-0.8,0.4-1.1
		c-0.8,0.6-2.5,0.7-3.8,0C80.6,75.6,80.1,75.3,80.1,76z"/>
	<path class="st0" d="M53.2,43c2.2-0.2,3.7,0.2,5.9-0.8c-0.3-0.4-0.8-0.2-0.5-0.6c-0.8-0.4-0.5,0.3-1.3,0.5c0.2-1-2.7-0.3-2-1.1
		C54.9,40.2,53.6,42.1,53.2,43z"/>
	<path class="st0" d="M89.5,82.8c0.5,0.8,2.7,0.8,3.8,0.4C92,83.1,90.8,82.9,89.5,82.8z"/>
	<path class="st0" d="M30,9.8c0,0.7-0.6,0.3-1.2,1.1c1.2,0.4,1.1-0.2,1.7-0.5C30.7,10,30.2,10.2,30,9.8z"/>
	<path class="st0" d="M58,43.2c0.7-0.2,1.3,0.3,2-0.5C59.4,41.8,58.6,43.1,58,43.2z"/>
	<path class="st0" d="M87.6,72.5c-0.5,0.3,0.1,0.6-0.2,0.9c0.4,0.4,0.9-0.1,1.3-0.1C89,72.8,87.8,73.6,87.6,72.5z"/>
	<path class="st0" d="M48.4,20.9c0.2-0.2-0.1-0.4-0.2-0.6c0.4-0.5,0.7,0,1.1-0.7c-0.7-0.3-1.4-0.7-2.2,0.3
		C47.8,20.3,48.1,19.8,48.4,20.9z"/>
	<path class="st0" d="M68.3,33c1-0.5,0.8,0.5,1.8,0.5c0.5-0.9,0.4-0.9,0.8-1.5C70.1,32.5,68.6,32.3,68.3,33z"/>
	<path class="st0" d="M108.1,76.5c-0.3-0.7,1-0.3,0.8-1.1c-0.4-0.6-0.9,0.6-1.3-0.3c0.1,0.8-0.9,1.1-0.1,2.3c0.5-0.4,1-0.6,1.5-0.3
		C109.4,76.6,108.3,76.8,108.1,76.5z"/>
	<path class="st0" d="M111.4,77.4c0.8,0.7,1.7-0.7,2.5,0.5c0.6-0.7-0.5-0.5-0.1-1C113,77.1,112.2,77,111.4,77.4z"/>
	<path class="st0" d="M115.2,76.6c-0.3-0.3-0.1-0.6-0.5-1c-1.1,0.4-2.1,0.2-3.1-0.4c0.1,1.6,1.9,0.4,2.7,1.9c0.7-1,1.2-0.3,1.8,0.5
		c1.1-0.2,1.1-0.7,2.1-1.2c-0.4-0.2-0.7-0.2-1.1-0.4c-0.5,0.3,0.1,0.6-0.2,0.9c-0.2,0.1-0.4,0-0.6,0.2c-0.2-0.4,0.5-0.7-0.3-1.2
		C115.5,75.9,115.3,76.1,115.2,76.6z"/>
	<path class="st0" d="M67.4,1c-0.2,0.2,0.1,0.3,0.2,0.2c0.3,0.3,0.5,0.5,0.3,0.8c0.3,0.2,0.6-0.3,0.9-0.5C68.4,1.1,67.9,1.1,67.4,1z
		"/>
	<path class="st0" d="M84.9,7c-0.3,0.5,2.3,1.6,3.3,0.6C88,7.4,86.8,8,87.1,7.1C86.4,6.6,85.6,8.1,84.9,7z"/>
	<path class="st0" d="M94.1,10.4c0.7,0.4,1,1.8,2.2,0.9c-0.1-1.5-2-0.3-1.7-2C93.7,9.6,95,10,94.1,10.4z"/>
	<path class="st0" d="M128.8,40.7c-0.4,0.8,0.7,0.3,0.9,0.6c0.4-0.3,0.2-0.8,0.6-0.5c0.2-0.1,0.1-0.3,0-0.4
		c-0.1-0.1-0.2-0.3-0.3-0.4c0.2,0.3-0.9,1.4-0.6,0.5C129,40.3,129.2,41,128.8,40.7z"/>
	<path class="st0" d="M114.7,13.1c0,0.7,1.6,0.6,2.2,0.9c-0.3,1.1,1.2,2,1.7,2.4c0-1.1-0.5-2.2-0.8-3.3c-0.2,1.9-1.2-0.3-2.4-0.3
		C115.4,13.3,115.2,13.4,114.7,13.1z"/>
	<path class="st0" d="M120.6,17.1c0.2,0.8,2,0.5,2.9,0.9c0.6-0.7-1.3-0.4-0.7-1.2C122.5,17,121.4,17.7,120.6,17.1z"/>
	<path class="st0" d="M118.9,13.9c-0.8,0.5,0.1,0.7,0.3,0.4c0.3,0.3,0.3,0.7,0.1,1c0.3,0.2,0.6,0,0.9,0.2c-0.3-0.3-0.5-1.6,0.6-0.5
		c0.2-0.3-0.3-0.7-0.5-1C119.8,14.4,119.4,14.4,118.9,13.9z"/>
	<path class="st0" d="M128.2,15.4c-0.3-0.2-0.6,0-0.9-0.2c-0.7,0.4,0.1,0.9-0.6,1.3C127.3,16.4,127.3,15.9,128.2,15.4z"/>
	<path class="st0" d="M136.6,7.3c-0.1,0.7-0.3,0.2-0.8,0.7c0.7,0.5-0.4,0.9,0.5,1.4c0.2-0.2,0.4-0.4,0.6-0.5
		c-0.3-0.5-0.6-1.1,0.4-0.7C137.8,7.6,136.7,8,136.6,7.3z"/>
	<path class="st0" d="M149.5,21.4c-0.5-0.3-0.1,0.5,0.2,0.2c0.1,0.4-0.1,0.8-0.4,1.1c0.6,0.3,1.4-1.1,0.8-1.5
		C149.9,21.5,149.7,21.5,149.5,21.4z"/>
	<path class="st0" d="M169.6,46.2c0.2,0.2,0.3-0.1,0.2-0.2c0.6-0.6,1.1,1,1.7-0.1c-0.6-1-1.2-0.3-1.8-0.5
		C169.5,45.7,169.9,46,169.6,46.2z"/>
	<path class="st0" d="M156.2,7c-0.7-0.8-1.4-0.8-2.2-0.5c0.8,1.1,1.7,0.8,2.5,1.7c0.4-1.3,1.7-0.5,2.6-1C159,7.2,156.5,5.9,156.2,7z
		"/>
	<path class="st0" d="M158.6,8.5c1,0.2,2-0.7,2.9,0.1c0.3-2.1,2.9,0.6,4.2-0.4c0-0.3-0.4-0.7-0.1-1c-0.8,0.1-1.6,1.1-2.4-0.3
		c-1.2,0.7-2.3,0.1-3.5,0c-0.2,0.3,0.3,0.7,0.5,1C159.7,8.3,159.1,7.6,158.6,8.5z"/>
	<path class="st0" d="M156.7,4c0.2,2,4.4,2.1,5.3,1.2C160.3,5,157.8,5.7,156.7,4z"/>
	<path class="st0" d="M170.4,6.8c0.7,0.3,1.4,0.4,2.2,0.5C172.6,6.5,171,6.6,170.4,6.8z"/>
	<path class="st0" d="M180.2,8c1.1,0.8,3.9,1,5.6,0.9c-0.7-1.1-1.5,0.1-1.8-1.2c-0.2,1.4-1.5-0.3-2.2,0.7c-0.7-0.6,0.6-1.3-0.5-1.4
		C181.6,8,181.1,8.2,180.2,8z"/>
	<path class="st0" d="M179.9,6.1c0,1,1.6,0.2,2.2,0.5c0.4-0.7-0.7-0.3-0.9-1C180.6,6.4,180.7,6.6,179.9,6.1z"/>
	<path class="st0" d="M186.2,8.9c1.3,0.7,2.5,0.9,3.8,0.8C189.5,7.3,187.4,8.6,186.2,8.9z"/>
	<path class="st0" d="M205.9,11.4c0.5,0.2,1.1,0,2-0.1c-0.2-0.2-0.3-0.4-0.5-0.6C206.9,11.6,206.4,10.8,205.9,11.4z"/>
	<path class="st0" d="M216.4,9.1c-0.4,0.4-0.8,0.7-1.2,1.1c0.9,0.3,1-1.2,2-0.5C217.7,9.2,216.6,9.4,216.4,9.1z"/>
	<path class="st0" d="M227,10.4c0.2,1.8,1.1-0.9,2,1.1c0.1-0.3,0.1-0.5,0.4-0.8C228.6,9.8,227.8,10.6,227,10.4z"/>
	<path class="st0" d="M244.4,10.7c-0.5-0.3-0.1,0.5,0.2,0.2c0.3,0.5-0.2,0.9-0.2,1.3c0.6,0.1,1.3-0.8,1.8,0.1
		c0.8-1.8,1.8-0.6,2.8-0.8c0.8-0.3-0.4-0.8,0.4-1.1c-1.1,0.5-2.1-0.4-3.1,0.4c-0.3-0.3-0.1-0.6-0.5-1
		C245.7,10.4,244.9,10.8,244.4,10.7z"/>
	<path class="st0" d="M274.2,12.8c0.9,0.9,2-1,2.9,0.1c0.2-0.3-0.3-0.7-0.5-1C275.8,13.1,275,11.7,274.2,12.8z"/>
	<path class="st0" d="M293.5,12.4c0,0.7,2.3,0.9,2.4,0.3C295,12.6,294.2,13,293.5,12.4z"/>
	<path class="st0" d="M311.6,17.2c0.3-0.5,0.3-1,0.4-1.5c-0.5-0.3-1,0-1.5,0.3c0.3,0.7,0.7,0,1.1,0.1
		C311.9,16.4,310.4,16.4,311.6,17.2z"/>
	<path class="st0" d="M382.2,15.2c-0.2,1,1.3,0.3,1.8,0.9c0.2-0.1,0.1-0.2,0-0.4c-0.1-0.1-0.2-0.3-0.3-0.4
		C383.2,15.8,382.7,15.2,382.2,15.2z"/>
	<path class="st0" d="M444.6,85.5c1,0.2,2.1-0.1,3.1,0.3c0.5-1.1,1.8-0.5,2.8-0.4c0.1-0.2,0-0.4,0.2-0.6c-0.2-0.1-0.1-0.3,0-0.4
		C448.6,85.2,446.6,84.7,444.6,85.5z"/>
	<path class="st0" d="M489.2,9.1c1-0.5-0.2-1,0.8-1.5c-0.2-0.1-0.4,0-0.5-0.2c-0.1,0.1-0.3,0.2-0.4,0.4C490,8.3,488.2,8.6,489.2,9.1
		z"/>
	<path class="st0" d="M497.4,10.5c1,1.1-0.1-1.5,1-0.9c0.4-0.7-0.8-0.7-1.1-0.1C497.6,9.9,497.7,10.2,497.4,10.5z"/>
</g>
</svg>
