<?xml version="1.0" encoding="utf-8"?>
<!-- Generator: Adobe Illustrator 24.0.0, SVG Export Plug-In . SVG Version: 6.00 Build 0)  -->
<svg version="1.1" id="Layer_1" xmlns="http://www.w3.org/2000/svg" xmlns:xlink="http://www.w3.org/1999/xlink" x="0px" y="0px"
	 viewBox="0 0 1366 331.5" style="enable-background:new 0 0 1366 331.5;" xml:space="preserve">
<style type="text/css">
	.st0{fill:#0F0F0F;}
	.st1{clip-path:url(#SVGID_2_);}
	.st2{fill:#3D3D3D;}
</style>
<g>
	<rect x="1" class="st0" width="1366" height="331.5"/>
</g>
<g>
	<defs>
		<rect id="SVGID_1_" x="1" y="0" width="1366" height="331.5"/>
	</defs>
	<clipPath id="SVGID_2_">
		<use xlink:href="#SVGID_1_"  style="overflow:visible;"/>
	</clipPath>
	<g id="Layer_1-2" class="st1">
		<g>
			<path class="st2" d="M1391.9,36l-11.2,1.9c-10.4,1.6-19.7,6.6-27.1,14.2L1313.4,95l-82.6-36.1c-5.5-2.5-11.8-1.1-15.9,3
				l-11.8,11.8c-1.1,1.1-1.4,2.7-0.3,3.8c0.3,0.3,0.3,0.3,0.5,0.5l75.8,53.6l-53.9,58l-34.5-7.9c-2.2-0.5-4.6,0.3-6.3,1.9l-9.8,9.8
				c-1.1,1.1-1.1,3,0,4.1c0.3,0.3,0.3,0.3,0.5,0.5l42.9,25.4c0.8,0.5,1.6,1.4,2.2,2.2l25.4,42.9c0.8,1.4,2.7,1.9,4.1,1.1
				c0.3,0,0.3-0.3,0.5-0.5l9.8-9.8c1.6-1.6,2.2-4.1,1.9-6.3l-7.9-34.5l58-53.9l53.6,75.8c0.8,1.4,2.5,1.6,3.8,0.8
				c0.3-0.3,0.5-0.3,0.5-0.5l11.8-11.8c4.1-4.1,5.5-10.4,3-15.9l-36.1-82.6l43.2-40.2c7.7-7.1,12.6-16.7,14.2-27.1l1.9-11.2
				c1.1-7.7-4.1-15-11.8-16.1C1394.9,35.7,1393.3,35.7,1391.9,36z"/>
			<path class="st2" d="M1208.7,247.4c2.7-3.8,2.2-9-1.6-11.8c-3.8-2.7-9-2.2-11.8,1.6l0,0l-18.6,25.2c-1.1,1.4-1.1,3.3,0,4.6
				c1.4,1.6,3.8,2.2,5.5,0.8l0,0l25.2-18.6C1207.6,248.5,1208.1,247.9,1208.7,247.4z"/>
			<path class="st2" d="M1181.3,228.8c2.7-3.8,2.2-9-1.6-11.8c-3.8-2.7-9-2.2-11.8,1.6l-18.6,25.2c-1.1,1.4-1.1,3.3,0,4.6
				c1.4,1.6,3.8,2.2,5.5,0.8l0,0l25.2-18.6C1180.2,230.2,1181,229.6,1181.3,228.8z"/>
			<path class="st2" d="M1213.3,264.3l-18.6,25.2c-1.1,1.4-1.1,3.3,0,4.6c1.4,1.6,3.8,2.2,5.5,0.8l0,0l25.2-18.6
				c0.5-0.5,1.4-1.1,1.6-1.6c2.7-3.8,1.9-9-1.6-11.8c-3.3-3-8.5-2.7-11.5,0.8C1213.6,263.8,1213.6,264.1,1213.3,264.3z"/>
		</g>
	</g>
</g>
</svg>
